<svg width="25" height="16" viewBox="0 0 25 16" fill="none" xmlns="http://www.w3.org/2000/svg">
<g clip-path="url(#clip0_107_246)">
<path d="M22.75 0H2.75C1.64543 0 0.75 0.89543 0.75 2V14C0.75 15.1046 1.64543 16 2.75 16H22.75C23.8546 16 24.75 15.1046 24.75 14V2C24.75 0.89543 23.8546 0 22.75 0Z" fill="#252525"/>
<path d="M9.75 13C12.5114 13 14.75 10.7614 14.75 8C14.75 5.23858 12.5114 3 9.75 3C6.98858 3 4.75 5.23858 4.75 8C4.75 10.7614 6.98858 13 9.75 13Z" fill="#EB001B"/>
<path d="M15.75 13C18.5114 13 20.75 10.7614 20.75 8C20.75 5.23858 18.5114 3 15.75 3C12.9886 3 10.75 5.23858 10.75 8C10.75 10.7614 12.9886 13 15.75 13Z" fill="#F79E1B"/>
<path fill-rule="evenodd" clip-rule="evenodd" d="M12.75 4C13.9644 4.91221 14.75 6.36455 14.75 8.00037C14.75 9.63618 13.9644 11.0885 12.75 12.0007C11.5356 11.0885 10.75 9.63618 10.75 8.00037C10.75 6.36455 11.5356 4.91221 12.75 4Z" fill="#FF5F00"/>
</g>
<defs>
<clipPath id="clip0_107_246">
<rect width="24" height="16" fill="white" transform="translate(0.75)"/>
</clipPath>
</defs>
</svg>
