<svg width="25" height="16" viewBox="0 0 25 16" fill="none" xmlns="http://www.w3.org/2000/svg">
<path d="M22.5 0.25H3C1.89543 0.25 1 1.14543 1 2.25V13.75C1 14.8546 1.89543 15.75 3 15.75H22.5C23.6046 15.75 24.5 14.8546 24.5 13.75V2.25C24.5 1.14543 23.6046 0.25 22.5 0.25Z" fill="white" stroke="black" stroke-opacity="0.2" stroke-width="0.5"/>
<path d="M3.53773 5.91444C3.01459 5.62751 2.41754 5.39674 1.75 5.23659L1.778 5.11188H4.51498C4.88596 5.12489 5.18699 5.23651 5.28495 5.63071L5.87977 8.46659L6.06198 9.32073L7.72797 5.11188H9.52679L6.85288 11.2775H5.05397L3.53773 5.91444ZM10.85 11.2841H9.14883L10.2128 5.11188H11.9139L10.85 11.2841ZM17.0168 5.26277L16.7854 6.59559L16.6316 6.53004C16.3237 6.40525 15.9174 6.28054 15.3644 6.29371C14.6927 6.29371 14.3915 6.56277 14.3845 6.82546C14.3845 7.11441 14.7489 7.30484 15.3439 7.58725C16.324 8.02719 16.7786 8.56557 16.7718 9.26819C16.7581 10.5486 15.596 11.3761 13.8111 11.3761C13.0479 11.3694 12.3128 11.2181 11.9138 11.0476L12.1519 9.66205L12.3759 9.76066C12.9289 9.99071 13.2928 10.089 13.972 10.089C14.4618 10.089 14.9869 9.89838 14.9936 9.48488C14.9936 9.21565 14.7699 9.01851 14.1117 8.71646C13.4678 8.42087 12.6068 7.92848 12.6208 7.04198C12.6281 5.84042 13.8111 5 15.491 5C16.149 5 16.6812 5.13789 17.0168 5.26277ZM19.2778 9.09749H20.6917C20.6218 8.78889 20.2996 7.31147 20.2996 7.31147L20.1807 6.77964C20.0967 7.00943 19.9499 7.38373 19.9569 7.37056C19.9569 7.37056 19.4178 8.7429 19.2778 9.09749ZM21.3776 5.11188L22.75 11.284H21.1749C21.1749 11.284 21.0208 10.5748 20.9719 10.3581H18.7878C18.7246 10.5222 18.4308 11.284 18.4308 11.284H16.6458L19.1726 5.62399C19.3477 5.22342 19.656 5.11188 20.0618 5.11188H21.3776Z" fill="#171E6C"/>
</svg>
