<svg width="25" height="16" viewBox="0 0 25 16" fill="none" xmlns="http://www.w3.org/2000/svg">
<g clip-path="url(#clip0_107_248)">
<path d="M22.7472 15.7499L22.7494 15.7499C23.7045 15.7581 24.4881 14.9773 24.5 14.0042L24.5 2.0063C24.4962 1.53569 24.3089 1.08617 23.9797 0.756802C23.6514 0.428269 23.2089 0.246149 22.7472 0.250071L2.75064 0.250062C2.29109 0.246149 1.84858 0.428269 1.52028 0.756802C1.19114 1.08617 1.00384 1.53569 1.00001 2.00426L1 13.9937C1.00384 14.4643 1.19114 14.9138 1.52028 15.2432C1.84858 15.5717 2.29109 15.7538 2.75277 15.7499H22.7472ZM22.7462 16.2499C22.7458 16.2499 22.7455 16.2499 22.7451 16.2499L22.7472 16.2499H22.7462Z" fill="white" stroke="black" stroke-opacity="0.2" stroke-width="0.5"/>
<path d="M13.3623 16.0002H22.7471C23.2739 16.0046 23.7809 15.7995 24.1565 15.4301C24.5321 15.0607 24.7455 14.5573 24.7499 14.0305V11.6719C21.2061 13.7062 17.3627 15.167 13.3623 16.0002Z" fill="#F27712"/>
<path d="M23.922 9.29692H23.0696L22.1096 8.03072H22.0185V9.29692H21.3234V6.15209H22.3496C23.1523 6.15209 23.6158 6.48313 23.6158 7.07899C23.6158 7.56727 23.3261 7.88175 22.8047 7.98106L23.922 9.29692ZM22.8958 7.10382C22.8958 6.79761 22.664 6.64037 22.2337 6.64037H22.0185V7.59209H22.2171C22.664 7.59209 22.8958 7.42658 22.8958 7.10382ZM18.8903 6.15209H20.8599V6.68175H19.5854V7.3852H20.8103V7.92313H19.5854V8.77554H20.8599V9.3052H18.8903V6.15209ZM16.6558 9.37968L15.1496 6.14382H15.9109L16.8627 8.26244L17.8227 6.14382H18.5675L17.0447 9.37968H16.6723H16.6558ZM10.3578 9.37141C9.29853 9.37141 8.47094 8.6514 8.47094 7.71623C8.47094 6.80589 9.31508 6.06934 10.3744 6.06934C10.6723 6.06934 10.9206 6.12727 11.2268 6.25968V6.98796C10.9949 6.76013 10.6829 6.63236 10.3578 6.63209C9.69577 6.63209 9.19094 7.11209 9.19094 7.71623C9.19094 8.35347 9.68749 8.80865 10.3909 8.80865C10.7054 8.80865 10.9454 8.70934 11.2268 8.46106V9.18934C10.9123 9.32175 10.6475 9.37141 10.3578 9.37141ZM8.25577 8.33692C8.25577 8.94934 7.75094 9.37141 7.02267 9.37141C6.49301 9.37141 6.11232 9.18934 5.78956 8.77554L6.24473 8.38658C6.40198 8.66796 6.6668 8.80865 6.99784 8.80865C7.31232 8.80865 7.53577 8.6183 7.53577 8.37003C7.53577 8.22934 7.46956 8.12175 7.32887 8.03899C7.17461 7.96413 7.01397 7.9032 6.84887 7.85692C6.19508 7.65003 5.97163 7.42658 5.97163 6.98796C5.97163 6.47485 6.45163 6.08589 7.0806 6.08589C7.47784 6.08589 7.8337 6.21003 8.13163 6.44175L7.76749 6.85554C7.62317 6.69732 7.41889 6.6072 7.20473 6.60727C6.9068 6.60727 6.69163 6.75623 6.69163 6.95485C6.69163 7.12037 6.81577 7.21141 7.22956 7.35209C8.02404 7.60037 8.25577 7.83209 8.25577 8.3452V8.33692ZM4.83784 6.15209H5.53301V9.3052H4.83784V6.15209ZM2.60336 9.3052H1.57715V6.15209H2.60336C3.72887 6.15209 4.5068 6.79761 4.5068 7.72451C4.5068 8.19623 4.27508 8.64313 3.86956 8.94106C3.52198 9.18934 3.13301 9.3052 2.59508 9.3052H2.60336ZM3.41439 6.9383C3.18267 6.75623 2.91784 6.69003 2.46267 6.69003H2.27232V8.77554H2.46267C2.90956 8.77554 3.19094 8.69278 3.41439 8.52727C3.65439 8.32865 3.79508 8.03072 3.79508 7.72451C3.79508 7.4183 3.65439 7.12865 3.41439 6.9383Z" fill="black"/>
<path d="M13.164 6.06934C12.2536 6.06934 11.5088 6.79761 11.5088 7.69968C11.5088 8.65968 12.2205 9.37968 13.164 9.37968C14.0909 9.37968 14.8191 8.6514 14.8191 7.72451C14.8191 6.79761 14.0991 6.06934 13.164 6.06934Z" fill="#F27712"/>
</g>
<defs>
<clipPath id="clip0_107_248">
<rect width="24" height="16" fill="white" transform="translate(0.75)"/>
</clipPath>
</defs>
</svg>
