<svg width="25" height="16" viewBox="0 0 25 16" fill="none" xmlns="http://www.w3.org/2000/svg">
<g clip-path="url(#clip0_107_247)">
<path d="M22.75 0H2.75C1.64543 0 0.75 0.89543 0.75 2V14C0.75 15.1046 1.64543 16 2.75 16H22.75C23.8546 16 24.75 15.1046 24.75 14V2C24.75 0.89543 23.8546 0 22.75 0Z" fill="#016FD0"/>
<path fill-rule="evenodd" clip-rule="evenodd" d="M14.5137 13.3938V7.69238L24.6612 7.70149V9.27638L23.4883 10.5298L24.6612 11.7947V13.403H22.7886L21.7934 12.3048L20.8053 13.4071L14.5137 13.3938Z" fill="#FFFFFE"/>
<path fill-rule="evenodd" clip-rule="evenodd" d="M15.1914 12.7692V8.32031H18.9637V9.3452H16.4128V10.0409H18.9029V11.0487H16.4128V11.732H18.9637V12.7692H15.1914Z" fill="#016FD0"/>
<path fill-rule="evenodd" clip-rule="evenodd" d="M18.9454 12.7691L21.0327 10.5421L18.9453 8.32031H20.561L21.8365 9.73035L23.1156 8.32031H24.6617V8.35532L22.6189 10.5421L24.6617 12.706V12.7691H23.1L21.8019 11.3449L20.5171 12.7691H18.9454Z" fill="#016FD0"/>
<path fill-rule="evenodd" clip-rule="evenodd" d="M14.9869 2.63184H17.4329L18.2921 4.58269V2.63184H21.3119L21.8327 4.09341L22.3552 2.63184H24.6611V8.33323H12.4746L14.9869 2.63184Z" fill="#FFFFFE"/>
<path fill-rule="evenodd" clip-rule="evenodd" d="M15.4506 3.25195L13.4766 7.69712H14.8305L15.2029 6.80696H17.2208L17.593 7.69712H18.9806L17.0148 3.25195H15.4506ZM15.6202 5.80939L16.2122 4.39432L16.8038 5.80939H15.6202Z" fill="#016FD0"/>
<path fill-rule="evenodd" clip-rule="evenodd" d="M18.9619 7.69606V3.25098L20.865 3.25752L21.8443 5.99025L22.8299 3.25098H24.6615V7.69606L23.4829 7.70649V4.65314L22.3704 7.69606H21.2946L20.1589 4.64271V7.69606H18.9619Z" fill="#016FD0"/>
</g>
<defs>
<clipPath id="clip0_107_247">
<rect width="24" height="16" fill="white" transform="translate(0.75)"/>
</clipPath>
</defs>
</svg>
