<svg width="30" height="31" viewBox="0 0 30 31" fill="none" xmlns="http://www.w3.org/2000/svg">
<path opacity="0.2" d="M29.5498 18.6299C27.5463 26.6662 19.4064 31.5564 11.3693 29.5529C3.33585 27.5493 -1.5549 19.4095 0.449123 11.3737C2.45174 3.33656 10.5911 -1.55465 18.6259 0.448898C26.6626 2.45245 31.5529 10.5932 29.5494 18.6299H29.5498Z" fill="#F7931A"/>
<path fill-rule="evenodd" clip-rule="evenodd" d="M19.7105 14.1807C19.9127 12.8266 18.8817 12.0987 17.472 11.6131L17.9293 9.77881L16.8124 9.50055L16.3672 11.2865C16.074 11.2134 15.7725 11.1443 15.473 11.076L15.9214 9.27826L14.8055 9L14.3478 10.8337C14.1049 10.7783 13.8664 10.7236 13.6349 10.6661L13.6361 10.6603L12.0963 10.2759L11.7993 11.4684C11.7993 11.4684 12.6277 11.6583 12.6102 11.67C13.0624 11.7829 13.1445 12.0822 13.1305 12.3194L12.6096 14.4091C12.6408 14.417 12.6812 14.4285 12.7257 14.4463L12.608 14.417L11.8775 17.3443C11.8222 17.4817 11.682 17.6877 11.3659 17.6095C11.377 17.6257 10.5543 17.4069 10.5543 17.4069L10 18.6853L11.4533 19.0476C11.6173 19.0887 11.7793 19.1309 11.9396 19.1727L11.9397 19.1728L11.9398 19.1728C12.0436 19.1999 12.1466 19.2267 12.249 19.253L11.7869 21.1086L12.9022 21.3869L13.3601 19.5513C13.6644 19.634 13.9602 19.7103 14.2496 19.7822L13.7936 21.6091L14.9101 21.8874L15.3722 20.0356C17.2761 20.3959 18.7081 20.2506 19.3101 18.5289C19.7957 17.1424 19.2862 16.3426 18.2845 15.8207C19.014 15.6518 19.5635 15.172 19.7102 14.1807H19.7105ZM17.1594 17.7589C16.8424 19.0314 14.8501 18.5049 13.9393 18.2642C13.8578 18.2426 13.7849 18.2234 13.7227 18.2079L14.3358 15.75C14.4118 15.769 14.5048 15.7898 14.61 15.8135L14.6101 15.8135C15.5523 16.0249 17.4832 16.4582 17.1597 17.7589H17.1594ZM14.8007 14.6718C15.5606 14.8746 17.2171 15.3165 17.5057 14.1604C17.8007 12.9778 16.1899 12.6213 15.4033 12.4472C15.3148 12.4277 15.2368 12.4104 15.1731 12.3945L14.6172 14.6238C14.6698 14.6369 14.7315 14.6534 14.8007 14.6718Z" fill="#F7931A"/>
</svg>
