<svg width="1067" height="348" viewBox="0 0 1067 348" fill="none" xmlns="http://www.w3.org/2000/svg">
<g clip-path="url(#clip0_114_229)">
<line x1="1067" y1="272.5" x2="77" y2="272.5" stroke="#D7D7D7"/>
<line x1="77" y1="-2.18557e-08" x2="77" y2="272" stroke="#D7D7D7"/>
<path d="M95.8477 290.469H97.3594V296.428C97.3594 296.994 97.2383 297.479 96.9961 297.881C96.7539 298.279 96.4219 298.586 96 298.801C95.5781 299.012 95.0996 299.117 94.5645 299.117C94.0215 299.117 93.5391 299.025 93.1172 298.842C92.6992 298.654 92.3691 298.371 92.127 297.992C91.8887 297.609 91.7695 297.127 91.7695 296.545H93.2812C93.2812 297.033 93.3984 297.383 93.6328 297.594C93.8711 297.801 94.1816 297.904 94.5645 297.904C94.8184 297.904 95.041 297.848 95.2324 297.734C95.4238 297.617 95.5742 297.449 95.6836 297.23C95.793 297.012 95.8477 296.744 95.8477 296.428V290.469ZM102.445 294.717C102.445 294.389 102.354 294.127 102.17 293.932C101.99 293.736 101.717 293.639 101.35 293.639C101.131 293.639 100.939 293.678 100.775 293.756C100.611 293.83 100.484 293.932 100.395 294.061C100.305 294.189 100.26 294.336 100.26 294.5H98.8066C98.8066 294.16 98.9141 293.842 99.1289 293.545C99.3438 293.244 99.6465 293.002 100.037 292.818C100.432 292.635 100.896 292.543 101.432 292.543C101.908 292.543 102.332 292.623 102.703 292.783C103.074 292.943 103.365 293.186 103.576 293.51C103.791 293.834 103.898 294.24 103.898 294.729V297.523C103.898 297.82 103.92 298.082 103.963 298.309C104.006 298.535 104.066 298.732 104.145 298.9V299H102.656C102.59 298.848 102.537 298.65 102.498 298.408C102.463 298.166 102.445 297.93 102.445 297.699V294.717ZM102.668 296.035H101.672C101.156 296.035 100.768 296.131 100.506 296.322C100.248 296.51 100.119 296.766 100.119 297.09C100.119 297.34 100.205 297.549 100.377 297.717C100.549 297.881 100.791 297.963 101.104 297.963C101.389 297.963 101.637 297.906 101.848 297.793C102.062 297.676 102.23 297.533 102.352 297.365C102.473 297.193 102.535 297.033 102.539 296.885L103.002 297.535C102.955 297.695 102.875 297.867 102.762 298.051C102.652 298.23 102.506 298.402 102.322 298.566C102.143 298.727 101.928 298.859 101.678 298.965C101.432 299.066 101.145 299.117 100.816 299.117C100.402 299.117 100.033 299.035 99.709 298.871C99.3848 298.707 99.1289 298.482 98.9414 298.197C98.7578 297.908 98.666 297.584 98.666 297.225C98.666 296.553 98.918 296.037 99.4219 295.678C99.9258 295.318 100.641 295.139 101.566 295.139H102.656L102.668 296.035ZM106.805 299H105.352V292.66H106.717L106.805 294.014V299ZM106.078 295.607C106.082 294.994 106.189 294.459 106.4 294.002C106.611 293.541 106.906 293.184 107.285 292.93C107.664 292.672 108.105 292.543 108.609 292.543C109.02 292.543 109.375 292.621 109.676 292.777C109.977 292.93 110.211 293.18 110.379 293.527C110.547 293.871 110.631 294.334 110.631 294.916V299H109.172V294.904C109.172 294.611 109.129 294.379 109.043 294.207C108.961 294.035 108.836 293.914 108.668 293.844C108.504 293.77 108.303 293.732 108.064 293.732C107.822 293.732 107.607 293.781 107.42 293.879C107.236 293.973 107.078 294.105 106.945 294.277C106.816 294.449 106.717 294.648 106.646 294.875C106.58 295.102 106.547 295.344 106.547 295.602L106.078 295.607Z" fill="#989898"/>
<path d="M41.8809 224H36.1328V222.998L38.9102 219.98C39.2148 219.645 39.4531 219.354 39.625 219.107C39.8008 218.861 39.9238 218.641 39.9941 218.445C40.0645 218.246 40.0996 218.053 40.0996 217.865C40.0996 217.471 39.9902 217.148 39.7715 216.898C39.5566 216.645 39.248 216.518 38.8457 216.518C38.5332 216.518 38.2695 216.586 38.0547 216.723C37.8438 216.855 37.6855 217.039 37.5801 217.273C37.4746 217.508 37.4219 217.777 37.4219 218.082H35.9688C35.9688 217.582 36.082 217.125 36.3086 216.711C36.5352 216.297 36.8652 215.967 37.2988 215.721C37.7324 215.475 38.2539 215.352 38.8633 215.352C39.7227 215.352 40.3867 215.564 40.8555 215.99C41.3242 216.416 41.5586 216.99 41.5586 217.713C41.5586 218.072 41.4824 218.426 41.3301 218.773C41.1777 219.121 40.9688 219.469 40.7031 219.816C40.4375 220.16 40.1328 220.514 39.7891 220.877L37.9668 222.834H41.8809V224ZM48.5488 220.426C48.5488 221.309 48.4336 222.021 48.2031 222.564C47.9727 223.104 47.6484 223.498 47.2305 223.748C46.8125 223.994 46.3203 224.117 45.7539 224.117C45.1953 224.117 44.7031 223.994 44.2773 223.748C43.8555 223.498 43.5273 223.104 43.293 222.564C43.0586 222.021 42.9414 221.309 42.9414 220.426V219.014C42.9414 218.127 43.0566 217.416 43.2871 216.881C43.5215 216.346 43.8496 215.957 44.2715 215.715C44.6934 215.473 45.1836 215.352 45.7422 215.352C46.3086 215.352 46.8008 215.473 47.2188 215.715C47.6406 215.957 47.9668 216.346 48.1973 216.881C48.4316 217.416 48.5488 218.127 48.5488 219.014V220.426ZM47.0957 218.797C47.0957 218.238 47.043 217.793 46.9375 217.461C46.8359 217.129 46.6836 216.891 46.4805 216.746C46.2812 216.598 46.0352 216.523 45.7422 216.523C45.457 216.523 45.2129 216.598 45.0098 216.746C44.8105 216.891 44.6582 217.129 44.5527 217.461C44.4473 217.793 44.3945 218.238 44.3945 218.797V220.631C44.3945 221.189 44.4473 221.639 44.5527 221.979C44.6621 222.318 44.8184 222.566 45.0215 222.723C45.2246 222.875 45.4688 222.951 45.7539 222.951C46.0469 222.951 46.293 222.875 46.4922 222.723C46.6914 222.566 46.8418 222.318 46.9434 221.979C47.0449 221.639 47.0957 221.189 47.0957 220.631V218.797ZM55.3809 220.426C55.3809 221.309 55.2656 222.021 55.0352 222.564C54.8047 223.104 54.4805 223.498 54.0625 223.748C53.6445 223.994 53.1523 224.117 52.5859 224.117C52.0273 224.117 51.5352 223.994 51.1094 223.748C50.6875 223.498 50.3594 223.104 50.125 222.564C49.8906 222.021 49.7734 221.309 49.7734 220.426V219.014C49.7734 218.127 49.8887 217.416 50.1191 216.881C50.3535 216.346 50.6816 215.957 51.1035 215.715C51.5254 215.473 52.0156 215.352 52.5742 215.352C53.1406 215.352 53.6328 215.473 54.0508 215.715C54.4727 215.957 54.7988 216.346 55.0293 216.881C55.2637 217.416 55.3809 218.127 55.3809 219.014V220.426ZM53.9277 218.797C53.9277 218.238 53.875 217.793 53.7695 217.461C53.668 217.129 53.5156 216.891 53.3125 216.746C53.1133 216.598 52.8672 216.523 52.5742 216.523C52.2891 216.523 52.0449 216.598 51.8418 216.746C51.6426 216.891 51.4902 217.129 51.3848 217.461C51.2793 217.793 51.2266 218.238 51.2266 218.797V220.631C51.2266 221.189 51.2793 221.639 51.3848 221.979C51.4941 222.318 51.6504 222.566 51.8535 222.723C52.0566 222.875 52.3008 222.951 52.5859 222.951C52.8789 222.951 53.125 222.875 53.3242 222.723C53.5234 222.566 53.6738 222.318 53.7754 221.979C53.877 221.639 53.9277 221.189 53.9277 220.631V218.797Z" fill="#959595"/>
<path d="M7.46875 179.115C7.46875 178.463 7.56641 177.906 7.76172 177.445C7.95703 176.984 8.24609 176.633 8.62891 176.391C9.01172 176.145 9.48242 176.021 10.041 176.021C10.4707 176.021 10.8477 176.1 11.1719 176.256C11.4961 176.412 11.7695 176.635 11.9922 176.924C12.2109 177.209 12.3809 177.547 12.502 177.937L12.7363 178.395L12.7363 181.096L11.5234 181.107L11.5234 179.104C11.5234 178.756 11.4629 178.467 11.3418 178.236C11.2207 178.002 11.0547 177.828 10.8437 177.715C10.6328 177.598 10.3926 177.539 10.123 177.539C9.68555 177.539 9.33789 177.666 9.08008 177.92C8.81836 178.17 8.6875 178.568 8.6875 179.115L8.6875 180.633L16 180.633L16 182.145L7.46875 182.145L7.46875 179.115ZM12.1738 179.291L12.168 177.703L15.9238 175.682L16 175.682L16 177.299L12.1738 179.291ZM16.1172 171.926C16.1172 172.555 15.9824 173.098 15.7129 173.555C15.4395 174.012 15.0723 174.363 14.6113 174.609C14.1465 174.855 13.627 174.979 13.0527 174.979L12.8125 174.979C12.1523 174.979 11.5781 174.854 11.0898 174.604C10.5977 174.354 10.2168 174.012 9.94727 173.578C9.67773 173.141 9.54297 172.646 9.54297 172.096C9.54297 171.486 9.67578 170.98 9.94141 170.578C10.2031 170.176 10.5684 169.875 11.0371 169.676C11.502 169.477 12.041 169.377 12.6543 169.377L13.2812 169.377L13.2812 174.281L12.2324 174.281L12.2324 170.812L12.1211 170.812C11.875 170.82 11.6445 170.867 11.4297 170.953C11.2148 171.039 11.041 171.176 10.9082 171.363C10.7754 171.547 10.709 171.793 10.709 172.102C10.709 172.41 10.7969 172.67 10.9727 172.881C11.1445 173.092 11.3887 173.252 11.7051 173.361C12.0176 173.471 12.3867 173.525 12.8125 173.525L13.0527 173.525C13.4121 173.525 13.7344 173.459 14.0195 173.326C14.3047 173.193 14.5312 173 14.6992 172.746C14.8633 172.492 14.9453 172.189 14.9453 171.838C14.9453 171.498 14.8789 171.197 14.7461 170.936C14.6133 170.67 14.4219 170.441 14.1719 170.25L14.9336 169.488C15.2344 169.687 15.5078 169.988 15.7539 170.391C15.9961 170.789 16.1172 171.301 16.1172 171.926ZM9.66016 165.111L9.66016 164.186L11.207 164.432L16 165.902L16 166.723L14.5527 166.57L9.66016 165.111ZM14.5703 166.254L16 166.178L16 167.098L9.66016 168.809L9.66016 167.391L14.5703 166.254ZM9.66016 161.748L9.66016 160.336L16 162.041L16 162.961L14.5117 162.844L9.66016 161.748ZM14.5 162.586L16 162.416L16 163.242L11.2012 164.73L9.66016 164.971L9.66016 164.027L14.5 162.586ZM11.7168 155.824C11.3887 155.824 11.127 155.916 10.9316 156.1C10.7363 156.279 10.6387 156.553 10.6387 156.92C10.6387 157.139 10.6777 157.33 10.7559 157.494C10.8301 157.658 10.9316 157.785 11.0605 157.875C11.1895 157.965 11.3359 158.01 11.5 158.01L11.5 159.463C11.1602 159.463 10.8418 159.355 10.5449 159.141C10.2441 158.926 10.002 158.623 9.81836 158.232C9.63476 157.838 9.54297 157.373 9.54297 156.838C9.54297 156.361 9.62305 155.937 9.7832 155.566C9.94336 155.195 10.1855 154.904 10.5098 154.693C10.834 154.479 11.2402 154.371 11.7285 154.371L14.5234 154.371C14.8203 154.371 15.082 154.35 15.3086 154.307C15.5352 154.264 15.7324 154.203 15.9004 154.125L16 154.125L16 155.613C15.8477 155.68 15.6504 155.732 15.4082 155.771C15.166 155.807 14.9297 155.824 14.6992 155.824L11.7168 155.824ZM13.0352 155.602L13.0352 156.598C13.0352 157.113 13.1309 157.502 13.3223 157.764C13.5098 158.021 13.7656 158.15 14.0898 158.15C14.3398 158.15 14.5488 158.064 14.7168 157.893C14.8809 157.721 14.9629 157.479 14.9629 157.166C14.9629 156.881 14.9062 156.633 14.793 156.422C14.6758 156.207 14.5332 156.039 14.3652 155.918C14.1934 155.797 14.0332 155.734 13.8848 155.73L14.5352 155.268C14.6953 155.314 14.8672 155.395 15.0508 155.508C15.2305 155.617 15.4023 155.764 15.5664 155.947C15.7266 156.127 15.8594 156.342 15.9648 156.592C16.0664 156.838 16.1172 157.125 16.1172 157.453C16.1172 157.867 16.0352 158.236 15.8711 158.561C15.707 158.885 15.4824 159.141 15.1973 159.328C14.9082 159.512 14.584 159.604 14.2246 159.604C13.5527 159.604 13.0371 159.352 12.6777 158.848C12.3184 158.344 12.1387 157.629 12.1387 156.703L12.1387 155.613L13.0352 155.602ZM16 151.447L16 152.9L9.66015 152.9L9.66015 151.518L10.9023 151.447L16 151.447ZM10.9961 149.537C10.9805 149.627 10.9687 149.723 10.9609 149.824C10.9531 149.922 10.9492 150.02 10.9492 150.117C10.9492 150.437 11.0078 150.705 11.125 150.92C11.2383 151.131 11.4023 151.291 11.6172 151.4C11.8281 151.51 12.0781 151.574 12.3672 151.594L12.373 151.928C11.8379 151.928 11.3574 151.857 10.9316 151.717C10.5059 151.576 10.168 151.365 9.91797 151.084C9.66797 150.803 9.54297 150.451 9.54297 150.029C9.54297 149.947 9.55078 149.855 9.5664 149.754C9.58203 149.652 9.59961 149.576 9.61914 149.525L10.9961 149.537ZM7 144.797L7 143.344L16 143.344L16 144.662L14.6699 144.797L7 144.797ZM12.7773 148.91C12.1367 148.91 11.5742 148.811 11.0898 148.611C10.6016 148.408 10.2227 148.121 9.95312 147.75C9.67969 147.379 9.54297 146.934 9.54297 146.414C9.54297 145.902 9.67578 145.475 9.9414 145.131C10.207 144.787 10.5762 144.518 11.0488 144.322C11.5176 144.123 12.0625 143.99 12.6836 143.924L13.0234 143.924C13.625 143.99 14.1582 144.121 14.623 144.316C15.0879 144.512 15.4531 144.783 15.7187 145.131C15.9844 145.475 16.1172 145.906 16.1172 146.426C16.1172 146.937 15.9785 147.379 15.7012 147.75C15.4199 148.121 15.0371 148.408 14.5527 148.611C14.0684 148.811 13.5176 148.91 12.9004 148.91L12.7773 148.91ZM12.9004 147.457C13.2754 147.457 13.6172 147.41 13.9258 147.316C14.2305 147.223 14.4746 147.074 14.6582 146.871C14.8379 146.664 14.9277 146.393 14.9277 146.057C14.9277 145.74 14.8594 145.48 14.7227 145.277C14.582 145.07 14.3926 144.91 14.1543 144.797C13.916 144.68 13.6484 144.6 13.3516 144.557L12.3613 144.557C12.127 144.584 11.9102 144.633 11.7109 144.703C11.5117 144.773 11.3398 144.869 11.1953 144.99C11.0508 145.107 10.9375 145.254 10.8555 145.43C10.7734 145.605 10.7324 145.811 10.7324 146.045C10.7324 146.381 10.8242 146.654 11.0078 146.865C11.1875 147.072 11.4336 147.223 11.7461 147.316C12.0547 147.41 12.3984 147.457 12.7773 147.457L12.9004 147.457ZM14.2715 138.334C14.1387 138.334 14.0176 138.369 13.9082 138.439C13.7988 138.506 13.6973 138.637 13.6035 138.832C13.5098 139.027 13.4238 139.314 13.3457 139.693C13.252 140.143 13.127 140.539 12.9707 140.883C12.8145 141.223 12.6133 141.488 12.3672 141.68C12.1211 141.867 11.8203 141.961 11.4648 141.961C11.1211 141.961 10.8047 141.863 10.5156 141.668C10.2227 141.469 9.98828 141.186 9.8125 140.818C9.63281 140.447 9.54297 140.01 9.54297 139.506C9.54297 138.975 9.63281 138.518 9.8125 138.135C9.98828 137.752 10.2285 137.459 10.5332 137.256C10.834 137.049 11.1758 136.945 11.5586 136.945L11.5586 138.398C11.3086 138.398 11.0898 138.492 10.9023 138.68C10.7109 138.863 10.6152 139.141 10.6152 139.512C10.6152 139.742 10.6523 139.936 10.7266 140.092C10.8008 140.244 10.8965 140.359 11.0137 140.437C11.1309 140.512 11.2598 140.549 11.4004 140.549C11.5371 140.549 11.6562 140.512 11.7578 140.437C11.8594 140.359 11.9492 140.229 12.0273 140.045C12.1055 139.857 12.1797 139.596 12.25 139.26C12.3516 138.775 12.4805 138.357 12.6367 138.006C12.7891 137.654 12.9922 137.385 13.2461 137.197C13.4961 137.006 13.8145 136.91 14.2012 136.91C14.5723 136.91 14.9023 137.018 15.1914 137.232C15.4805 137.443 15.707 137.742 15.8711 138.129C16.0352 138.512 16.1172 138.965 16.1172 139.488C16.1172 140.07 16.0137 140.561 15.8066 140.959C15.5996 141.357 15.3359 141.66 15.0156 141.867C14.6914 142.07 14.3555 142.172 14.0078 142.172L14.0078 140.771C14.2578 140.756 14.459 140.686 14.6113 140.561C14.7637 140.432 14.875 140.271 14.9453 140.08C15.0117 139.885 15.0449 139.682 15.0449 139.471C15.0449 139.221 15.0117 139.014 14.9453 138.85C14.8789 138.682 14.7891 138.555 14.6758 138.469C14.5586 138.379 14.4238 138.334 14.2715 138.334ZM16 131.15L16 132.604L9.66015 132.604L9.66015 131.15L16 131.15ZM8.00195 132.697C7.77929 132.697 7.5957 132.625 7.45117 132.48C7.30273 132.336 7.22851 132.135 7.22851 131.877C7.22851 131.619 7.30273 131.416 7.45117 131.268C7.5957 131.119 7.77929 131.045 8.00195 131.045C8.2207 131.045 8.40429 131.119 8.55273 131.268C8.69726 131.416 8.76953 131.619 8.76953 131.877C8.76953 132.135 8.69726 132.336 8.55273 132.48C8.40429 132.625 8.2207 132.697 8.00195 132.697ZM16 128.18L16 129.633L9.66015 129.633L9.66015 128.268L11.0137 128.18L16 128.18ZM12.6074 128.906C11.9941 128.902 11.459 128.795 11.002 128.584C10.541 128.373 10.1836 128.078 9.92969 127.699C9.67187 127.32 9.54297 126.879 9.54297 126.375C9.54297 125.965 9.62109 125.609 9.77734 125.309C9.92968 125.008 10.1797 124.773 10.5273 124.605C10.8711 124.437 11.334 124.354 11.916 124.354L16 124.354L16 125.812L11.9043 125.812C11.6113 125.812 11.3789 125.855 11.207 125.941C11.0352 126.023 10.9141 126.148 10.8437 126.316C10.7695 126.48 10.7324 126.682 10.7324 126.92C10.7324 127.162 10.7812 127.377 10.8789 127.564C10.9727 127.748 11.1055 127.906 11.2773 128.039C11.4492 128.168 11.6484 128.268 11.875 128.338C12.1016 128.404 12.3437 128.437 12.6016 128.437L12.6074 128.906ZM7.46875 115.975L7.46875 115.061L9.08008 115.143L16 116.953L16 117.902L14.1895 117.656L7.46875 115.975ZM14.1484 117.516L16 117.416L16 118.424L7.46875 120.387L7.46875 118.881L14.1484 117.516ZM7.46875 111.82L7.46875 110.314L16 112.271L16 113.285L14.1309 113.162L7.46875 111.82ZM14.2129 113.033L16 112.799L16 113.748L9.08008 115.529L7.46875 115.6L7.46875 114.703L14.2129 113.033ZM16 108.779L16 110.367L7.46875 107.156L7.46875 106.148L8.68164 106.248L16 108.779ZM8.68164 106.687L7.46875 106.799L7.46875 105.785L16 102.562L16 104.15L8.68164 106.687ZM14.0488 104.25L14.0488 108.896L12.8301 108.896L12.8301 104.25L14.0488 104.25ZM16 98.8066L16 100.307L7.46875 100.307L7.46875 98.8066L16 98.8066ZM8.6875 96.1465L8.6875 102.943L7.46875 102.943L7.46875 96.1465L8.6875 96.1465ZM16 91.3887L16 92.8887L7.46875 92.8887L7.46875 91.3887L16 91.3887ZM8.6875 88.7285L8.6875 95.5254L7.46875 95.5254L7.46875 88.7285L8.6875 88.7285Z" fill="#7C7C7C"/>
<path d="M537.9 340H536.4V331.469H537.9V340ZM540.561 332.688H533.764V331.469H540.561V332.688ZM543.092 340H541.639V333.66H543.092V340ZM541.545 332.002C541.545 331.779 541.617 331.596 541.762 331.451C541.906 331.303 542.107 331.229 542.365 331.229C542.623 331.229 542.826 331.303 542.975 331.451C543.123 331.596 543.197 331.779 543.197 332.002C543.197 332.221 543.123 332.404 542.975 332.553C542.826 332.697 542.623 332.77 542.365 332.77C542.107 332.77 541.906 332.697 541.762 332.553C541.617 332.404 541.545 332.221 541.545 332.002ZM546.08 340H544.621V333.66H545.992L546.08 334.955V340ZM545.348 336.607C545.348 336.018 545.441 335.492 545.629 335.031C545.82 334.57 546.104 334.207 546.479 333.941C546.854 333.676 547.32 333.543 547.879 333.543C548.453 333.543 548.926 333.717 549.297 334.064C549.668 334.412 549.854 334.982 549.854 335.775V340H548.4V335.91C548.4 335.613 548.354 335.379 548.26 335.207C548.17 335.035 548.041 334.914 547.873 334.844C547.709 334.77 547.512 334.732 547.281 334.732C547.02 334.732 546.797 334.781 546.613 334.879C546.434 334.973 546.287 335.105 546.174 335.277C546.061 335.449 545.977 335.648 545.922 335.875C545.871 336.102 545.846 336.344 545.846 336.602L545.348 336.607ZM549.08 336.402C549.084 335.883 549.18 335.406 549.367 334.973C549.555 334.539 549.832 334.193 550.199 333.936C550.566 333.674 551.02 333.543 551.559 333.543C551.988 333.543 552.357 333.623 552.666 333.783C552.975 333.939 553.213 334.191 553.381 334.539C553.549 334.883 553.633 335.34 553.633 335.91V340H552.174V335.898C552.174 335.59 552.127 335.352 552.033 335.184C551.943 335.012 551.814 334.895 551.646 334.832C551.482 334.766 551.287 334.732 551.061 334.732C550.846 334.732 550.656 334.771 550.492 334.85C550.332 334.928 550.197 335.037 550.088 335.178C549.982 335.314 549.9 335.477 549.842 335.664C549.787 335.848 549.76 336.047 549.76 336.262L549.08 336.402ZM557.875 340.117C557.246 340.117 556.703 339.982 556.246 339.713C555.789 339.439 555.438 339.072 555.191 338.611C554.945 338.146 554.822 337.627 554.822 337.053V336.812C554.822 336.152 554.947 335.578 555.197 335.09C555.447 334.598 555.789 334.217 556.223 333.947C556.66 333.678 557.154 333.543 557.705 333.543C558.314 333.543 558.82 333.676 559.223 333.941C559.625 334.203 559.926 334.568 560.125 335.037C560.324 335.502 560.424 336.041 560.424 336.654V337.281H555.52V336.232H558.988V336.121C558.98 335.875 558.934 335.645 558.848 335.43C558.762 335.215 558.625 335.041 558.438 334.908C558.254 334.775 558.008 334.709 557.699 334.709C557.391 334.709 557.131 334.797 556.92 334.973C556.709 335.145 556.549 335.389 556.439 335.705C556.33 336.018 556.275 336.387 556.275 336.812V337.053C556.275 337.412 556.342 337.734 556.475 338.02C556.607 338.305 556.801 338.531 557.055 338.699C557.309 338.863 557.611 338.945 557.963 338.945C558.303 338.945 558.604 338.879 558.865 338.746C559.131 338.613 559.359 338.422 559.551 338.172L560.312 338.934C560.113 339.234 559.812 339.508 559.41 339.754C559.012 339.996 558.5 340.117 557.875 340.117ZM563.061 340H561.607V331H563.061V340ZM566.143 340H564.689V333.66H566.143V340ZM564.596 332.002C564.596 331.779 564.668 331.596 564.812 331.451C564.957 331.303 565.158 331.229 565.416 331.229C565.674 331.229 565.877 331.303 566.025 331.451C566.174 331.596 566.248 331.779 566.248 332.002C566.248 332.221 566.174 332.404 566.025 332.553C565.877 332.697 565.674 332.77 565.416 332.77C565.158 332.77 564.957 332.697 564.812 332.553C564.668 332.404 564.596 332.221 564.596 332.002ZM569.113 340H567.66V333.66H569.025L569.113 335.014V340ZM568.387 336.607C568.391 335.994 568.498 335.459 568.709 335.002C568.92 334.541 569.215 334.184 569.594 333.93C569.973 333.672 570.414 333.543 570.918 333.543C571.328 333.543 571.684 333.621 571.984 333.777C572.285 333.93 572.52 334.18 572.688 334.527C572.855 334.871 572.939 335.334 572.939 335.916V340H571.48V335.904C571.48 335.611 571.438 335.379 571.352 335.207C571.27 335.035 571.145 334.914 570.977 334.844C570.812 334.77 570.611 334.732 570.373 334.732C570.131 334.732 569.916 334.781 569.729 334.879C569.545 334.973 569.387 335.105 569.254 335.277C569.125 335.449 569.025 335.648 568.955 335.875C568.889 336.102 568.855 336.344 568.855 336.602L568.387 336.607ZM577.176 340.117C576.547 340.117 576.004 339.982 575.547 339.713C575.09 339.439 574.738 339.072 574.492 338.611C574.246 338.146 574.123 337.627 574.123 337.053V336.812C574.123 336.152 574.248 335.578 574.498 335.09C574.748 334.598 575.09 334.217 575.523 333.947C575.961 333.678 576.455 333.543 577.006 333.543C577.615 333.543 578.121 333.676 578.523 333.941C578.926 334.203 579.227 334.568 579.426 335.037C579.625 335.502 579.725 336.041 579.725 336.654V337.281H574.82V336.232H578.289V336.121C578.281 335.875 578.234 335.645 578.148 335.43C578.062 335.215 577.926 335.041 577.738 334.908C577.555 334.775 577.309 334.709 577 334.709C576.691 334.709 576.432 334.797 576.221 334.973C576.01 335.145 575.85 335.389 575.74 335.705C575.631 336.018 575.576 336.387 575.576 336.812V337.053C575.576 337.412 575.643 337.734 575.775 338.02C575.908 338.305 576.102 338.531 576.355 338.699C576.609 338.863 576.912 338.945 577.264 338.945C577.604 338.945 577.904 338.879 578.166 338.746C578.432 338.613 578.66 338.422 578.852 338.172L579.613 338.934C579.414 339.234 579.113 339.508 578.711 339.754C578.312 339.996 577.801 340.117 577.176 340.117Z" fill="#7C7C7C"/>
<path d="M40.0293 276H38.5703V269.186L36.4902 269.883V268.664L39.8477 267.439H40.0293V276ZM48.5488 272.426C48.5488 273.309 48.4336 274.021 48.2031 274.564C47.9727 275.104 47.6484 275.498 47.2305 275.748C46.8125 275.994 46.3203 276.117 45.7539 276.117C45.1953 276.117 44.7031 275.994 44.2773 275.748C43.8555 275.498 43.5273 275.104 43.293 274.564C43.0586 274.021 42.9414 273.309 42.9414 272.426V271.014C42.9414 270.127 43.0566 269.416 43.2871 268.881C43.5215 268.346 43.8496 267.957 44.2715 267.715C44.6934 267.473 45.1836 267.352 45.7422 267.352C46.3086 267.352 46.8008 267.473 47.2188 267.715C47.6406 267.957 47.9668 268.346 48.1973 268.881C48.4316 269.416 48.5488 270.127 48.5488 271.014V272.426ZM47.0957 270.797C47.0957 270.238 47.043 269.793 46.9375 269.461C46.8359 269.129 46.6836 268.891 46.4805 268.746C46.2812 268.598 46.0352 268.523 45.7422 268.523C45.457 268.523 45.2129 268.598 45.0098 268.746C44.8105 268.891 44.6582 269.129 44.5527 269.461C44.4473 269.793 44.3945 270.238 44.3945 270.797V272.631C44.3945 273.189 44.4473 273.639 44.5527 273.979C44.6621 274.318 44.8184 274.566 45.0215 274.723C45.2246 274.875 45.4688 274.951 45.7539 274.951C46.0469 274.951 46.293 274.875 46.4922 274.723C46.6914 274.566 46.8418 274.318 46.9434 273.979C47.0449 273.639 47.0957 273.189 47.0957 272.631V270.797ZM55.3809 272.426C55.3809 273.309 55.2656 274.021 55.0352 274.564C54.8047 275.104 54.4805 275.498 54.0625 275.748C53.6445 275.994 53.1523 276.117 52.5859 276.117C52.0273 276.117 51.5352 275.994 51.1094 275.748C50.6875 275.498 50.3594 275.104 50.125 274.564C49.8906 274.021 49.7734 273.309 49.7734 272.426V271.014C49.7734 270.127 49.8887 269.416 50.1191 268.881C50.3535 268.346 50.6816 267.957 51.1035 267.715C51.5254 267.473 52.0156 267.352 52.5742 267.352C53.1406 267.352 53.6328 267.473 54.0508 267.715C54.4727 267.957 54.7988 268.346 55.0293 268.881C55.2637 269.416 55.3809 270.127 55.3809 271.014V272.426ZM53.9277 270.797C53.9277 270.238 53.875 269.793 53.7695 269.461C53.668 269.129 53.5156 268.891 53.3125 268.746C53.1133 268.598 52.8672 268.523 52.5742 268.523C52.2891 268.523 52.0449 268.598 51.8418 268.746C51.6426 268.891 51.4902 269.129 51.3848 269.461C51.2793 269.793 51.2266 270.238 51.2266 270.797V272.631C51.2266 273.189 51.2793 273.639 51.3848 273.979C51.4941 274.318 51.6504 274.566 51.8535 274.723C52.0566 274.875 52.3008 274.951 52.5859 274.951C52.8789 274.951 53.125 274.875 53.3242 274.723C53.5234 274.566 53.6738 274.318 53.7754 273.979C53.877 273.639 53.9277 273.189 53.9277 272.631V270.797Z" fill="#959595"/>
<path d="M38.6465 167.072C38.9707 167.072 39.2383 167.018 39.4492 166.908C39.6602 166.799 39.8184 166.646 39.9238 166.451C40.0293 166.256 40.082 166.031 40.082 165.777C40.082 165.52 40.0352 165.297 39.9414 165.109C39.8477 164.918 39.7051 164.771 39.5137 164.67C39.3223 164.568 39.082 164.518 38.793 164.518C38.5508 164.518 38.3301 164.566 38.1309 164.664C37.9355 164.758 37.7793 164.893 37.6621 165.068C37.5488 165.24 37.4922 165.447 37.4922 165.689H36.0391C36.0391 165.232 36.1582 164.828 36.3965 164.477C36.6348 164.125 36.959 163.85 37.3691 163.65C37.7832 163.451 38.25 163.352 38.7695 163.352C39.3203 163.352 39.8027 163.443 40.2168 163.627C40.6309 163.807 40.9531 164.076 41.1836 164.436C41.418 164.795 41.5352 165.24 41.5352 165.771C41.5352 166.021 41.4785 166.271 41.3652 166.521C41.252 166.768 41.084 166.994 40.8613 167.201C40.6387 167.408 40.3613 167.574 40.0293 167.699C39.6973 167.824 39.3125 167.887 38.875 167.887H37.8027V167.072H38.6465ZM37.8027 167.418H38.875C39.375 167.418 39.8008 167.477 40.1523 167.594C40.5078 167.707 40.7969 167.865 41.0195 168.068C41.2422 168.271 41.4043 168.506 41.5059 168.771C41.6113 169.037 41.6641 169.316 41.6641 169.609C41.6641 170.145 41.5371 170.6 41.2832 170.975C41.0293 171.346 40.6836 171.629 40.2461 171.824C39.8125 172.02 39.3203 172.117 38.7695 172.117C38.4062 172.117 38.0547 172.066 37.7148 171.965C37.375 171.863 37.0723 171.713 36.8066 171.514C36.5449 171.311 36.3359 171.059 36.1797 170.758C36.0273 170.453 35.9512 170.1 35.9512 169.697H37.4043C37.4043 169.939 37.4629 170.156 37.5801 170.348C37.6973 170.535 37.8594 170.684 38.0664 170.793C38.2773 170.898 38.5215 170.951 38.7988 170.951C39.2363 170.951 39.5801 170.834 39.8301 170.6C40.084 170.361 40.2109 170.031 40.2109 169.609C40.2109 169.285 40.1465 169.021 40.0176 168.818C39.8926 168.611 39.7129 168.461 39.4785 168.367C39.2441 168.27 38.9668 168.221 38.6465 168.221H37.8027V167.418ZM48.5488 168.426C48.5488 169.309 48.4336 170.021 48.2031 170.564C47.9727 171.104 47.6484 171.498 47.2305 171.748C46.8125 171.994 46.3203 172.117 45.7539 172.117C45.1953 172.117 44.7031 171.994 44.2773 171.748C43.8555 171.498 43.5273 171.104 43.293 170.564C43.0586 170.021 42.9414 169.309 42.9414 168.426V167.014C42.9414 166.127 43.0566 165.416 43.2871 164.881C43.5215 164.346 43.8496 163.957 44.2715 163.715C44.6934 163.473 45.1836 163.352 45.7422 163.352C46.3086 163.352 46.8008 163.473 47.2188 163.715C47.6406 163.957 47.9668 164.346 48.1973 164.881C48.4316 165.416 48.5488 166.127 48.5488 167.014V168.426ZM47.0957 166.797C47.0957 166.238 47.043 165.793 46.9375 165.461C46.8359 165.129 46.6836 164.891 46.4805 164.746C46.2812 164.598 46.0352 164.523 45.7422 164.523C45.457 164.523 45.2129 164.598 45.0098 164.746C44.8105 164.891 44.6582 165.129 44.5527 165.461C44.4473 165.793 44.3945 166.238 44.3945 166.797V168.631C44.3945 169.189 44.4473 169.639 44.5527 169.979C44.6621 170.318 44.8184 170.566 45.0215 170.723C45.2246 170.875 45.4688 170.951 45.7539 170.951C46.0469 170.951 46.293 170.875 46.4922 170.723C46.6914 170.566 46.8418 170.318 46.9434 169.979C47.0449 169.639 47.0957 169.189 47.0957 168.631V166.797ZM55.3809 168.426C55.3809 169.309 55.2656 170.021 55.0352 170.564C54.8047 171.104 54.4805 171.498 54.0625 171.748C53.6445 171.994 53.1523 172.117 52.5859 172.117C52.0273 172.117 51.5352 171.994 51.1094 171.748C50.6875 171.498 50.3594 171.104 50.125 170.564C49.8906 170.021 49.7734 169.309 49.7734 168.426V167.014C49.7734 166.127 49.8887 165.416 50.1191 164.881C50.3535 164.346 50.6816 163.957 51.1035 163.715C51.5254 163.473 52.0156 163.352 52.5742 163.352C53.1406 163.352 53.6328 163.473 54.0508 163.715C54.4727 163.957 54.7988 164.346 55.0293 164.881C55.2637 165.416 55.3809 166.127 55.3809 167.014V168.426ZM53.9277 166.797C53.9277 166.238 53.875 165.793 53.7695 165.461C53.668 165.129 53.5156 164.891 53.3125 164.746C53.1133 164.598 52.8672 164.523 52.5742 164.523C52.2891 164.523 52.0449 164.598 51.8418 164.746C51.6426 164.891 51.4902 165.129 51.3848 165.461C51.2793 165.793 51.2266 166.238 51.2266 166.797V168.631C51.2266 169.189 51.2793 169.639 51.3848 169.979C51.4941 170.318 51.6504 170.566 51.8535 170.723C52.0566 170.875 52.3008 170.951 52.5859 170.951C52.8789 170.951 53.125 170.875 53.3242 170.723C53.5234 170.566 53.6738 170.318 53.7754 169.979C53.877 169.639 53.9277 169.189 53.9277 168.631V166.797Z" fill="#959595"/>
<path d="M42.0273 118.096H35.8633L35.8164 117.205L39.4785 111.469H40.6445L39.4023 113.643L37.3223 116.93H42.0273V118.096ZM40.9727 120H39.5195V111.469H40.9727V120ZM48.5488 116.426C48.5488 117.309 48.4336 118.021 48.2031 118.564C47.9727 119.104 47.6484 119.498 47.2305 119.748C46.8125 119.994 46.3203 120.117 45.7539 120.117C45.1953 120.117 44.7031 119.994 44.2773 119.748C43.8555 119.498 43.5273 119.104 43.293 118.564C43.0586 118.021 42.9414 117.309 42.9414 116.426V115.014C42.9414 114.127 43.0566 113.416 43.2871 112.881C43.5215 112.346 43.8496 111.957 44.2715 111.715C44.6934 111.473 45.1836 111.352 45.7422 111.352C46.3086 111.352 46.8008 111.473 47.2188 111.715C47.6406 111.957 47.9668 112.346 48.1973 112.881C48.4316 113.416 48.5488 114.127 48.5488 115.014V116.426ZM47.0957 114.797C47.0957 114.238 47.043 113.793 46.9375 113.461C46.8359 113.129 46.6836 112.891 46.4805 112.746C46.2812 112.598 46.0352 112.523 45.7422 112.523C45.457 112.523 45.2129 112.598 45.0098 112.746C44.8105 112.891 44.6582 113.129 44.5527 113.461C44.4473 113.793 44.3945 114.238 44.3945 114.797V116.631C44.3945 117.189 44.4473 117.639 44.5527 117.979C44.6621 118.318 44.8184 118.566 45.0215 118.723C45.2246 118.875 45.4688 118.951 45.7539 118.951C46.0469 118.951 46.293 118.875 46.4922 118.723C46.6914 118.566 46.8418 118.318 46.9434 117.979C47.0449 117.639 47.0957 117.189 47.0957 116.631V114.797ZM55.3809 116.426C55.3809 117.309 55.2656 118.021 55.0352 118.564C54.8047 119.104 54.4805 119.498 54.0625 119.748C53.6445 119.994 53.1523 120.117 52.5859 120.117C52.0273 120.117 51.5352 119.994 51.1094 119.748C50.6875 119.498 50.3594 119.104 50.125 118.564C49.8906 118.021 49.7734 117.309 49.7734 116.426V115.014C49.7734 114.127 49.8887 113.416 50.1191 112.881C50.3535 112.346 50.6816 111.957 51.1035 111.715C51.5254 111.473 52.0156 111.352 52.5742 111.352C53.1406 111.352 53.6328 111.473 54.0508 111.715C54.4727 111.957 54.7988 112.346 55.0293 112.881C55.2637 113.416 55.3809 114.127 55.3809 115.014V116.426ZM53.9277 114.797C53.9277 114.238 53.875 113.793 53.7695 113.461C53.668 113.129 53.5156 112.891 53.3125 112.746C53.1133 112.598 52.8672 112.523 52.5742 112.523C52.2891 112.523 52.0449 112.598 51.8418 112.746C51.6426 112.891 51.4902 113.129 51.3848 113.461C51.2793 113.793 51.2266 114.238 51.2266 114.797V116.631C51.2266 117.189 51.2793 117.639 51.3848 117.979C51.4941 118.318 51.6504 118.566 51.8535 118.723C52.0566 118.875 52.3008 118.951 52.5859 118.951C52.8789 118.951 53.125 118.875 53.3242 118.723C53.5234 118.566 53.6738 118.318 53.7754 117.979C53.877 117.639 53.9277 117.189 53.9277 116.631V114.797Z" fill="#959595"/>
<path d="M36.4844 63.7695L36.9531 59.4688H41.5703V60.7109H38.1602L37.9316 62.7441C38.0605 62.6699 38.2402 62.5957 38.4707 62.5215C38.7051 62.4434 38.9707 62.4043 39.2676 62.4043C39.8066 62.4043 40.2676 62.5195 40.6504 62.75C41.0332 62.9805 41.3262 63.3105 41.5293 63.7402C41.7363 64.166 41.8398 64.6758 41.8398 65.2695C41.8398 65.7891 41.7383 66.2656 41.5352 66.6992C41.332 67.1289 41.0234 67.4727 40.6094 67.7305C40.1953 67.9883 39.6699 68.1172 39.0332 68.1172C38.6738 68.1172 38.3301 68.0645 38.002 67.959C37.6777 67.8535 37.3848 67.6973 37.123 67.4902C36.8652 67.2832 36.6582 67.0293 36.502 66.7285C36.3457 66.4238 36.2559 66.0742 36.2324 65.6797H37.6562C37.7031 66.0859 37.8457 66.4004 38.084 66.623C38.3262 66.8418 38.6406 66.9512 39.0273 66.9512C39.332 66.9512 39.5859 66.877 39.7891 66.7285C39.9922 66.5801 40.1426 66.375 40.2402 66.1133C40.3379 65.8516 40.3867 65.5527 40.3867 65.2168C40.3867 64.8926 40.3301 64.6074 40.2168 64.3613C40.1074 64.1113 39.9414 63.916 39.7188 63.7754C39.4961 63.6309 39.2188 63.5586 38.8867 63.5586C38.5547 63.5586 38.3027 63.6074 38.1309 63.7051C37.959 63.7988 37.7988 63.916 37.6504 64.0566L36.4844 63.7695ZM48.5488 64.4258C48.5488 65.3086 48.4336 66.0215 48.2031 66.5645C47.9727 67.1035 47.6484 67.498 47.2305 67.748C46.8125 67.9941 46.3203 68.1172 45.7539 68.1172C45.1953 68.1172 44.7031 67.9941 44.2773 67.748C43.8555 67.498 43.5273 67.1035 43.293 66.5645C43.0586 66.0215 42.9414 65.3086 42.9414 64.4258V63.0137C42.9414 62.127 43.0566 61.416 43.2871 60.8809C43.5215 60.3457 43.8496 59.957 44.2715 59.7148C44.6934 59.4727 45.1836 59.3516 45.7422 59.3516C46.3086 59.3516 46.8008 59.4727 47.2188 59.7148C47.6406 59.957 47.9668 60.3457 48.1973 60.8809C48.4316 61.416 48.5488 62.127 48.5488 63.0137V64.4258ZM47.0957 62.7969C47.0957 62.2383 47.043 61.793 46.9375 61.4609C46.8359 61.1289 46.6836 60.8906 46.4805 60.7461C46.2812 60.5977 46.0352 60.5234 45.7422 60.5234C45.457 60.5234 45.2129 60.5977 45.0098 60.7461C44.8105 60.8906 44.6582 61.1289 44.5527 61.4609C44.4473 61.793 44.3945 62.2383 44.3945 62.7969V64.6309C44.3945 65.1895 44.4473 65.6387 44.5527 65.9785C44.6621 66.3184 44.8184 66.5664 45.0215 66.7227C45.2246 66.875 45.4688 66.9512 45.7539 66.9512C46.0469 66.9512 46.293 66.875 46.4922 66.7227C46.6914 66.5664 46.8418 66.3184 46.9434 65.9785C47.0449 65.6387 47.0957 65.1895 47.0957 64.6309V62.7969ZM55.3809 64.4258C55.3809 65.3086 55.2656 66.0215 55.0352 66.5645C54.8047 67.1035 54.4805 67.498 54.0625 67.748C53.6445 67.9941 53.1523 68.1172 52.5859 68.1172C52.0273 68.1172 51.5352 67.9941 51.1094 67.748C50.6875 67.498 50.3594 67.1035 50.125 66.5645C49.8906 66.0215 49.7734 65.3086 49.7734 64.4258V63.0137C49.7734 62.127 49.8887 61.416 50.1191 60.8809C50.3535 60.3457 50.6816 59.957 51.1035 59.7148C51.5254 59.4727 52.0156 59.3516 52.5742 59.3516C53.1406 59.3516 53.6328 59.4727 54.0508 59.7148C54.4727 59.957 54.7988 60.3457 55.0293 60.8809C55.2637 61.416 55.3809 62.127 55.3809 63.0137V64.4258ZM53.9277 62.7969C53.9277 62.2383 53.875 61.793 53.7695 61.4609C53.668 61.1289 53.5156 60.8906 53.3125 60.7461C53.1133 60.5977 52.8672 60.5234 52.5742 60.5234C52.2891 60.5234 52.0449 60.5977 51.8418 60.7461C51.6426 60.8906 51.4902 61.1289 51.3848 61.4609C51.2793 61.793 51.2266 62.2383 51.2266 62.7969V64.6309C51.2266 65.1895 51.2793 65.6387 51.3848 65.9785C51.4941 66.3184 51.6504 66.5664 51.8535 66.7227C52.0566 66.875 52.3008 66.9512 52.5859 66.9512C52.8789 66.9512 53.125 66.875 53.3242 66.7227C53.5234 66.5664 53.6738 66.3184 53.7754 65.9785C53.877 65.6387 53.9277 65.1895 53.9277 64.6309V62.7969Z" fill="#959595"/>
<path d="M40.5918 7.41016V8.61133H40.4922C39.9883 8.61133 39.5547 8.6875 39.1914 8.83984C38.832 8.99219 38.5352 9.20312 38.3008 9.47266C38.0703 9.73828 37.8984 10.0508 37.7852 10.4102C37.6758 10.7656 37.6211 11.1465 37.6211 11.5527V12.9121C37.6211 13.3574 37.6836 13.7305 37.8086 14.0312C37.9375 14.332 38.1094 14.5586 38.3242 14.7109C38.543 14.8633 38.7832 14.9395 39.0449 14.9395C39.3262 14.9395 39.5684 14.8672 39.7715 14.7227C39.9746 14.5742 40.1309 14.3711 40.2402 14.1133C40.3496 13.8555 40.4043 13.5605 40.4043 13.2285C40.4043 12.9121 40.3516 12.625 40.2461 12.3672C40.1406 12.1055 39.9863 11.8965 39.7832 11.7402C39.5801 11.584 39.3301 11.5059 39.0332 11.5059C38.7559 11.5059 38.5039 11.5723 38.2773 11.7051C38.0547 11.834 37.877 12.002 37.7441 12.209C37.6113 12.416 37.5371 12.6367 37.5215 12.8711L36.9766 12.6602C37.0078 12.3086 37.0879 11.9902 37.2168 11.7051C37.3496 11.4199 37.5234 11.1758 37.7383 10.9727C37.9531 10.7695 38.2012 10.6133 38.4824 10.5039C38.7637 10.3906 39.0742 10.334 39.4141 10.334C39.9648 10.334 40.418 10.4688 40.7734 10.7383C41.1328 11.0078 41.4004 11.3594 41.5762 11.793C41.7559 12.2266 41.8457 12.6953 41.8457 13.1992C41.8457 13.7461 41.7344 14.2402 41.5117 14.6816C41.293 15.1191 40.9746 15.4688 40.5566 15.7305C40.1426 15.9883 39.6445 16.1172 39.0625 16.1172C38.6055 16.1172 38.1973 16.0293 37.8379 15.8535C37.4785 15.6777 37.1738 15.4375 36.9238 15.1328C36.6777 14.8242 36.4902 14.4688 36.3613 14.0664C36.2324 13.6602 36.168 13.2285 36.168 12.7715V12.1797C36.168 11.5234 36.25 10.9082 36.4141 10.334C36.5781 9.75977 36.8301 9.25391 37.1699 8.81641C37.5137 8.37891 37.9531 8.03516 38.4883 7.78516C39.0234 7.53516 39.6641 7.41016 40.4102 7.41016H40.5918ZM48.5488 12.4258C48.5488 13.3086 48.4336 14.0215 48.2031 14.5645C47.9727 15.1035 47.6484 15.498 47.2305 15.748C46.8125 15.9941 46.3203 16.1172 45.7539 16.1172C45.1953 16.1172 44.7031 15.9941 44.2773 15.748C43.8555 15.498 43.5273 15.1035 43.293 14.5645C43.0586 14.0215 42.9414 13.3086 42.9414 12.4258V11.0137C42.9414 10.127 43.0566 9.41602 43.2871 8.88086C43.5215 8.3457 43.8496 7.95703 44.2715 7.71484C44.6934 7.47266 45.1836 7.35156 45.7422 7.35156C46.3086 7.35156 46.8008 7.47266 47.2188 7.71484C47.6406 7.95703 47.9668 8.3457 48.1973 8.88086C48.4316 9.41602 48.5488 10.127 48.5488 11.0137V12.4258ZM47.0957 10.7969C47.0957 10.2383 47.043 9.79297 46.9375 9.46094C46.8359 9.12891 46.6836 8.89062 46.4805 8.74609C46.2812 8.59766 46.0352 8.52344 45.7422 8.52344C45.457 8.52344 45.2129 8.59766 45.0098 8.74609C44.8105 8.89062 44.6582 9.12891 44.5527 9.46094C44.4473 9.79297 44.3945 10.2383 44.3945 10.7969V12.6309C44.3945 13.1895 44.4473 13.6387 44.5527 13.9785C44.6621 14.3184 44.8184 14.5664 45.0215 14.7227C45.2246 14.875 45.4688 14.9512 45.7539 14.9512C46.0469 14.9512 46.293 14.875 46.4922 14.7227C46.6914 14.5664 46.8418 14.3184 46.9434 13.9785C47.0449 13.6387 47.0957 13.1895 47.0957 12.6309V10.7969ZM55.3809 12.4258C55.3809 13.3086 55.2656 14.0215 55.0352 14.5645C54.8047 15.1035 54.4805 15.498 54.0625 15.748C53.6445 15.9941 53.1523 16.1172 52.5859 16.1172C52.0273 16.1172 51.5352 15.9941 51.1094 15.748C50.6875 15.498 50.3594 15.1035 50.125 14.5645C49.8906 14.0215 49.7734 13.3086 49.7734 12.4258V11.0137C49.7734 10.127 49.8887 9.41602 50.1191 8.88086C50.3535 8.3457 50.6816 7.95703 51.1035 7.71484C51.5254 7.47266 52.0156 7.35156 52.5742 7.35156C53.1406 7.35156 53.6328 7.47266 54.0508 7.71484C54.4727 7.95703 54.7988 8.3457 55.0293 8.88086C55.2637 9.41602 55.3809 10.127 55.3809 11.0137V12.4258ZM53.9277 10.7969C53.9277 10.2383 53.875 9.79297 53.7695 9.46094C53.668 9.12891 53.5156 8.89062 53.3125 8.74609C53.1133 8.59766 52.8672 8.52344 52.5742 8.52344C52.2891 8.52344 52.0449 8.59766 51.8418 8.74609C51.6426 8.89062 51.4902 9.12891 51.3848 9.46094C51.2793 9.79297 51.2266 10.2383 51.2266 10.7969V12.6309C51.2266 13.1895 51.2793 13.6387 51.3848 13.9785C51.4941 14.3184 51.6504 14.5664 51.8535 14.7227C52.0566 14.875 52.3008 14.9512 52.5859 14.9512C52.8789 14.9512 53.125 14.875 53.3242 14.7227C53.5234 14.5664 53.6738 14.3184 53.7754 13.9785C53.877 13.6387 53.9277 13.1895 53.9277 12.6309V10.7969Z" fill="#959595"/>
<path d="M176.867 299H175.355V290.469H176.867V299ZM180.312 295.396H176.492V294.184H180.312V295.396ZM180.805 291.688H176.492V290.469H180.805V291.688ZM184.625 299.117C183.996 299.117 183.453 298.982 182.996 298.713C182.539 298.439 182.188 298.072 181.941 297.611C181.695 297.146 181.572 296.627 181.572 296.053V295.812C181.572 295.152 181.697 294.578 181.947 294.09C182.197 293.598 182.539 293.217 182.973 292.947C183.41 292.678 183.904 292.543 184.455 292.543C185.064 292.543 185.57 292.676 185.973 292.941C186.375 293.203 186.676 293.568 186.875 294.037C187.074 294.502 187.174 295.041 187.174 295.654V296.281H182.27V295.232H185.738V295.121C185.73 294.875 185.684 294.645 185.598 294.43C185.512 294.215 185.375 294.041 185.188 293.908C185.004 293.775 184.758 293.709 184.449 293.709C184.141 293.709 183.881 293.797 183.67 293.973C183.459 294.145 183.299 294.389 183.189 294.705C183.08 295.018 183.025 295.387 183.025 295.812V296.053C183.025 296.412 183.092 296.734 183.225 297.02C183.357 297.305 183.551 297.531 183.805 297.699C184.059 297.863 184.361 297.945 184.713 297.945C185.053 297.945 185.354 297.879 185.615 297.746C185.881 297.613 186.109 297.422 186.301 297.172L187.062 297.934C186.863 298.234 186.562 298.508 186.16 298.754C185.762 298.996 185.25 299.117 184.625 299.117ZM189.717 290V297.629L189.576 299H188.264V290H189.717ZM193.842 295.895C193.842 296.52 193.748 297.074 193.561 297.559C193.377 298.043 193.102 298.424 192.734 298.701C192.371 298.979 191.918 299.117 191.375 299.117C190.848 299.117 190.41 298.984 190.062 298.719C189.719 298.453 189.451 298.088 189.26 297.623C189.072 297.154 188.943 296.615 188.873 296.006V295.66C188.943 295.047 189.072 294.508 189.26 294.043C189.451 293.574 189.719 293.207 190.062 292.941C190.406 292.676 190.84 292.543 191.363 292.543C191.91 292.543 192.367 292.68 192.734 292.953C193.102 293.227 193.377 293.605 193.561 294.09C193.748 294.574 193.842 295.135 193.842 295.771V295.895ZM192.389 295.771C192.389 295.4 192.346 295.061 192.26 294.752C192.178 294.443 192.035 294.197 191.832 294.014C191.633 293.826 191.355 293.732 191 293.732C190.754 293.732 190.543 293.773 190.367 293.855C190.191 293.938 190.043 294.051 189.922 294.195C189.805 294.34 189.713 294.51 189.646 294.705C189.58 294.9 189.535 295.111 189.512 295.338V296.334C189.547 296.627 189.619 296.895 189.729 297.137C189.838 297.379 189.998 297.572 190.209 297.717C190.42 297.857 190.688 297.928 191.012 297.928C191.359 297.928 191.633 297.838 191.832 297.658C192.031 297.479 192.174 297.236 192.26 296.932C192.346 296.623 192.389 296.277 192.389 295.895V295.771Z" fill="#989898"/>
<path d="M260.318 290.469L262.744 296.973L265.17 290.469H266.518L263.277 299H262.211L258.977 290.469H260.318ZM259.639 290.469L259.861 296.264V299H258.355V290.469H259.639ZM267.139 290.469V299H265.627V296.264L265.855 290.469H267.139ZM272.277 294.717C272.277 294.389 272.186 294.127 272.002 293.932C271.822 293.736 271.549 293.639 271.182 293.639C270.963 293.639 270.771 293.678 270.607 293.756C270.443 293.83 270.316 293.932 270.227 294.061C270.137 294.189 270.092 294.336 270.092 294.5H268.639C268.639 294.16 268.746 293.842 268.961 293.545C269.176 293.244 269.479 293.002 269.869 292.818C270.264 292.635 270.729 292.543 271.264 292.543C271.74 292.543 272.164 292.623 272.535 292.783C272.906 292.943 273.197 293.186 273.408 293.51C273.623 293.834 273.73 294.24 273.73 294.729V297.523C273.73 297.82 273.752 298.082 273.795 298.309C273.838 298.535 273.898 298.732 273.977 298.9V299H272.488C272.422 298.848 272.369 298.65 272.33 298.408C272.295 298.166 272.277 297.93 272.277 297.699V294.717ZM272.5 296.035H271.504C270.988 296.035 270.6 296.131 270.338 296.322C270.08 296.51 269.951 296.766 269.951 297.09C269.951 297.34 270.037 297.549 270.209 297.717C270.381 297.881 270.623 297.963 270.936 297.963C271.221 297.963 271.469 297.906 271.68 297.793C271.895 297.676 272.062 297.533 272.184 297.365C272.305 297.193 272.367 297.033 272.371 296.885L272.834 297.535C272.787 297.695 272.707 297.867 272.594 298.051C272.484 298.23 272.338 298.402 272.154 298.566C271.975 298.727 271.76 298.859 271.51 298.965C271.264 299.066 270.977 299.117 270.648 299.117C270.234 299.117 269.865 299.035 269.541 298.871C269.217 298.707 268.961 298.482 268.773 298.197C268.59 297.908 268.498 297.584 268.498 297.225C268.498 296.553 268.75 296.037 269.254 295.678C269.758 295.318 270.473 295.139 271.398 295.139H272.488L272.5 296.035ZM276.654 299H275.201V292.66H276.584L276.654 293.902V299ZM278.564 293.996C278.475 293.98 278.379 293.969 278.277 293.961C278.18 293.953 278.082 293.949 277.984 293.949C277.664 293.949 277.396 294.008 277.182 294.125C276.971 294.238 276.811 294.402 276.701 294.617C276.592 294.828 276.527 295.078 276.508 295.367L276.174 295.373C276.174 294.838 276.244 294.357 276.385 293.932C276.525 293.506 276.736 293.168 277.018 292.918C277.299 292.668 277.65 292.543 278.072 292.543C278.154 292.543 278.246 292.551 278.348 292.566C278.449 292.582 278.525 292.6 278.576 292.619L278.564 293.996Z" fill="#989898"/>
<path d="M344.182 299H342.594L345.805 290.469H346.812L346.713 291.682L344.182 299ZM346.273 291.682L346.162 290.469H347.176L350.398 299H348.811L346.273 291.682ZM348.711 297.049H344.064V295.83H348.711V297.049ZM352.666 301.438H351.213V292.66H352.555L352.666 293.879V301.438ZM356.779 295.889C356.779 296.506 356.684 297.059 356.492 297.547C356.305 298.031 356.027 298.414 355.66 298.695C355.297 298.977 354.852 299.117 354.324 299.117C353.793 299.117 353.352 298.988 353 298.73C352.652 298.469 352.381 298.109 352.186 297.652C351.99 297.195 351.855 296.674 351.781 296.088V295.672C351.855 295.047 351.99 294.502 352.186 294.037C352.381 293.568 352.652 293.203 353 292.941C353.348 292.676 353.783 292.543 354.307 292.543C354.842 292.543 355.293 292.678 355.66 292.947C356.027 293.217 356.305 293.594 356.492 294.078C356.684 294.562 356.779 295.125 356.779 295.766V295.889ZM355.326 295.766C355.326 295.387 355.277 295.043 355.18 294.734C355.086 294.426 354.934 294.182 354.723 294.002C354.516 293.822 354.244 293.732 353.908 293.732C353.666 293.732 353.457 293.773 353.281 293.855C353.105 293.934 352.957 294.045 352.836 294.189C352.719 294.334 352.627 294.506 352.561 294.705C352.494 294.9 352.447 295.115 352.42 295.35V296.41C352.467 296.691 352.545 296.949 352.654 297.184C352.764 297.418 352.92 297.605 353.123 297.746C353.33 297.883 353.596 297.951 353.92 297.951C354.256 297.951 354.527 297.857 354.734 297.67C354.941 297.479 355.092 297.229 355.186 296.92C355.279 296.607 355.326 296.264 355.326 295.889V295.766ZM359.416 299H357.963V292.66H359.346L359.416 293.902V299ZM361.326 293.996C361.236 293.98 361.141 293.969 361.039 293.961C360.941 293.953 360.844 293.949 360.746 293.949C360.426 293.949 360.158 294.008 359.943 294.125C359.732 294.238 359.572 294.402 359.463 294.617C359.354 294.828 359.289 295.078 359.27 295.367L358.936 295.373C358.936 294.838 359.006 294.357 359.146 293.932C359.287 293.506 359.498 293.168 359.779 292.918C360.061 292.668 360.412 292.543 360.834 292.543C360.916 292.543 361.008 292.551 361.109 292.566C361.211 292.582 361.287 292.6 361.338 292.619L361.326 293.996Z" fill="#989898"/>
<path d="M427.318 290.469L429.744 296.973L432.17 290.469H433.518L430.277 299H429.211L425.977 290.469H427.318ZM426.639 290.469L426.861 296.264V299H425.355V290.469H426.639ZM434.139 290.469V299H432.627V296.264L432.855 290.469H434.139ZM439.277 294.717C439.277 294.389 439.186 294.127 439.002 293.932C438.822 293.736 438.549 293.639 438.182 293.639C437.963 293.639 437.771 293.678 437.607 293.756C437.443 293.83 437.316 293.932 437.227 294.061C437.137 294.189 437.092 294.336 437.092 294.5H435.639C435.639 294.16 435.746 293.842 435.961 293.545C436.176 293.244 436.479 293.002 436.869 292.818C437.264 292.635 437.729 292.543 438.264 292.543C438.74 292.543 439.164 292.623 439.535 292.783C439.906 292.943 440.197 293.186 440.408 293.51C440.623 293.834 440.73 294.24 440.73 294.729V297.523C440.73 297.82 440.752 298.082 440.795 298.309C440.838 298.535 440.898 298.732 440.977 298.9V299H439.488C439.422 298.848 439.369 298.65 439.33 298.408C439.295 298.166 439.277 297.93 439.277 297.699V294.717ZM439.5 296.035H438.504C437.988 296.035 437.6 296.131 437.338 296.322C437.08 296.51 436.951 296.766 436.951 297.09C436.951 297.34 437.037 297.549 437.209 297.717C437.381 297.881 437.623 297.963 437.936 297.963C438.221 297.963 438.469 297.906 438.68 297.793C438.895 297.676 439.062 297.533 439.184 297.365C439.305 297.193 439.367 297.033 439.371 296.885L439.834 297.535C439.787 297.695 439.707 297.867 439.594 298.051C439.484 298.23 439.338 298.402 439.154 298.566C438.975 298.727 438.76 298.859 438.51 298.965C438.264 299.066 437.977 299.117 437.648 299.117C437.234 299.117 436.865 299.035 436.541 298.871C436.217 298.707 435.961 298.482 435.773 298.197C435.59 297.908 435.498 297.584 435.498 297.225C435.498 296.553 435.75 296.037 436.254 295.678C436.758 295.318 437.473 295.139 438.398 295.139H439.488L439.5 296.035ZM445.74 292.66H447.293L444.756 299.961C444.697 300.121 444.621 300.293 444.527 300.477C444.434 300.66 444.311 300.834 444.158 300.998C444.01 301.162 443.822 301.297 443.596 301.402C443.373 301.508 443.104 301.561 442.787 301.561C442.701 301.561 442.617 301.555 442.535 301.543C442.457 301.535 442.381 301.523 442.307 301.508C442.232 301.492 442.16 301.475 442.09 301.455V300.336C442.129 300.34 442.176 300.344 442.23 300.348C442.285 300.352 442.33 300.354 442.365 300.354C442.713 300.354 442.977 300.291 443.156 300.166C443.336 300.041 443.475 299.828 443.572 299.527L444.035 298.303L445.74 292.66ZM444.586 297.354L444.844 298.924L443.836 299.152L441.545 292.66H443.115L444.586 297.354Z" fill="#989898"/>
<path d="M598.848 290.469H600.359V296.428C600.359 296.994 600.238 297.479 599.996 297.881C599.754 298.279 599.422 298.586 599 298.801C598.578 299.012 598.1 299.117 597.564 299.117C597.021 299.117 596.539 299.025 596.117 298.842C595.699 298.654 595.369 298.371 595.127 297.992C594.889 297.609 594.77 297.127 594.77 296.545H596.281C596.281 297.033 596.398 297.383 596.633 297.594C596.871 297.801 597.182 297.904 597.564 297.904C597.818 297.904 598.041 297.848 598.232 297.734C598.424 297.617 598.574 297.449 598.684 297.23C598.793 297.012 598.848 296.744 598.848 296.428V290.469ZM605.686 292.66H607.139V299H605.768L605.686 297.5V292.66ZM606.371 296.164C606.371 296.734 606.287 297.242 606.119 297.688C605.951 298.129 605.689 298.479 605.334 298.736C604.979 298.99 604.518 299.117 603.951 299.117C603.326 299.117 602.82 298.934 602.434 298.566C602.047 298.199 601.854 297.596 601.854 296.756V292.66H603.307V296.768C603.307 297.061 603.352 297.293 603.441 297.465C603.535 297.633 603.658 297.752 603.811 297.822C603.963 297.893 604.131 297.928 604.314 297.928C604.709 297.928 605.02 297.852 605.246 297.699C605.477 297.543 605.641 297.332 605.738 297.066C605.836 296.801 605.885 296.504 605.885 296.176L606.371 296.164ZM610.115 299H608.662V290H610.115V299Z" fill="#989898"/>
<path d="M676.182 299H674.594L677.805 290.469H678.812L678.713 291.682L676.182 299ZM678.273 291.682L678.162 290.469H679.176L682.398 299H680.811L678.273 291.682ZM680.711 297.049H676.064V295.83H680.711V297.049ZM686.939 292.66H688.393V299H687.021L686.939 297.5V292.66ZM687.625 296.164C687.625 296.734 687.541 297.242 687.373 297.688C687.205 298.129 686.943 298.479 686.588 298.736C686.232 298.99 685.771 299.117 685.205 299.117C684.58 299.117 684.074 298.934 683.688 298.566C683.301 298.199 683.107 297.596 683.107 296.756V292.66H684.561V296.768C684.561 297.061 684.605 297.293 684.695 297.465C684.789 297.633 684.912 297.752 685.064 297.822C685.217 297.893 685.385 297.928 685.568 297.928C685.963 297.928 686.273 297.852 686.5 297.699C686.73 297.543 686.895 297.332 686.992 297.066C687.09 296.801 687.139 296.504 687.139 296.176L687.625 296.164ZM695.195 292.66V298.818C695.195 299.389 695.072 299.873 694.826 300.271C694.58 300.674 694.238 300.979 693.801 301.186C693.367 301.393 692.863 301.496 692.289 301.496C692.047 301.496 691.777 301.461 691.48 301.391C691.188 301.324 690.902 301.215 690.625 301.062C690.348 300.91 690.115 300.711 689.928 300.465L690.607 299.586C690.834 299.848 691.082 300.041 691.352 300.166C691.625 300.295 691.912 300.359 692.213 300.359C692.686 300.359 693.057 300.229 693.326 299.967C693.6 299.705 693.736 299.33 693.736 298.842V294.102L693.871 292.66H695.195ZM689.57 295.777C689.57 295.137 689.672 294.574 689.875 294.09C690.082 293.602 690.375 293.223 690.754 292.953C691.137 292.68 691.59 292.543 692.113 292.543C692.527 292.543 692.881 292.619 693.174 292.771C693.467 292.92 693.709 293.135 693.9 293.416C694.096 293.693 694.248 294.025 694.357 294.412C694.471 294.795 694.555 295.219 694.609 295.684V296.023C694.539 296.625 694.408 297.158 694.217 297.623C694.025 298.088 693.756 298.453 693.408 298.719C693.064 298.984 692.629 299.117 692.102 299.117C691.586 299.117 691.139 298.979 690.76 298.701C690.381 298.42 690.088 298.037 689.881 297.553C689.674 297.068 689.57 296.518 689.57 295.9V295.777ZM691.023 295.9C691.023 296.275 691.074 296.617 691.176 296.926C691.277 297.23 691.434 297.475 691.645 297.658C691.859 297.838 692.135 297.928 692.471 297.928C692.799 297.928 693.066 297.859 693.273 297.723C693.48 297.582 693.641 297.393 693.754 297.154C693.871 296.916 693.951 296.648 693.994 296.352V295.361C693.971 295.127 693.924 294.91 693.854 294.711C693.787 294.512 693.691 294.34 693.566 294.195C693.445 294.051 693.295 293.938 693.115 293.855C692.936 293.773 692.725 293.732 692.482 293.732C692.146 293.732 691.871 293.824 691.656 294.008C691.441 294.188 691.281 294.434 691.176 294.746C691.074 295.055 691.023 295.398 691.023 295.777V295.9Z" fill="#989898"/>
<path d="M764.826 296.797C764.826 296.566 764.777 296.371 764.68 296.211C764.586 296.047 764.408 295.896 764.146 295.76C763.885 295.619 763.508 295.473 763.016 295.32C762.613 295.199 762.24 295.061 761.896 294.904C761.557 294.748 761.26 294.568 761.006 294.365C760.752 294.158 760.553 293.92 760.408 293.65C760.268 293.377 760.197 293.062 760.197 292.707C760.197 292.242 760.326 291.834 760.584 291.482C760.842 291.127 761.199 290.85 761.656 290.65C762.113 290.451 762.643 290.352 763.244 290.352C763.885 290.352 764.436 290.469 764.896 290.703C765.357 290.934 765.711 291.246 765.957 291.641C766.207 292.035 766.332 292.475 766.332 292.959H764.82C764.82 292.689 764.762 292.449 764.645 292.238C764.531 292.023 764.357 291.857 764.123 291.74C763.889 291.619 763.59 291.559 763.227 291.559C762.887 291.559 762.604 291.609 762.377 291.711C762.15 291.812 761.982 291.949 761.873 292.121C761.764 292.293 761.709 292.488 761.709 292.707C761.709 292.914 761.775 293.098 761.908 293.258C762.041 293.418 762.242 293.564 762.512 293.697C762.781 293.826 763.117 293.951 763.52 294.072C764.152 294.256 764.678 294.471 765.096 294.717C765.514 294.963 765.824 295.254 766.027 295.59C766.234 295.926 766.338 296.324 766.338 296.785C766.338 297.266 766.213 297.682 765.963 298.033C765.713 298.381 765.359 298.648 764.902 298.836C764.445 299.023 763.908 299.117 763.291 299.117C762.881 299.117 762.477 299.062 762.078 298.953C761.68 298.84 761.318 298.672 760.994 298.449C760.674 298.223 760.416 297.939 760.221 297.6C760.029 297.26 759.934 296.859 759.934 296.398H761.445C761.445 296.672 761.492 296.904 761.586 297.096C761.68 297.287 761.811 297.445 761.979 297.57C762.146 297.691 762.342 297.779 762.564 297.834C762.791 297.889 763.033 297.916 763.291 297.916C763.631 297.916 763.914 297.869 764.141 297.775C764.367 297.678 764.537 297.545 764.65 297.377C764.768 297.209 764.826 297.016 764.826 296.797ZM770.305 299.117C769.676 299.117 769.133 298.982 768.676 298.713C768.219 298.439 767.867 298.072 767.621 297.611C767.375 297.146 767.252 296.627 767.252 296.053V295.812C767.252 295.152 767.377 294.578 767.627 294.09C767.877 293.598 768.219 293.217 768.652 292.947C769.09 292.678 769.584 292.543 770.135 292.543C770.744 292.543 771.25 292.676 771.652 292.941C772.055 293.203 772.355 293.568 772.555 294.037C772.754 294.502 772.854 295.041 772.854 295.654V296.281H767.949V295.232H771.418V295.121C771.41 294.875 771.363 294.645 771.277 294.43C771.191 294.215 771.055 294.041 770.867 293.908C770.684 293.775 770.438 293.709 770.129 293.709C769.82 293.709 769.561 293.797 769.35 293.973C769.139 294.145 768.979 294.389 768.869 294.705C768.76 295.018 768.705 295.387 768.705 295.812V296.053C768.705 296.412 768.771 296.734 768.904 297.02C769.037 297.305 769.23 297.531 769.484 297.699C769.738 297.863 770.041 297.945 770.393 297.945C770.732 297.945 771.033 297.879 771.295 297.746C771.561 297.613 771.789 297.422 771.98 297.172L772.742 297.934C772.543 298.234 772.242 298.508 771.84 298.754C771.441 298.996 770.93 299.117 770.305 299.117ZM775.396 301.438H773.943V292.66H775.285L775.396 293.879V301.438ZM779.51 295.889C779.51 296.506 779.414 297.059 779.223 297.547C779.035 298.031 778.758 298.414 778.391 298.695C778.027 298.977 777.582 299.117 777.055 299.117C776.523 299.117 776.082 298.988 775.73 298.73C775.383 298.469 775.111 298.109 774.916 297.652C774.721 297.195 774.586 296.674 774.512 296.088V295.672C774.586 295.047 774.721 294.502 774.916 294.037C775.111 293.568 775.383 293.203 775.73 292.941C776.078 292.676 776.514 292.543 777.037 292.543C777.572 292.543 778.023 292.678 778.391 292.947C778.758 293.217 779.035 293.594 779.223 294.078C779.414 294.562 779.51 295.125 779.51 295.766V295.889ZM778.057 295.766C778.057 295.387 778.008 295.043 777.91 294.734C777.816 294.426 777.664 294.182 777.453 294.002C777.246 293.822 776.975 293.732 776.639 293.732C776.396 293.732 776.188 293.773 776.012 293.855C775.836 293.934 775.688 294.045 775.566 294.189C775.449 294.334 775.357 294.506 775.291 294.705C775.225 294.9 775.178 295.115 775.15 295.35V296.41C775.197 296.691 775.275 296.949 775.385 297.184C775.494 297.418 775.65 297.605 775.854 297.746C776.061 297.883 776.326 297.951 776.65 297.951C776.986 297.951 777.258 297.857 777.465 297.67C777.672 297.479 777.822 297.229 777.916 296.92C778.01 296.607 778.057 296.264 778.057 295.889V295.766Z" fill="#989898"/>
<path d="M851.188 294.957C851.188 295.82 851.039 296.562 850.742 297.184C850.445 297.805 850.031 298.283 849.5 298.619C848.973 298.951 848.354 299.117 847.643 299.117C846.947 299.117 846.33 298.951 845.791 298.619C845.256 298.283 844.836 297.805 844.531 297.184C844.23 296.562 844.08 295.82 844.08 294.957V294.518C844.08 293.654 844.23 292.912 844.531 292.291C844.832 291.666 845.25 291.188 845.785 290.855C846.32 290.52 846.936 290.352 847.631 290.352C848.342 290.352 848.963 290.52 849.494 290.855C850.025 291.188 850.439 291.666 850.736 292.291C851.037 292.912 851.188 293.654 851.188 294.518V294.957ZM849.67 294.506C849.67 293.877 849.59 293.348 849.43 292.918C849.27 292.484 849.037 292.158 848.732 291.939C848.428 291.717 848.061 291.605 847.631 291.605C847.209 291.605 846.846 291.717 846.541 291.939C846.24 292.158 846.008 292.484 845.844 292.918C845.684 293.348 845.604 293.877 845.604 294.506V294.957C845.604 295.586 845.686 296.117 845.85 296.551C846.014 296.984 846.248 297.312 846.553 297.535C846.857 297.758 847.221 297.869 847.643 297.869C848.076 297.869 848.443 297.758 848.744 297.535C849.049 297.312 849.279 296.984 849.436 296.551C849.592 296.117 849.67 295.586 849.67 294.957V294.506ZM855.107 297.951C855.334 297.951 855.539 297.906 855.723 297.816C855.906 297.723 856.053 297.596 856.162 297.436C856.271 297.275 856.332 297.092 856.344 296.885H857.715C857.703 297.303 857.58 297.68 857.346 298.016C857.111 298.352 856.801 298.619 856.414 298.818C856.027 299.018 855.596 299.117 855.119 299.117C854.475 299.117 853.938 298.975 853.508 298.689C853.082 298.4 852.764 298.016 852.553 297.535C852.342 297.051 852.236 296.516 852.236 295.93V295.73C852.236 295.145 852.342 294.611 852.553 294.131C852.764 293.646 853.082 293.262 853.508 292.977C853.938 292.688 854.475 292.543 855.119 292.543C855.631 292.543 856.078 292.645 856.461 292.848C856.848 293.047 857.15 293.326 857.369 293.686C857.588 294.045 857.703 294.465 857.715 294.945H856.344C856.332 294.719 856.275 294.512 856.174 294.324C856.076 294.137 855.936 293.988 855.752 293.879C855.572 293.766 855.355 293.709 855.102 293.709C854.727 293.709 854.436 293.807 854.229 294.002C854.025 294.197 853.885 294.449 853.807 294.758C853.729 295.066 853.689 295.391 853.689 295.73V295.93C853.689 296.273 853.727 296.6 853.801 296.908C853.879 297.217 854.021 297.469 854.229 297.664C854.436 297.855 854.729 297.951 855.107 297.951ZM861.723 293.732H858.125V292.66H861.723V293.732ZM860.598 291.107V297.213C860.598 297.408 860.625 297.557 860.68 297.658C860.734 297.756 860.812 297.822 860.914 297.857C861.016 297.893 861.133 297.91 861.266 297.91C861.363 297.91 861.457 297.904 861.547 297.893C861.637 297.881 861.709 297.869 861.764 297.857V298.977C861.646 299.016 861.51 299.049 861.354 299.076C861.201 299.104 861.021 299.117 860.814 299.117C860.49 299.117 860.201 299.059 859.947 298.941C859.697 298.824 859.5 298.635 859.355 298.373C859.215 298.107 859.145 297.756 859.145 297.318V291.107H860.598Z" fill="#989898"/>
<path d="M933.146 299H931.629L927.867 292.988V299H926.355V290.469H927.867L931.641 296.492V290.469H933.146V299ZM934.471 295.771C934.471 295.154 934.588 294.604 934.822 294.119C935.057 293.635 935.393 293.252 935.83 292.971C936.271 292.686 936.801 292.543 937.418 292.543C938.043 292.543 938.576 292.686 939.018 292.971C939.459 293.252 939.795 293.635 940.025 294.119C940.26 294.604 940.377 295.154 940.377 295.771V295.895C940.377 296.508 940.26 297.059 940.025 297.547C939.795 298.031 939.459 298.414 939.018 298.695C938.58 298.977 938.051 299.117 937.43 299.117C936.809 299.117 936.277 298.977 935.836 298.695C935.395 298.414 935.057 298.031 934.822 297.547C934.588 297.059 934.471 296.508 934.471 295.895V295.771ZM935.924 295.895C935.924 296.27 935.977 296.613 936.082 296.926C936.188 297.234 936.35 297.482 936.568 297.67C936.791 297.857 937.078 297.951 937.43 297.951C937.777 297.951 938.061 297.857 938.279 297.67C938.502 297.482 938.664 297.234 938.766 296.926C938.871 296.613 938.924 296.27 938.924 295.895V295.771C938.924 295.4 938.871 295.059 938.766 294.746C938.664 294.434 938.502 294.184 938.279 293.996C938.057 293.805 937.77 293.709 937.418 293.709C937.07 293.709 936.785 293.805 936.562 293.996C936.344 294.184 936.182 294.434 936.076 294.746C935.975 295.059 935.924 295.4 935.924 295.771V295.895ZM945.047 292.66H946.553L944.361 299H943.424L943.518 297.852L945.047 292.66ZM943.928 297.869L943.998 299H943.066L940.857 292.66H942.369L943.928 297.869Z" fill="#989898"/>
<path d="M1012.02 299L1012.04 297.787H1013.84C1014.36 297.787 1014.8 297.674 1015.15 297.447C1015.5 297.221 1015.77 296.896 1015.95 296.475C1016.13 296.049 1016.22 295.541 1016.22 294.951V294.506C1016.22 293.9 1016.13 293.389 1015.95 292.971C1015.77 292.553 1015.51 292.234 1015.16 292.016C1014.82 291.797 1014.39 291.688 1013.89 291.688H1011.99V290.469H1013.89C1014.65 290.469 1015.32 290.637 1015.9 290.973C1016.47 291.309 1016.93 291.779 1017.25 292.385C1017.57 292.99 1017.74 293.701 1017.74 294.518V294.951C1017.74 295.771 1017.57 296.484 1017.25 297.09C1016.93 297.695 1016.47 298.166 1015.88 298.502C1015.3 298.834 1014.62 299 1013.84 299H1012.02ZM1012.87 299H1011.36V290.469H1012.87V299ZM1021.87 299.117C1021.24 299.117 1020.7 298.982 1020.24 298.713C1019.78 298.439 1019.43 298.072 1019.18 297.611C1018.94 297.146 1018.81 296.627 1018.81 296.053V295.812C1018.81 295.152 1018.94 294.578 1019.19 294.09C1019.44 293.598 1019.78 293.217 1020.21 292.947C1020.65 292.678 1021.15 292.543 1021.7 292.543C1022.31 292.543 1022.81 292.676 1023.21 292.941C1023.62 293.203 1023.92 293.568 1024.12 294.037C1024.32 294.502 1024.42 295.041 1024.42 295.654V296.281H1019.51V295.232H1022.98V295.121C1022.97 294.875 1022.93 294.645 1022.84 294.43C1022.75 294.215 1022.62 294.041 1022.43 293.908C1022.25 293.775 1022 293.709 1021.69 293.709C1021.38 293.709 1021.12 293.797 1020.91 293.973C1020.7 294.145 1020.54 294.389 1020.43 294.705C1020.32 295.018 1020.27 295.387 1020.27 295.812V296.053C1020.27 296.412 1020.33 296.734 1020.47 297.02C1020.6 297.305 1020.79 297.531 1021.05 297.699C1021.3 297.863 1021.6 297.945 1021.96 297.945C1022.29 297.945 1022.6 297.879 1022.86 297.746C1023.12 297.613 1023.35 297.422 1023.54 297.172L1024.3 297.934C1024.11 298.234 1023.8 298.508 1023.4 298.754C1023 298.996 1022.49 299.117 1021.87 299.117ZM1028.11 297.951C1028.33 297.951 1028.54 297.906 1028.72 297.816C1028.91 297.723 1029.05 297.596 1029.16 297.436C1029.27 297.275 1029.33 297.092 1029.34 296.885H1030.71C1030.7 297.303 1030.58 297.68 1030.35 298.016C1030.11 298.352 1029.8 298.619 1029.41 298.818C1029.03 299.018 1028.6 299.117 1028.12 299.117C1027.47 299.117 1026.94 298.975 1026.51 298.689C1026.08 298.4 1025.76 298.016 1025.55 297.535C1025.34 297.051 1025.24 296.516 1025.24 295.93V295.73C1025.24 295.145 1025.34 294.611 1025.55 294.131C1025.76 293.646 1026.08 293.262 1026.51 292.977C1026.94 292.688 1027.47 292.543 1028.12 292.543C1028.63 292.543 1029.08 292.645 1029.46 292.848C1029.85 293.047 1030.15 293.326 1030.37 293.686C1030.59 294.045 1030.7 294.465 1030.71 294.945H1029.34C1029.33 294.719 1029.28 294.512 1029.17 294.324C1029.08 294.137 1028.94 293.988 1028.75 293.879C1028.57 293.766 1028.36 293.709 1028.1 293.709C1027.73 293.709 1027.44 293.807 1027.23 294.002C1027.03 294.197 1026.88 294.449 1026.81 294.758C1026.73 295.066 1026.69 295.391 1026.69 295.73V295.93C1026.69 296.273 1026.73 296.6 1026.8 296.908C1026.88 297.217 1027.02 297.469 1027.23 297.664C1027.44 297.855 1027.73 297.951 1028.11 297.951Z" fill="#989898"/>
<path d="M514.848 290.469H516.359V296.428C516.359 296.994 516.238 297.479 515.996 297.881C515.754 298.279 515.422 298.586 515 298.801C514.578 299.012 514.1 299.117 513.564 299.117C513.021 299.117 512.539 299.025 512.117 298.842C511.699 298.654 511.369 298.371 511.127 297.992C510.889 297.609 510.77 297.127 510.77 296.545H512.281C512.281 297.033 512.398 297.383 512.633 297.594C512.871 297.801 513.182 297.904 513.564 297.904C513.818 297.904 514.041 297.848 514.232 297.734C514.424 297.617 514.574 297.449 514.684 297.23C514.793 297.012 514.848 296.744 514.848 296.428V290.469ZM521.686 292.66H523.139V299H521.768L521.686 297.5V292.66ZM522.371 296.164C522.371 296.734 522.287 297.242 522.119 297.688C521.951 298.129 521.689 298.479 521.334 298.736C520.979 298.99 520.518 299.117 519.951 299.117C519.326 299.117 518.82 298.934 518.434 298.566C518.047 298.199 517.854 297.596 517.854 296.756V292.66H519.307V296.768C519.307 297.061 519.352 297.293 519.441 297.465C519.535 297.633 519.658 297.752 519.811 297.822C519.963 297.893 520.131 297.928 520.314 297.928C520.709 297.928 521.02 297.852 521.246 297.699C521.477 297.543 521.641 297.332 521.738 297.066C521.836 296.801 521.885 296.504 521.885 296.176L522.371 296.164ZM526.004 299H524.551V292.66H525.916L526.004 294.014V299ZM525.277 295.607C525.281 294.994 525.389 294.459 525.6 294.002C525.811 293.541 526.105 293.184 526.484 292.93C526.863 292.672 527.305 292.543 527.809 292.543C528.219 292.543 528.574 292.621 528.875 292.777C529.176 292.93 529.41 293.18 529.578 293.527C529.746 293.871 529.83 294.334 529.83 294.916V299H528.371V294.904C528.371 294.611 528.328 294.379 528.242 294.207C528.16 294.035 528.035 293.914 527.867 293.844C527.703 293.77 527.502 293.732 527.264 293.732C527.021 293.732 526.807 293.781 526.619 293.879C526.436 293.973 526.277 294.105 526.145 294.277C526.016 294.449 525.916 294.648 525.846 294.875C525.779 295.102 525.746 295.344 525.746 295.602L525.277 295.607Z" fill="#989898"/>
<line x1="1067" y1="12.5" x2="77" y2="12.5" stroke="#E2E2E2" stroke-dasharray="6 6"/>
<line x1="1067" y1="64.5" x2="77" y2="64.5" stroke="#E2E2E2" stroke-dasharray="6 6"/>
<line x1="1067" y1="116.5" x2="77" y2="116.5" stroke="#E2E2E2" stroke-dasharray="6 6"/>
<line x1="1067" y1="168.5" x2="77" y2="168.5" stroke="#E2E2E2" stroke-dasharray="6 6"/>
<line x1="1067" y1="220.5" x2="77" y2="220.5" stroke="#E2E2E2" stroke-dasharray="6 6"/>
<rect x="91.5" y="112" width="22" height="160" fill="#009D94"/>
<rect x="173.5" y="144" width="22" height="128" fill="#009D94"/>
<rect x="257.5" y="172" width="22" height="100" fill="#009D94"/>
<rect x="340.5" y="208" width="22" height="64" fill="#009D94"/>
<rect x="424.5" y="156" width="22" height="116" fill="#009D94"/>
<rect x="509.5" y="180" width="22" height="92" fill="#009D94"/>
<rect x="591.5" y="191" width="22" height="81" fill="#009D94"/>
<rect x="674.5" y="144" width="22" height="128" fill="#009D94"/>
<rect x="759.5" y="172" width="22" height="100" fill="#009D94"/>
<rect x="841.5" y="191" width="22" height="81" fill="#009D94"/>
<rect x="925.5" y="156" width="22" height="116" fill="#009D94"/>
<rect x="1009.5" y="172" width="22" height="100" fill="#009D94"/>
</g>
<defs>
<clipPath id="clip0_114_229">
<rect width="1067" height="348" fill="white"/>
</clipPath>
</defs>
</svg>
