<svg width="496" height="412" viewBox="0 0 496 412" fill="none" xmlns="http://www.w3.org/2000/svg">
<path d="M383 165C383 238.454 323.454 298 250 298C176.546 298 117 238.454 117 165C117 91.5461 176.546 32 250 32C323.454 32 383 91.5461 383 165ZM143.6 165C143.6 223.763 191.237 271.4 250 271.4C308.763 271.4 356.4 223.763 356.4 165C356.4 106.237 308.763 58.6 250 58.6C191.237 58.6 143.6 106.237 143.6 165Z" fill="#DCECFB"/>
<path d="M250 45.3C250 37.9546 255.969 31.9311 263.278 32.6644C283.146 34.6578 302.37 41.1065 319.492 51.5989C340.406 64.4148 357.368 82.7645 368.504 104.619C379.639 126.474 384.514 150.982 382.59 175.435C380.666 199.888 372.017 223.332 357.599 243.175C343.182 263.019 323.558 278.489 300.897 287.876C278.236 297.263 253.42 300.2 229.194 296.363C204.968 292.526 182.275 282.064 163.623 266.134C148.354 253.092 136.28 236.802 128.245 218.522C125.289 211.798 129.173 204.259 136.159 201.989C143.144 199.719 150.573 203.591 153.696 210.239C160.105 223.881 169.361 236.053 180.899 245.907C195.82 258.651 213.974 267.02 233.355 270.09C252.736 273.16 272.589 270.81 290.718 263.301C308.846 255.792 324.546 243.415 336.079 227.54C347.613 211.665 354.532 192.91 356.072 173.348C357.612 153.786 353.712 134.179 344.803 116.695C335.895 99.2116 322.325 84.5318 305.594 74.2791C292.657 66.3514 278.22 61.3093 263.266 59.4301C255.978 58.5143 250 52.6454 250 45.3Z" fill="#009D94"/>
<path d="M233.526 152.368L222.963 176.75H216.924L227.487 153.788H213.933V149.187H233.526V152.368ZM255.94 176.75H236.952V172.85L245.85 163.385C246.733 162.426 247.427 161.587 247.932 160.867C248.449 160.136 248.815 159.473 249.03 158.88C249.244 158.287 249.352 157.731 249.352 157.214C249.352 156.015 249.055 155.081 248.462 154.412C247.882 153.731 247.042 153.39 245.944 153.39C245.124 153.39 244.43 153.592 243.862 153.996C243.294 154.387 242.859 154.923 242.556 155.605C242.266 156.274 242.12 157.044 242.12 157.914H236.403C236.403 156.248 236.795 154.728 237.577 153.352C238.36 151.964 239.47 150.86 240.909 150.039C242.36 149.206 244.077 148.79 246.058 148.79C248.998 148.79 251.238 149.49 252.778 150.891C254.318 152.292 255.088 154.217 255.088 156.665C255.088 157.914 254.835 159.107 254.33 160.243C253.826 161.379 253.106 162.521 252.172 163.669C251.251 164.818 250.166 166.042 248.916 167.342L244.335 172.15H255.94V176.75ZM259.196 154.488C259.196 153.441 259.423 152.488 259.877 151.63C260.344 150.771 261.019 150.084 261.903 149.566C262.799 149.049 263.903 148.79 265.215 148.79C266.553 148.79 267.67 149.049 268.566 149.566C269.462 150.084 270.131 150.771 270.573 151.63C271.027 152.488 271.254 153.441 271.254 154.488V155.946C271.254 156.968 271.027 157.908 270.573 158.766C270.131 159.624 269.462 160.312 268.566 160.83C267.683 161.347 266.578 161.606 265.253 161.606C263.928 161.606 262.818 161.347 261.921 160.83C261.025 160.312 260.344 159.624 259.877 158.766C259.423 157.908 259.196 156.968 259.196 155.946V154.488ZM262.963 155.946C262.963 156.362 263.045 156.753 263.209 157.119C263.385 157.473 263.644 157.763 263.985 157.99C264.326 158.217 264.748 158.331 265.253 158.331C265.758 158.331 266.174 158.217 266.503 157.99C266.831 157.763 267.071 157.473 267.222 157.119C267.386 156.753 267.468 156.362 267.468 155.946V154.488C267.468 154.059 267.386 153.661 267.222 153.295C267.058 152.929 266.805 152.633 266.465 152.406C266.137 152.178 265.72 152.065 265.215 152.065C264.723 152.065 264.307 152.178 263.966 152.406C263.638 152.633 263.385 152.929 263.209 153.295C263.045 153.661 262.963 154.059 262.963 154.488V155.946ZM272.333 169.992C272.333 168.957 272.56 168.011 273.015 167.152C273.482 166.294 274.163 165.606 275.059 165.089C275.955 164.572 277.059 164.313 278.372 164.313C279.71 164.313 280.82 164.572 281.704 165.089C282.6 165.606 283.275 166.294 283.729 167.152C284.183 168.011 284.411 168.957 284.411 169.992V171.45C284.411 172.484 284.183 173.431 283.729 174.289C283.287 175.147 282.619 175.835 281.723 176.352C280.839 176.87 279.735 177.129 278.41 177.129C277.085 177.129 275.968 176.87 275.059 176.352C274.163 175.835 273.482 175.147 273.015 174.289C272.56 173.431 272.333 172.484 272.333 171.45V169.992ZM276.119 171.45C276.119 171.879 276.214 172.276 276.403 172.642C276.592 172.995 276.857 173.286 277.198 173.513C277.552 173.74 277.955 173.854 278.41 173.854C279.003 173.854 279.457 173.74 279.773 173.513C280.101 173.286 280.322 172.995 280.435 172.642C280.562 172.276 280.625 171.879 280.625 171.45V169.992C280.625 169.361 280.435 168.806 280.057 168.326C279.691 167.834 279.129 167.588 278.372 167.588C277.615 167.588 277.047 167.834 276.668 168.326C276.302 168.806 276.119 169.361 276.119 169.992V171.45ZM266.351 174.706L263.606 173.229L277.066 151.686L279.811 153.163L266.351 174.706Z" fill="#232325"/>
<circle cx="68.5" cy="371.5" r="11.5" fill="#DDECFB"/>
<circle cx="236.5" cy="373.5" r="11.5" fill="#009D94"/>
<path d="M99.8672 377H97.8672V365.625H99.8672V377ZM103.414 367.25H94.3516V365.625H103.414V367.25ZM103.148 372.695C103.148 371.872 103.305 371.138 103.617 370.492C103.93 369.846 104.378 369.336 104.961 368.961C105.549 368.581 106.255 368.391 107.078 368.391C107.911 368.391 108.622 368.581 109.211 368.961C109.799 369.336 110.247 369.846 110.555 370.492C110.867 371.138 111.023 371.872 111.023 372.695V372.859C111.023 373.677 110.867 374.411 110.555 375.062C110.247 375.708 109.799 376.219 109.211 376.594C108.628 376.969 107.922 377.156 107.094 377.156C106.266 377.156 105.557 376.969 104.969 376.594C104.38 376.219 103.93 375.708 103.617 375.062C103.305 374.411 103.148 373.677 103.148 372.859V372.695ZM105.086 372.859C105.086 373.359 105.156 373.818 105.297 374.234C105.438 374.646 105.654 374.977 105.945 375.227C106.242 375.477 106.625 375.602 107.094 375.602C107.557 375.602 107.935 375.477 108.227 375.227C108.523 374.977 108.74 374.646 108.875 374.234C109.016 373.818 109.086 373.359 109.086 372.859V372.695C109.086 372.201 109.016 371.745 108.875 371.328C108.74 370.911 108.523 370.578 108.227 370.328C107.93 370.073 107.547 369.945 107.078 369.945C106.615 369.945 106.234 370.073 105.938 370.328C105.646 370.578 105.43 370.911 105.289 371.328C105.154 371.745 105.086 372.201 105.086 372.695V372.859ZM116.484 369.977H111.688V368.547H116.484V369.977ZM114.984 366.477V374.617C114.984 374.878 115.021 375.076 115.094 375.211C115.167 375.341 115.271 375.43 115.406 375.477C115.542 375.523 115.698 375.547 115.875 375.547C116.005 375.547 116.13 375.539 116.25 375.523C116.37 375.508 116.466 375.492 116.539 375.477V376.969C116.383 377.021 116.201 377.065 115.992 377.102C115.789 377.138 115.549 377.156 115.273 377.156C114.841 377.156 114.456 377.078 114.117 376.922C113.784 376.766 113.521 376.513 113.328 376.164C113.141 375.81 113.047 375.341 113.047 374.758V366.477H114.984ZM122.656 371.289C122.656 370.852 122.534 370.503 122.289 370.242C122.049 369.982 121.685 369.852 121.195 369.852C120.904 369.852 120.648 369.904 120.43 370.008C120.211 370.107 120.042 370.242 119.922 370.414C119.802 370.586 119.742 370.781 119.742 371H117.805C117.805 370.547 117.948 370.122 118.234 369.727C118.521 369.326 118.924 369.003 119.445 368.758C119.971 368.513 120.591 368.391 121.305 368.391C121.94 368.391 122.505 368.497 123 368.711C123.495 368.924 123.883 369.247 124.164 369.68C124.451 370.112 124.594 370.654 124.594 371.305V375.031C124.594 375.427 124.622 375.776 124.68 376.078C124.737 376.38 124.818 376.643 124.922 376.867V377H122.938C122.849 376.797 122.779 376.534 122.727 376.211C122.68 375.888 122.656 375.573 122.656 375.266V371.289ZM122.953 373.047H121.625C120.938 373.047 120.419 373.174 120.07 373.43C119.727 373.68 119.555 374.021 119.555 374.453C119.555 374.786 119.669 375.065 119.898 375.289C120.128 375.508 120.451 375.617 120.867 375.617C121.247 375.617 121.578 375.542 121.859 375.391C122.146 375.234 122.37 375.044 122.531 374.82C122.693 374.591 122.776 374.378 122.781 374.18L123.398 375.047C123.336 375.26 123.229 375.49 123.078 375.734C122.932 375.974 122.737 376.203 122.492 376.422C122.253 376.635 121.966 376.812 121.633 376.953C121.305 377.089 120.922 377.156 120.484 377.156C119.932 377.156 119.44 377.047 119.008 376.828C118.576 376.609 118.234 376.31 117.984 375.93C117.74 375.544 117.617 375.112 117.617 374.633C117.617 373.737 117.953 373.049 118.625 372.57C119.297 372.091 120.25 371.852 121.484 371.852H122.938L122.953 373.047ZM128.617 377H126.68V365H128.617V377ZM143.883 377H141.859L136.844 368.984V377H134.828V365.625H136.844L141.875 373.656V365.625H143.883V377ZM148.203 377H146.188V365.625H148.203V377ZM152.797 372.195H147.703V370.578H152.797V372.195ZM153.453 367.25H147.703V365.625H153.453V367.25ZM159.867 377H157.867V365.625H159.867V377ZM163.414 367.25H154.352V365.625H163.414V367.25ZM168.773 374.695C168.773 374.518 168.727 374.357 168.633 374.211C168.544 374.065 168.37 373.93 168.109 373.805C167.849 373.68 167.466 373.565 166.961 373.461C166.362 373.336 165.833 373.169 165.375 372.961C164.922 372.753 164.568 372.484 164.312 372.156C164.062 371.828 163.938 371.427 163.938 370.953C163.938 370.495 164.068 370.073 164.328 369.688C164.594 369.297 164.971 368.984 165.461 368.75C165.956 368.51 166.539 368.391 167.211 368.391C167.919 368.391 168.529 368.51 169.039 368.75C169.549 368.984 169.94 369.305 170.211 369.711C170.487 370.112 170.625 370.568 170.625 371.078H168.688C168.688 370.745 168.562 370.453 168.312 370.203C168.068 369.948 167.698 369.82 167.203 369.82C166.896 369.82 166.638 369.87 166.43 369.969C166.227 370.068 166.073 370.195 165.969 370.352C165.87 370.508 165.82 370.68 165.82 370.867C165.82 371.049 165.87 371.208 165.969 371.344C166.073 371.479 166.247 371.599 166.492 371.703C166.742 371.807 167.091 371.906 167.539 372C168.185 372.135 168.742 372.307 169.211 372.516C169.68 372.719 170.039 372.99 170.289 373.328C170.544 373.661 170.672 374.086 170.672 374.602C170.672 375.096 170.529 375.536 170.242 375.922C169.961 376.307 169.562 376.609 169.047 376.828C168.536 377.047 167.932 377.156 167.234 377.156C166.458 377.156 165.805 377.018 165.273 376.742C164.742 376.466 164.339 376.115 164.062 375.688C163.792 375.255 163.656 374.807 163.656 374.344H165.523C165.544 374.677 165.638 374.945 165.805 375.148C165.977 375.352 166.19 375.5 166.445 375.594C166.706 375.682 166.977 375.727 167.258 375.727C167.591 375.727 167.867 375.682 168.086 375.594C168.31 375.505 168.479 375.385 168.594 375.234C168.714 375.078 168.773 374.898 168.773 374.695Z" fill="black"/>
<path d="M267.867 377H265.867V365.625H267.867V377ZM271.414 367.25H262.352V365.625H271.414V367.25ZM271.148 372.695C271.148 371.872 271.305 371.138 271.617 370.492C271.93 369.846 272.378 369.336 272.961 368.961C273.549 368.581 274.255 368.391 275.078 368.391C275.911 368.391 276.622 368.581 277.211 368.961C277.799 369.336 278.247 369.846 278.555 370.492C278.867 371.138 279.023 371.872 279.023 372.695V372.859C279.023 373.677 278.867 374.411 278.555 375.062C278.247 375.708 277.799 376.219 277.211 376.594C276.628 376.969 275.922 377.156 275.094 377.156C274.266 377.156 273.557 376.969 272.969 376.594C272.38 376.219 271.93 375.708 271.617 375.062C271.305 374.411 271.148 373.677 271.148 372.859V372.695ZM273.086 372.859C273.086 373.359 273.156 373.818 273.297 374.234C273.438 374.646 273.654 374.977 273.945 375.227C274.242 375.477 274.625 375.602 275.094 375.602C275.557 375.602 275.935 375.477 276.227 375.227C276.523 374.977 276.74 374.646 276.875 374.234C277.016 373.818 277.086 373.359 277.086 372.859V372.695C277.086 372.201 277.016 371.745 276.875 371.328C276.74 370.911 276.523 370.578 276.227 370.328C275.93 370.073 275.547 369.945 275.078 369.945C274.615 369.945 274.234 370.073 273.938 370.328C273.646 370.578 273.43 370.911 273.289 371.328C273.154 371.745 273.086 372.201 273.086 372.695V372.859ZM284.484 369.977H279.688V368.547H284.484V369.977ZM282.984 366.477V374.617C282.984 374.878 283.021 375.076 283.094 375.211C283.167 375.341 283.271 375.43 283.406 375.477C283.542 375.523 283.698 375.547 283.875 375.547C284.005 375.547 284.13 375.539 284.25 375.523C284.37 375.508 284.466 375.492 284.539 375.477V376.969C284.383 377.021 284.201 377.065 283.992 377.102C283.789 377.138 283.549 377.156 283.273 377.156C282.841 377.156 282.456 377.078 282.117 376.922C281.784 376.766 281.521 376.513 281.328 376.164C281.141 375.81 281.047 375.341 281.047 374.758V366.477H282.984ZM290.656 371.289C290.656 370.852 290.534 370.503 290.289 370.242C290.049 369.982 289.685 369.852 289.195 369.852C288.904 369.852 288.648 369.904 288.43 370.008C288.211 370.107 288.042 370.242 287.922 370.414C287.802 370.586 287.742 370.781 287.742 371H285.805C285.805 370.547 285.948 370.122 286.234 369.727C286.521 369.326 286.924 369.003 287.445 368.758C287.971 368.513 288.591 368.391 289.305 368.391C289.94 368.391 290.505 368.497 291 368.711C291.495 368.924 291.883 369.247 292.164 369.68C292.451 370.112 292.594 370.654 292.594 371.305V375.031C292.594 375.427 292.622 375.776 292.68 376.078C292.737 376.38 292.818 376.643 292.922 376.867V377H290.938C290.849 376.797 290.779 376.534 290.727 376.211C290.68 375.888 290.656 375.573 290.656 375.266V371.289ZM290.953 373.047H289.625C288.938 373.047 288.419 373.174 288.07 373.43C287.727 373.68 287.555 374.021 287.555 374.453C287.555 374.786 287.669 375.065 287.898 375.289C288.128 375.508 288.451 375.617 288.867 375.617C289.247 375.617 289.578 375.542 289.859 375.391C290.146 375.234 290.37 375.044 290.531 374.82C290.693 374.591 290.776 374.378 290.781 374.18L291.398 375.047C291.336 375.26 291.229 375.49 291.078 375.734C290.932 375.974 290.737 376.203 290.492 376.422C290.253 376.635 289.966 376.812 289.633 376.953C289.305 377.089 288.922 377.156 288.484 377.156C287.932 377.156 287.44 377.047 287.008 376.828C286.576 376.609 286.234 376.31 285.984 375.93C285.74 375.544 285.617 375.112 285.617 374.633C285.617 373.737 285.953 373.049 286.625 372.57C287.297 372.091 288.25 371.852 289.484 371.852H290.938L290.953 373.047ZM296.617 377H294.68V365H296.617V377ZM308.789 374.062C308.789 373.755 308.724 373.495 308.594 373.281C308.469 373.062 308.232 372.862 307.883 372.68C307.534 372.492 307.031 372.297 306.375 372.094C305.839 371.932 305.341 371.747 304.883 371.539C304.43 371.331 304.034 371.091 303.695 370.82C303.357 370.544 303.091 370.227 302.898 369.867C302.711 369.503 302.617 369.083 302.617 368.609C302.617 367.99 302.789 367.445 303.133 366.977C303.477 366.503 303.953 366.133 304.562 365.867C305.172 365.602 305.878 365.469 306.68 365.469C307.534 365.469 308.268 365.625 308.883 365.938C309.497 366.245 309.969 366.661 310.297 367.188C310.63 367.714 310.797 368.299 310.797 368.945H308.781C308.781 368.586 308.703 368.266 308.547 367.984C308.396 367.698 308.164 367.477 307.852 367.32C307.539 367.159 307.141 367.078 306.656 367.078C306.203 367.078 305.826 367.146 305.523 367.281C305.221 367.417 304.997 367.599 304.852 367.828C304.706 368.057 304.633 368.318 304.633 368.609C304.633 368.885 304.721 369.13 304.898 369.344C305.076 369.557 305.344 369.753 305.703 369.93C306.062 370.102 306.51 370.268 307.047 370.43C307.891 370.674 308.591 370.961 309.148 371.289C309.706 371.617 310.12 372.005 310.391 372.453C310.667 372.901 310.805 373.432 310.805 374.047C310.805 374.688 310.638 375.242 310.305 375.711C309.971 376.174 309.5 376.531 308.891 376.781C308.281 377.031 307.565 377.156 306.742 377.156C306.195 377.156 305.656 377.083 305.125 376.938C304.594 376.786 304.112 376.562 303.68 376.266C303.253 375.964 302.909 375.586 302.648 375.133C302.393 374.68 302.266 374.146 302.266 373.531H304.281C304.281 373.896 304.344 374.206 304.469 374.461C304.594 374.716 304.768 374.927 304.992 375.094C305.216 375.255 305.477 375.372 305.773 375.445C306.076 375.518 306.398 375.555 306.742 375.555C307.195 375.555 307.573 375.492 307.875 375.367C308.177 375.237 308.404 375.06 308.555 374.836C308.711 374.612 308.789 374.354 308.789 374.062ZM316.266 369.977H311.469V368.547H316.266V369.977ZM314.766 366.477V374.617C314.766 374.878 314.802 375.076 314.875 375.211C314.948 375.341 315.052 375.43 315.188 375.477C315.323 375.523 315.479 375.547 315.656 375.547C315.786 375.547 315.911 375.539 316.031 375.523C316.151 375.508 316.247 375.492 316.32 375.477V376.969C316.164 377.021 315.982 377.065 315.773 377.102C315.57 377.138 315.331 377.156 315.055 377.156C314.622 377.156 314.237 377.078 313.898 376.922C313.565 376.766 313.302 376.513 313.109 376.164C312.922 375.81 312.828 375.341 312.828 374.758V366.477H314.766ZM322.438 371.289C322.438 370.852 322.315 370.503 322.07 370.242C321.831 369.982 321.466 369.852 320.977 369.852C320.685 369.852 320.43 369.904 320.211 370.008C319.992 370.107 319.823 370.242 319.703 370.414C319.583 370.586 319.523 370.781 319.523 371H317.586C317.586 370.547 317.729 370.122 318.016 369.727C318.302 369.326 318.706 369.003 319.227 368.758C319.753 368.513 320.372 368.391 321.086 368.391C321.721 368.391 322.286 368.497 322.781 368.711C323.276 368.924 323.664 369.247 323.945 369.68C324.232 370.112 324.375 370.654 324.375 371.305V375.031C324.375 375.427 324.404 375.776 324.461 376.078C324.518 376.38 324.599 376.643 324.703 376.867V377H322.719C322.63 376.797 322.56 376.534 322.508 376.211C322.461 375.888 322.438 375.573 322.438 375.266V371.289ZM322.734 373.047H321.406C320.719 373.047 320.201 373.174 319.852 373.43C319.508 373.68 319.336 374.021 319.336 374.453C319.336 374.786 319.451 375.065 319.68 375.289C319.909 375.508 320.232 375.617 320.648 375.617C321.029 375.617 321.359 375.542 321.641 375.391C321.927 375.234 322.151 375.044 322.312 374.82C322.474 374.591 322.557 374.378 322.562 374.18L323.18 375.047C323.117 375.26 323.01 375.49 322.859 375.734C322.714 375.974 322.518 376.203 322.273 376.422C322.034 376.635 321.747 376.812 321.414 376.953C321.086 377.089 320.703 377.156 320.266 377.156C319.714 377.156 319.221 377.047 318.789 376.828C318.357 376.609 318.016 376.31 317.766 375.93C317.521 375.544 317.398 375.112 317.398 374.633C317.398 373.737 317.734 373.049 318.406 372.57C319.078 372.091 320.031 371.852 321.266 371.852H322.719L322.734 373.047ZM328.281 377H326.336V365H328.281V377ZM329.867 372.641L327.828 374.711L327.312 373.094L328.852 371.18L331.188 368.547H333.523L329.867 372.641ZM328.906 373.055L330.133 371.711L333.844 377H331.594L328.906 373.055ZM336.773 377H334.836V368.547H336.773V377ZM334.711 366.336C334.711 366.039 334.807 365.794 335 365.602C335.193 365.404 335.461 365.305 335.805 365.305C336.148 365.305 336.419 365.404 336.617 365.602C336.815 365.794 336.914 366.039 336.914 366.336C336.914 366.628 336.815 366.872 336.617 367.07C336.419 367.263 336.148 367.359 335.805 367.359C335.461 367.359 335.193 367.263 335 367.07C334.807 366.872 334.711 366.628 334.711 366.336ZM340.734 377H338.797V368.547H340.617L340.734 370.352V377ZM339.766 372.477C339.771 371.659 339.914 370.945 340.195 370.336C340.477 369.721 340.87 369.245 341.375 368.906C341.88 368.562 342.469 368.391 343.141 368.391C343.688 368.391 344.161 368.495 344.562 368.703C344.964 368.906 345.276 369.24 345.5 369.703C345.724 370.161 345.836 370.779 345.836 371.555V377H343.891V371.539C343.891 371.148 343.833 370.839 343.719 370.609C343.609 370.38 343.443 370.219 343.219 370.125C343 370.026 342.732 369.977 342.414 369.977C342.091 369.977 341.805 370.042 341.555 370.172C341.31 370.297 341.099 370.474 340.922 370.703C340.75 370.932 340.617 371.198 340.523 371.5C340.435 371.802 340.391 372.125 340.391 372.469L339.766 372.477ZM354.906 368.547V376.758C354.906 377.518 354.742 378.164 354.414 378.695C354.086 379.232 353.63 379.638 353.047 379.914C352.469 380.19 351.797 380.328 351.031 380.328C350.708 380.328 350.349 380.281 349.953 380.188C349.562 380.099 349.182 379.953 348.812 379.75C348.443 379.547 348.133 379.281 347.883 378.953L348.789 377.781C349.091 378.13 349.422 378.388 349.781 378.555C350.146 378.727 350.529 378.812 350.93 378.812C351.56 378.812 352.055 378.638 352.414 378.289C352.779 377.94 352.961 377.44 352.961 376.789V370.469L353.141 368.547H354.906ZM347.406 372.703C347.406 371.849 347.542 371.099 347.812 370.453C348.089 369.802 348.479 369.297 348.984 368.938C349.495 368.573 350.099 368.391 350.797 368.391C351.349 368.391 351.82 368.492 352.211 368.695C352.602 368.893 352.924 369.18 353.18 369.555C353.44 369.924 353.643 370.367 353.789 370.883C353.94 371.393 354.052 371.958 354.125 372.578V373.031C354.031 373.833 353.857 374.544 353.602 375.164C353.346 375.784 352.987 376.271 352.523 376.625C352.065 376.979 351.484 377.156 350.781 377.156C350.094 377.156 349.497 376.971 348.992 376.602C348.487 376.227 348.096 375.716 347.82 375.07C347.544 374.424 347.406 373.69 347.406 372.867V372.703ZM349.344 372.867C349.344 373.367 349.411 373.823 349.547 374.234C349.682 374.641 349.891 374.966 350.172 375.211C350.458 375.451 350.826 375.57 351.273 375.57C351.711 375.57 352.068 375.479 352.344 375.297C352.62 375.109 352.833 374.857 352.984 374.539C353.141 374.221 353.247 373.865 353.305 373.469V372.148C353.273 371.836 353.211 371.547 353.117 371.281C353.029 371.016 352.901 370.786 352.734 370.594C352.573 370.401 352.372 370.25 352.133 370.141C351.893 370.031 351.612 369.977 351.289 369.977C350.841 369.977 350.474 370.099 350.188 370.344C349.901 370.583 349.688 370.911 349.547 371.328C349.411 371.74 349.344 372.198 349.344 372.703V372.867ZM363.125 377H361.117V365.625H363.125V377ZM367.266 377H365.328V368.547H367.148L367.266 370.352V377ZM366.297 372.477C366.302 371.659 366.445 370.945 366.727 370.336C367.008 369.721 367.401 369.245 367.906 368.906C368.411 368.562 369 368.391 369.672 368.391C370.219 368.391 370.693 368.495 371.094 368.703C371.495 368.906 371.807 369.24 372.031 369.703C372.255 370.161 372.367 370.779 372.367 371.555V377H370.422V371.539C370.422 371.148 370.365 370.839 370.25 370.609C370.141 370.38 369.974 370.219 369.75 370.125C369.531 370.026 369.263 369.977 368.945 369.977C368.622 369.977 368.336 370.042 368.086 370.172C367.841 370.297 367.63 370.474 367.453 370.703C367.281 370.932 367.148 371.198 367.055 371.5C366.966 371.802 366.922 372.125 366.922 372.469L366.297 372.477ZM379.844 372.805V371.18H382.781C383.292 371.18 383.701 371.099 384.008 370.938C384.32 370.776 384.549 370.552 384.695 370.266C384.841 369.979 384.914 369.651 384.914 369.281C384.914 368.927 384.841 368.596 384.695 368.289C384.549 367.982 384.32 367.732 384.008 367.539C383.701 367.346 383.292 367.25 382.781 367.25H380.453V377H378.438V365.625H382.781C383.667 365.625 384.419 365.781 385.039 366.094C385.659 366.406 386.13 366.836 386.453 367.383C386.781 367.93 386.945 368.557 386.945 369.266C386.945 370 386.781 370.633 386.453 371.164C386.13 371.69 385.659 372.096 385.039 372.383C384.419 372.664 383.667 372.805 382.781 372.805H379.844ZM390.43 377H388.492V368.547H390.336L390.43 370.203V377ZM392.977 370.328C392.857 370.307 392.729 370.292 392.594 370.281C392.464 370.271 392.333 370.266 392.203 370.266C391.776 370.266 391.419 370.344 391.133 370.5C390.852 370.651 390.638 370.87 390.492 371.156C390.346 371.438 390.26 371.771 390.234 372.156L389.789 372.164C389.789 371.451 389.883 370.81 390.07 370.242C390.258 369.674 390.539 369.224 390.914 368.891C391.289 368.557 391.758 368.391 392.32 368.391C392.43 368.391 392.552 368.401 392.688 368.422C392.823 368.443 392.924 368.466 392.992 368.492L392.977 370.328ZM393.633 372.695C393.633 371.872 393.789 371.138 394.102 370.492C394.414 369.846 394.862 369.336 395.445 368.961C396.034 368.581 396.74 368.391 397.562 368.391C398.396 368.391 399.107 368.581 399.695 368.961C400.284 369.336 400.732 369.846 401.039 370.492C401.352 371.138 401.508 371.872 401.508 372.695V372.859C401.508 373.677 401.352 374.411 401.039 375.062C400.732 375.708 400.284 376.219 399.695 376.594C399.112 376.969 398.406 377.156 397.578 377.156C396.75 377.156 396.042 376.969 395.453 376.594C394.865 376.219 394.414 375.708 394.102 375.062C393.789 374.411 393.633 373.677 393.633 372.859V372.695ZM395.57 372.859C395.57 373.359 395.641 373.818 395.781 374.234C395.922 374.646 396.138 374.977 396.43 375.227C396.727 375.477 397.109 375.602 397.578 375.602C398.042 375.602 398.419 375.477 398.711 375.227C399.008 374.977 399.224 374.646 399.359 374.234C399.5 373.818 399.57 373.359 399.57 372.859V372.695C399.57 372.201 399.5 371.745 399.359 371.328C399.224 370.911 399.008 370.578 398.711 370.328C398.414 370.073 398.031 369.945 397.562 369.945C397.099 369.945 396.719 370.073 396.422 370.328C396.13 370.578 395.914 370.911 395.773 371.328C395.638 371.745 395.57 372.201 395.57 372.695V372.859ZM410.25 368.547V376.758C410.25 377.518 410.086 378.164 409.758 378.695C409.43 379.232 408.974 379.638 408.391 379.914C407.812 380.19 407.141 380.328 406.375 380.328C406.052 380.328 405.693 380.281 405.297 380.188C404.906 380.099 404.526 379.953 404.156 379.75C403.786 379.547 403.477 379.281 403.227 378.953L404.133 377.781C404.435 378.13 404.766 378.388 405.125 378.555C405.49 378.727 405.872 378.812 406.273 378.812C406.904 378.812 407.398 378.638 407.758 378.289C408.122 377.94 408.305 377.44 408.305 376.789V370.469L408.484 368.547H410.25ZM402.75 372.703C402.75 371.849 402.885 371.099 403.156 370.453C403.432 369.802 403.823 369.297 404.328 368.938C404.839 368.573 405.443 368.391 406.141 368.391C406.693 368.391 407.164 368.492 407.555 368.695C407.945 368.893 408.268 369.18 408.523 369.555C408.784 369.924 408.987 370.367 409.133 370.883C409.284 371.393 409.396 371.958 409.469 372.578V373.031C409.375 373.833 409.201 374.544 408.945 375.164C408.69 375.784 408.331 376.271 407.867 376.625C407.409 376.979 406.828 377.156 406.125 377.156C405.438 377.156 404.841 376.971 404.336 376.602C403.831 376.227 403.44 375.716 403.164 375.07C402.888 374.424 402.75 373.69 402.75 372.867V372.703ZM404.688 372.867C404.688 373.367 404.755 373.823 404.891 374.234C405.026 374.641 405.234 374.966 405.516 375.211C405.802 375.451 406.169 375.57 406.617 375.57C407.055 375.57 407.411 375.479 407.688 375.297C407.964 375.109 408.177 374.857 408.328 374.539C408.484 374.221 408.591 373.865 408.648 373.469V372.148C408.617 371.836 408.555 371.547 408.461 371.281C408.372 371.016 408.245 370.786 408.078 370.594C407.917 370.401 407.716 370.25 407.477 370.141C407.237 370.031 406.956 369.977 406.633 369.977C406.185 369.977 405.818 370.099 405.531 370.344C405.245 370.583 405.031 370.911 404.891 371.328C404.755 371.74 404.688 372.198 404.688 372.703V372.867ZM414.102 377H412.164V368.547H414.008L414.102 370.203V377ZM416.648 370.328C416.529 370.307 416.401 370.292 416.266 370.281C416.135 370.271 416.005 370.266 415.875 370.266C415.448 370.266 415.091 370.344 414.805 370.5C414.523 370.651 414.31 370.87 414.164 371.156C414.018 371.438 413.932 371.771 413.906 372.156L413.461 372.164C413.461 371.451 413.555 370.81 413.742 370.242C413.93 369.674 414.211 369.224 414.586 368.891C414.961 368.557 415.43 368.391 415.992 368.391C416.102 368.391 416.224 368.401 416.359 368.422C416.495 368.443 416.596 368.466 416.664 368.492L416.648 370.328ZM421.578 377.156C420.74 377.156 420.016 376.977 419.406 376.617C418.797 376.253 418.328 375.763 418 375.148C417.672 374.529 417.508 373.836 417.508 373.07V372.75C417.508 371.87 417.674 371.104 418.008 370.453C418.341 369.797 418.797 369.289 419.375 368.93C419.958 368.57 420.617 368.391 421.352 368.391C422.164 368.391 422.839 368.568 423.375 368.922C423.911 369.271 424.312 369.758 424.578 370.383C424.844 371.003 424.977 371.721 424.977 372.539V373.375H418.438V371.977H423.062V371.828C423.052 371.5 422.99 371.193 422.875 370.906C422.76 370.62 422.578 370.388 422.328 370.211C422.083 370.034 421.755 369.945 421.344 369.945C420.932 369.945 420.586 370.062 420.305 370.297C420.023 370.526 419.81 370.852 419.664 371.273C419.518 371.69 419.445 372.182 419.445 372.75V373.07C419.445 373.549 419.534 373.979 419.711 374.359C419.888 374.74 420.146 375.042 420.484 375.266C420.823 375.484 421.227 375.594 421.695 375.594C422.148 375.594 422.549 375.505 422.898 375.328C423.253 375.151 423.557 374.896 423.812 374.562L424.828 375.578C424.562 375.979 424.161 376.344 423.625 376.672C423.094 376.995 422.411 377.156 421.578 377.156ZM431.148 374.695C431.148 374.518 431.102 374.357 431.008 374.211C430.919 374.065 430.745 373.93 430.484 373.805C430.224 373.68 429.841 373.565 429.336 373.461C428.737 373.336 428.208 373.169 427.75 372.961C427.297 372.753 426.943 372.484 426.688 372.156C426.438 371.828 426.312 371.427 426.312 370.953C426.312 370.495 426.443 370.073 426.703 369.688C426.969 369.297 427.346 368.984 427.836 368.75C428.331 368.51 428.914 368.391 429.586 368.391C430.294 368.391 430.904 368.51 431.414 368.75C431.924 368.984 432.315 369.305 432.586 369.711C432.862 370.112 433 370.568 433 371.078H431.062C431.062 370.745 430.938 370.453 430.688 370.203C430.443 369.948 430.073 369.82 429.578 369.82C429.271 369.82 429.013 369.87 428.805 369.969C428.602 370.068 428.448 370.195 428.344 370.352C428.245 370.508 428.195 370.68 428.195 370.867C428.195 371.049 428.245 371.208 428.344 371.344C428.448 371.479 428.622 371.599 428.867 371.703C429.117 371.807 429.466 371.906 429.914 372C430.56 372.135 431.117 372.307 431.586 372.516C432.055 372.719 432.414 372.99 432.664 373.328C432.919 373.661 433.047 374.086 433.047 374.602C433.047 375.096 432.904 375.536 432.617 375.922C432.336 376.307 431.938 376.609 431.422 376.828C430.911 377.047 430.307 377.156 429.609 377.156C428.833 377.156 428.18 377.018 427.648 376.742C427.117 376.466 426.714 376.115 426.438 375.688C426.167 375.255 426.031 374.807 426.031 374.344H427.898C427.919 374.677 428.013 374.945 428.18 375.148C428.352 375.352 428.565 375.5 428.82 375.594C429.081 375.682 429.352 375.727 429.633 375.727C429.966 375.727 430.242 375.682 430.461 375.594C430.685 375.505 430.854 375.385 430.969 375.234C431.089 375.078 431.148 374.898 431.148 374.695ZM439.398 374.695C439.398 374.518 439.352 374.357 439.258 374.211C439.169 374.065 438.995 373.93 438.734 373.805C438.474 373.68 438.091 373.565 437.586 373.461C436.987 373.336 436.458 373.169 436 372.961C435.547 372.753 435.193 372.484 434.938 372.156C434.688 371.828 434.562 371.427 434.562 370.953C434.562 370.495 434.693 370.073 434.953 369.688C435.219 369.297 435.596 368.984 436.086 368.75C436.581 368.51 437.164 368.391 437.836 368.391C438.544 368.391 439.154 368.51 439.664 368.75C440.174 368.984 440.565 369.305 440.836 369.711C441.112 370.112 441.25 370.568 441.25 371.078H439.312C439.312 370.745 439.188 370.453 438.938 370.203C438.693 369.948 438.323 369.82 437.828 369.82C437.521 369.82 437.263 369.87 437.055 369.969C436.852 370.068 436.698 370.195 436.594 370.352C436.495 370.508 436.445 370.68 436.445 370.867C436.445 371.049 436.495 371.208 436.594 371.344C436.698 371.479 436.872 371.599 437.117 371.703C437.367 371.807 437.716 371.906 438.164 372C438.81 372.135 439.367 372.307 439.836 372.516C440.305 372.719 440.664 372.99 440.914 373.328C441.169 373.661 441.297 374.086 441.297 374.602C441.297 375.096 441.154 375.536 440.867 375.922C440.586 376.307 440.188 376.609 439.672 376.828C439.161 377.047 438.557 377.156 437.859 377.156C437.083 377.156 436.43 377.018 435.898 376.742C435.367 376.466 434.964 376.115 434.688 375.688C434.417 375.255 434.281 374.807 434.281 374.344H436.148C436.169 374.677 436.263 374.945 436.43 375.148C436.602 375.352 436.815 375.5 437.07 375.594C437.331 375.682 437.602 375.727 437.883 375.727C438.216 375.727 438.492 375.682 438.711 375.594C438.935 375.505 439.104 375.385 439.219 375.234C439.339 375.078 439.398 374.898 439.398 374.695Z" fill="black"/>
</svg>
