<svg width="496" height="412" viewBox="0 0 496 412" fill="none" xmlns="http://www.w3.org/2000/svg">
<path d="M102.904 351.064C87.9682 333.672 76.2051 313.609 68.3164 291.774C54.5216 253.591 53.2985 211.991 64.8263 173.062C76.354 134.133 100.027 99.9192 132.382 75.4269C164.736 50.9346 204.073 37.4499 244.636 36.9463C285.199 36.4427 324.858 48.9465 357.809 72.628C390.761 96.3095 415.275 129.925 427.764 168.556C440.253 207.187 440.061 248.804 427.217 287.318C419.897 309.266 408.687 329.55 394.26 347.264" stroke="#B5E1E1" stroke-width="3.79999" stroke-miterlimit="4.13936" stroke-dasharray="1.27 17.1"/>
<path d="M85.6225 275.537C84.3963 275.537 83.4539 275.066 82.7953 274.124C82.1366 273.171 81.8073 271.808 81.8073 270.035C81.8073 268.231 82.1366 266.868 82.7953 265.946C83.4539 265.014 84.3963 264.548 85.6225 264.548C86.8587 264.548 87.8011 265.014 88.4497 265.946C89.1083 266.868 89.4377 268.226 89.4377 270.02C89.4377 271.803 89.1083 273.171 88.4497 274.124C87.791 275.066 86.8486 275.537 85.6225 275.537ZM85.6225 274.336C86.4331 274.336 87.0361 273.987 87.4313 273.288C87.8366 272.588 88.0393 271.499 88.0393 270.02C88.0393 268.54 87.8366 267.461 87.4313 266.782C87.0361 266.093 86.4331 265.748 85.6225 265.748C84.8219 265.748 84.219 266.093 83.8137 266.782C83.4083 267.461 83.2057 268.54 83.2057 270.02C83.2057 271.499 83.4083 272.588 83.8137 273.288C84.219 273.987 84.8219 274.336 85.6225 274.336ZM92.0613 275.4V274.2H94.5693V265.885H95.2837L92.2893 267.74V266.356L94.9645 264.684H95.9829V274.2H98.3389V275.4H92.0613Z" fill="#3E4543"/>
<path d="M79.2875 199.536C78.0614 199.536 77.119 199.065 76.4603 198.123C75.8017 197.17 75.4723 195.807 75.4723 194.034C75.4723 192.23 75.8017 190.867 76.4603 189.945C77.119 189.013 78.0614 188.547 79.2875 188.547C80.5238 188.547 81.4662 189.013 82.1147 189.945C82.7734 190.867 83.1027 192.225 83.1027 194.019C83.1027 195.802 82.7734 197.17 82.1147 198.123C81.456 199.065 80.5136 199.536 79.2875 199.536ZM79.2875 198.335C80.0982 198.335 80.7011 197.986 81.0963 197.287C81.5016 196.587 81.7043 195.498 81.7043 194.019C81.7043 192.539 81.5016 191.46 81.0963 190.781C80.7011 190.092 80.0982 189.747 79.2875 189.747C78.487 189.747 77.884 190.092 77.4787 190.781C77.0734 191.46 76.8707 192.539 76.8707 194.019C76.8707 195.498 77.0734 196.587 77.4787 197.287C77.884 197.986 78.487 198.335 79.2875 198.335ZM85.1336 199.399V198.351L88.8727 194.429C89.3591 193.933 89.7189 193.456 89.9519 193C90.1951 192.544 90.3167 192.073 90.3167 191.587C90.3167 190.989 90.1293 190.538 89.7543 190.234C89.3895 189.92 88.8525 189.763 88.1431 189.763C87.596 189.763 87.0792 189.864 86.5928 190.067C86.1165 190.259 85.6605 190.558 85.2248 190.963L84.7232 189.884C85.1386 189.479 85.6605 189.155 86.2888 188.911C86.9272 188.668 87.596 188.547 88.2951 188.547C89.3895 188.547 90.2357 188.8 90.8335 189.307C91.4314 189.803 91.7303 190.518 91.7303 191.45C91.7303 192.129 91.5631 192.777 91.2287 193.395C90.9045 194.003 90.4231 194.632 89.7847 195.28L86.5168 198.594V198.199H92.1711V199.399H85.1336Z" fill="#3E4543"/>
<path d="M110.956 133.67C109.73 133.67 108.788 133.199 108.129 132.256C107.471 131.304 107.141 129.941 107.141 128.168C107.141 126.364 107.471 125.001 108.129 124.079C108.788 123.147 109.73 122.68 110.956 122.68C112.193 122.68 113.135 123.147 113.784 124.079C114.442 125.001 114.772 126.359 114.772 128.152C114.772 129.936 114.442 131.304 113.784 132.256C113.125 133.199 112.183 133.67 110.956 133.67ZM110.956 132.469C111.767 132.469 112.37 132.12 112.765 131.42C113.171 130.721 113.373 129.632 113.373 128.152C113.373 126.673 113.171 125.594 112.765 124.915C112.37 124.226 111.767 123.881 110.956 123.881C110.156 123.881 109.553 124.226 109.148 124.915C108.742 125.594 108.54 126.673 108.54 128.152C108.54 129.632 108.742 130.721 109.148 131.42C109.553 132.12 110.156 132.469 110.956 132.469ZM119.994 133.67C119.265 133.67 118.566 133.559 117.897 133.336C117.238 133.113 116.686 132.799 116.24 132.393L116.742 131.299C117.238 131.704 117.75 131.998 118.277 132.18C118.804 132.363 119.361 132.454 119.949 132.454C120.729 132.454 121.322 132.292 121.727 131.968C122.133 131.633 122.335 131.157 122.335 130.539C122.335 129.931 122.128 129.47 121.712 129.156C121.307 128.841 120.709 128.684 119.918 128.684H118.277V127.514H119.812C120.481 127.514 121.018 127.342 121.423 126.997C121.829 126.653 122.031 126.182 122.031 125.584C122.031 125.036 121.844 124.621 121.469 124.337C121.104 124.043 120.582 123.896 119.903 123.896C118.758 123.896 117.765 124.297 116.924 125.097L116.423 124.018C116.848 123.592 117.375 123.263 118.003 123.03C118.632 122.797 119.295 122.68 119.994 122.68C121.058 122.68 121.894 122.924 122.502 123.41C123.11 123.896 123.414 124.575 123.414 125.447C123.414 126.106 123.227 126.673 122.852 127.149C122.487 127.615 121.986 127.924 121.347 128.076V127.909C122.097 128.041 122.68 128.35 123.095 128.836C123.511 129.313 123.718 129.911 123.718 130.63C123.718 131.572 123.384 132.317 122.715 132.864C122.057 133.401 121.15 133.67 119.994 133.67Z" fill="#3E4543"/>
<path d="M120.221 341.943C118.995 341.943 118.053 341.472 117.394 340.53C116.735 339.577 116.406 338.214 116.406 336.441C116.406 334.637 116.735 333.274 117.394 332.352C118.053 331.42 118.995 330.954 120.221 330.954C121.457 330.954 122.4 331.42 123.048 332.352C123.707 333.274 124.036 334.632 124.036 336.426C124.036 338.209 123.707 339.577 123.048 340.53C122.39 341.472 121.447 341.943 120.221 341.943ZM120.221 340.743C121.032 340.743 121.635 340.393 122.03 339.694C122.435 338.995 122.638 337.905 122.638 336.426C122.638 334.946 122.435 333.867 122.03 333.188C121.635 332.499 121.032 332.155 120.221 332.155C119.421 332.155 118.818 332.499 118.412 333.188C118.007 333.867 117.804 334.946 117.804 336.426C117.804 337.905 118.007 338.995 118.412 339.694C118.818 340.393 119.421 340.743 120.221 340.743ZM129.335 341.943C128.109 341.943 127.167 341.472 126.508 340.53C125.849 339.577 125.52 338.214 125.52 336.441C125.52 334.637 125.849 333.274 126.508 332.352C127.167 331.42 128.109 330.954 129.335 330.954C130.571 330.954 131.514 331.42 132.162 332.352C132.821 333.274 133.15 334.632 133.15 336.426C133.15 338.209 132.821 339.577 132.162 340.53C131.504 341.472 130.561 341.943 129.335 341.943ZM129.335 340.743C130.146 340.743 130.749 340.393 131.144 339.694C131.549 338.995 131.752 337.905 131.752 336.426C131.752 334.946 131.549 333.867 131.144 333.188C130.749 332.499 130.146 332.155 129.335 332.155C128.535 332.155 127.932 332.499 127.526 333.188C127.121 333.867 126.918 334.946 126.918 336.426C126.918 337.905 127.121 338.995 127.526 339.694C127.932 340.393 128.535 340.743 129.335 340.743Z" fill="#3E4543"/>
<path d="M169.221 81.7354C167.995 81.7354 167.053 81.2642 166.394 80.3219C165.735 79.3693 165.406 78.0064 165.406 76.2331C165.406 74.4293 165.735 73.0664 166.394 72.1443C167.053 71.212 167.995 70.7459 169.221 70.7459C170.457 70.7459 171.4 71.212 172.048 72.1443C172.707 73.0664 173.036 74.4243 173.036 76.2179C173.036 78.0013 172.707 79.3693 172.048 80.3219C171.39 81.2642 170.447 81.7354 169.221 81.7354ZM169.221 80.5347C170.032 80.5347 170.635 80.1851 171.03 79.4859C171.435 78.7867 171.638 77.6973 171.638 76.2179C171.638 74.7384 171.435 73.6592 171.03 72.9803C170.635 72.2912 170.032 71.9467 169.221 71.9467C168.421 71.9467 167.818 72.2912 167.412 72.9803C167.007 73.6592 166.804 74.7384 166.804 76.2179C166.804 77.6973 167.007 78.7867 167.412 79.4859C167.818 80.1851 168.421 80.5347 169.221 80.5347ZM179.536 81.5986V79.3339H174.505V78.3155L179.764 70.8827H180.919V78.2091H182.53V79.3339H180.919V81.5986H179.536ZM179.536 78.2091V72.5547H179.886L175.645 78.5435V78.2091H179.536Z" fill="#3E4543"/>
<path d="M240.157 70.337C238.931 70.337 237.988 69.8658 237.329 68.9234C236.671 67.9709 236.341 66.608 236.341 64.8346C236.341 63.0309 236.671 61.668 237.329 60.7458C237.988 59.8136 238.931 59.3474 240.157 59.3474C241.393 59.3474 242.335 59.8136 242.984 60.7458C243.643 61.668 243.972 63.0258 243.972 64.8194C243.972 66.6029 243.643 67.9709 242.984 68.9234C242.325 69.8658 241.383 70.337 240.157 70.337ZM240.157 69.1362C240.967 69.1362 241.57 68.7866 241.965 68.0874C242.371 67.3882 242.573 66.2989 242.573 64.8194C242.573 63.34 242.371 62.2608 241.965 61.5818C241.57 60.8928 240.967 60.5482 240.157 60.5482C239.356 60.5482 238.753 60.8928 238.348 61.5818C237.943 62.2608 237.74 63.34 237.74 64.8194C237.74 66.2989 237.943 67.3882 238.348 68.0874C238.753 68.7866 239.356 69.1362 240.157 69.1362ZM249.453 70.337C248.987 70.337 248.526 70.2863 248.07 70.185C247.624 70.0837 247.203 69.9418 246.808 69.7594C246.413 69.5669 246.069 69.3338 245.775 69.0602L246.276 67.9658C246.773 68.361 247.279 68.6549 247.796 68.8474C248.313 69.0298 248.855 69.121 249.423 69.121C250.173 69.121 250.76 68.9234 251.186 68.5282C251.611 68.133 251.824 67.6061 251.824 66.9474C251.824 66.2685 251.622 65.7213 251.216 65.3058C250.811 64.8802 250.249 64.6674 249.529 64.6674C249.033 64.6674 248.582 64.7688 248.176 64.9714C247.781 65.164 247.431 65.473 247.127 65.8986H246.124V59.4842H252.554V60.685H247.492V64.7434H247.127C247.401 64.3381 247.771 64.024 248.237 63.801C248.713 63.5781 249.245 63.4666 249.833 63.4666C250.522 63.4666 251.115 63.6085 251.611 63.8922C252.118 64.176 252.508 64.5762 252.782 65.093C253.066 65.5997 253.207 66.1925 253.207 66.8714C253.207 67.5504 253.055 68.1533 252.751 68.6802C252.447 69.197 252.012 69.6023 251.444 69.8962C250.887 70.1901 250.223 70.337 249.453 70.337Z" fill="#3E4543"/>
<path d="M371.885 128.603C370.659 128.603 369.717 128.131 369.058 127.189C368.399 126.237 368.07 124.874 368.07 123.1C368.07 121.297 368.399 119.934 369.058 119.011C369.717 118.079 370.659 117.613 371.885 117.613C373.121 117.613 374.064 118.079 374.712 119.011C375.371 119.934 375.7 121.291 375.7 123.085C375.7 124.869 375.371 126.237 374.712 127.189C374.054 128.131 373.111 128.603 371.885 128.603ZM371.885 127.402C372.696 127.402 373.299 127.052 373.694 126.353C374.099 125.654 374.302 124.565 374.302 123.085C374.302 121.606 374.099 120.526 373.694 119.847C373.299 119.158 372.696 118.814 371.885 118.814C371.085 118.814 370.482 119.158 370.076 119.847C369.671 120.526 369.468 121.606 369.468 123.085C369.468 124.565 369.671 125.654 370.076 126.353C370.482 127.052 371.085 127.402 371.885 127.402ZM378.05 128.466L383.325 118.388V118.966H377.397V117.75H384.617V118.799L379.616 128.466H378.05Z" fill="#3E4543"/>
<path d="M314.888 81.7354C313.662 81.7354 312.72 81.2642 312.061 80.3219C311.402 79.3693 311.073 78.0064 311.073 76.2331C311.073 74.4293 311.402 73.0664 312.061 72.1443C312.72 71.212 313.662 70.7459 314.888 70.7459C316.124 70.7459 317.067 71.212 317.715 72.1443C318.374 73.0664 318.703 74.4243 318.703 76.2179C318.703 78.0013 318.374 79.3693 317.715 80.3219C317.057 81.2642 316.114 81.7354 314.888 81.7354ZM314.888 80.5347C315.699 80.5347 316.302 80.1851 316.697 79.4859C317.102 78.7867 317.305 77.6973 317.305 76.2179C317.305 74.7384 317.102 73.6592 316.697 72.9803C316.302 72.2912 315.699 71.9467 314.888 71.9467C314.088 71.9467 313.485 72.2912 313.079 72.9803C312.674 73.6592 312.471 74.7384 312.471 76.2179C312.471 77.6973 312.674 78.7867 313.079 79.4859C313.485 80.1851 314.088 80.5347 314.888 80.5347ZM324.352 81.7354C323.045 81.7354 322.036 81.2744 321.327 80.3523C320.618 79.4301 320.263 78.1432 320.263 76.4915C320.263 75.2552 320.44 74.2115 320.795 73.3603C321.16 72.5091 321.677 71.8605 322.345 71.4147C323.014 70.9688 323.815 70.7459 324.747 70.7459C325.314 70.7459 325.882 70.8573 326.449 71.0803C327.017 71.3032 327.488 71.6123 327.863 72.0075L327.346 73.1019C326.971 72.7168 326.556 72.4331 326.1 72.2507C325.654 72.0581 325.198 71.9619 324.732 71.9619C323.729 71.9619 322.958 72.3216 322.421 73.0411C321.894 73.7504 321.631 74.8093 321.631 76.2179V77.5707H321.479C321.55 77.0032 321.722 76.5168 321.996 76.1115C322.279 75.7061 322.639 75.392 323.075 75.1691C323.521 74.9461 324.022 74.8347 324.58 74.8347C325.218 74.8347 325.786 74.9816 326.282 75.2755C326.779 75.5693 327.169 75.9696 327.453 76.4763C327.736 76.9829 327.878 77.5707 327.878 78.2395C327.878 78.9083 327.726 79.5112 327.422 80.0483C327.118 80.5752 326.703 80.9906 326.176 81.2946C325.649 81.5885 325.041 81.7354 324.352 81.7354ZM324.276 80.5651C324.722 80.5651 325.112 80.4688 325.446 80.2763C325.791 80.0837 326.054 79.8152 326.237 79.4707C326.429 79.1261 326.525 78.7309 326.525 78.2851C326.525 77.8392 326.429 77.444 326.237 77.0995C326.054 76.7549 325.791 76.4864 325.446 76.2939C325.112 76.1013 324.722 76.0051 324.276 76.0051C323.83 76.0051 323.435 76.1013 323.09 76.2939C322.756 76.4864 322.492 76.7549 322.3 77.0995C322.107 77.444 322.011 77.8392 322.011 78.2851C322.011 78.7309 322.107 79.1261 322.3 79.4707C322.492 79.8152 322.756 80.0837 323.09 80.2763C323.435 80.4688 323.83 80.5651 324.276 80.5651Z" fill="#3E4543"/>
<path d="M402.284 194.469C401.057 194.469 400.115 193.998 399.456 193.055C398.798 192.103 398.468 190.74 398.468 188.966C398.468 187.163 398.798 185.8 399.456 184.878C400.115 183.945 401.057 183.479 402.284 183.479C403.52 183.479 404.462 183.945 405.111 184.878C405.769 185.8 406.099 187.158 406.099 188.951C406.099 190.735 405.769 192.103 405.111 193.055C404.452 193.998 403.51 194.469 402.284 194.469ZM402.284 193.268C403.094 193.268 403.697 192.918 404.092 192.219C404.498 191.52 404.7 190.431 404.7 188.951C404.7 187.472 404.498 186.393 404.092 185.714C403.697 185.025 403.094 184.68 402.284 184.68C401.483 184.68 400.88 185.025 400.475 185.714C400.069 186.393 399.867 187.472 399.867 188.951C399.867 190.431 400.069 191.52 400.475 192.219C400.88 192.918 401.483 193.268 402.284 193.268ZM411.398 194.469C410.161 194.469 409.204 194.205 408.525 193.678C407.846 193.152 407.506 192.417 407.506 191.474C407.506 190.735 407.734 190.122 408.19 189.635C408.657 189.139 409.259 188.84 409.999 188.738V188.982C409.32 188.84 408.778 188.531 408.373 188.054C407.978 187.578 407.78 187.006 407.78 186.337C407.78 185.445 408.099 184.746 408.738 184.239C409.386 183.733 410.273 183.479 411.398 183.479C412.533 183.479 413.419 183.733 414.058 184.239C414.706 184.746 415.03 185.445 415.03 186.337C415.03 187.006 414.838 187.583 414.453 188.07C414.078 188.556 413.556 188.86 412.887 188.982V188.738C413.627 188.84 414.21 189.139 414.635 189.635C415.071 190.122 415.289 190.735 415.289 191.474C415.289 192.417 414.949 193.152 414.27 193.678C413.602 194.205 412.644 194.469 411.398 194.469ZM411.398 193.329C412.259 193.329 412.897 193.167 413.313 192.842C413.738 192.518 413.951 192.037 413.951 191.398C413.951 190.75 413.738 190.269 413.313 189.954C412.897 189.64 412.259 189.483 411.398 189.483C410.546 189.483 409.908 189.64 409.482 189.954C409.057 190.269 408.844 190.75 408.844 191.398C408.844 192.037 409.057 192.518 409.482 192.842C409.908 193.167 410.546 193.329 411.398 193.329ZM411.398 188.328C412.137 188.328 412.7 188.166 413.085 187.842C413.48 187.507 413.678 187.046 413.678 186.458C413.678 185.881 413.48 185.43 413.085 185.106C412.7 184.781 412.137 184.619 411.398 184.619C410.668 184.619 410.106 184.781 409.71 185.106C409.315 185.43 409.118 185.881 409.118 186.458C409.118 187.046 409.315 187.507 409.71 187.842C410.106 188.166 410.668 188.328 411.398 188.328Z" fill="#3E4543"/>
<path d="M406.087 273.002C404.861 273.002 403.919 272.531 403.26 271.588C402.601 270.636 402.272 269.273 402.272 267.5C402.272 265.696 402.601 264.333 403.26 263.411C403.919 262.479 404.861 262.012 406.087 262.012C407.324 262.012 408.266 262.479 408.914 263.411C409.573 264.333 409.902 265.691 409.902 267.484C409.902 269.268 409.573 270.636 408.914 271.588C408.256 272.531 407.313 273.002 406.087 273.002ZM406.087 271.801C406.898 271.801 407.501 271.452 407.896 270.752C408.301 270.053 408.504 268.964 408.504 267.484C408.504 266.005 408.301 264.926 407.896 264.247C407.501 263.558 406.898 263.213 406.087 263.213C405.287 263.213 404.684 263.558 404.279 264.247C403.873 264.926 403.671 266.005 403.671 267.484C403.671 268.964 403.873 270.053 404.279 270.752C404.684 271.452 405.287 271.801 406.087 271.801ZM414.472 273.002C413.904 273.002 413.337 272.886 412.769 272.652C412.202 272.419 411.731 272.11 411.356 271.725L411.873 270.646C412.247 271.021 412.658 271.305 413.104 271.497C413.56 271.69 414.021 271.786 414.487 271.786C415.48 271.786 416.245 271.431 416.782 270.722C417.319 270.003 417.588 268.939 417.588 267.53V266.177H417.74C417.679 266.735 417.502 267.221 417.208 267.636C416.924 268.042 416.564 268.356 416.129 268.579C415.693 268.802 415.196 268.913 414.639 268.913C414.001 268.913 413.433 268.766 412.937 268.472C412.44 268.179 412.05 267.778 411.766 267.272C411.482 266.755 411.341 266.167 411.341 265.508C411.341 264.83 411.487 264.227 411.781 263.7C412.085 263.173 412.501 262.762 413.028 262.468C413.555 262.164 414.163 262.012 414.852 262.012C416.169 262.012 417.182 262.474 417.892 263.396C418.601 264.308 418.956 265.595 418.956 267.256C418.956 268.483 418.773 269.526 418.409 270.388C418.054 271.239 417.542 271.887 416.873 272.333C416.205 272.779 415.404 273.002 414.472 273.002ZM414.943 267.743C415.389 267.743 415.779 267.647 416.113 267.454C416.458 267.262 416.726 266.993 416.919 266.648C417.111 266.304 417.208 265.909 417.208 265.463C417.208 265.007 417.111 264.612 416.919 264.277C416.726 263.933 416.458 263.664 416.113 263.472C415.779 263.269 415.389 263.168 414.943 263.168C414.497 263.168 414.102 263.269 413.757 263.472C413.423 263.664 413.159 263.933 412.967 264.277C412.785 264.612 412.693 265.007 412.693 265.463C412.693 265.909 412.785 266.304 412.967 266.648C413.159 266.993 413.423 267.262 413.757 267.454C414.102 267.647 414.497 267.743 414.943 267.743Z" fill="#3E4543"/>
<path d="M370.476 341.266V340.065H372.984V331.75H373.698L370.704 333.605V332.222L373.379 330.55H374.397V340.065H376.753V341.266H370.476ZM382.265 341.402C381.039 341.402 380.096 340.931 379.438 339.989C378.779 339.036 378.45 337.673 378.45 335.9C378.45 334.096 378.779 332.733 379.438 331.811C380.096 330.879 381.039 330.413 382.265 330.413C383.501 330.413 384.443 330.879 385.092 331.811C385.751 332.733 386.08 334.091 386.08 335.885C386.08 337.668 385.751 339.036 385.092 339.989C384.433 340.931 383.491 341.402 382.265 341.402ZM382.265 340.202C383.075 340.202 383.678 339.852 384.074 339.153C384.479 338.454 384.682 337.364 384.682 335.885C384.682 334.405 384.479 333.326 384.074 332.647C383.678 331.958 383.075 331.614 382.265 331.614C381.464 331.614 380.861 331.958 380.456 332.647C380.051 333.326 379.848 334.405 379.848 335.885C379.848 337.364 380.051 338.454 380.456 339.153C380.861 339.852 381.464 340.202 382.265 340.202Z" fill="#3E4543"/>
<rect x="104.788" y="347.592" width="1.9" height="17.7333" transform="rotate(47.3735 104.788 347.592)" fill="#B5E1E1"/>
<rect x="66.5058" y="273.77" width="1.9" height="17.7333" transform="rotate(75.5691 66.5058 273.77)" fill="#B5E1E1"/>
<rect x="64.9717" y="189.525" width="1.9" height="17.7333" transform="rotate(100.733 64.9717 189.525)" fill="#B5E1E1"/>
<rect x="99.3652" y="113.569" width="1.9" height="17.7333" transform="rotate(127.032 99.3652 113.569)" fill="#B5E1E1"/>
<rect x="164.044" y="60.2705" width="1.9" height="17.7333" transform="rotate(151.957 164.044 60.2705)" fill="#B5E1E1"/>
<rect x="245.728" y="40.7334" width="1.9" height="17.7333" transform="rotate(-180 245.728 40.7334)" fill="#B5E1E1"/>
<rect x="327.391" y="58.9932" width="1.9" height="17.7333" transform="rotate(-153.655 327.391 58.9932)" fill="#B5E1E1"/>
<rect x="392.568" y="111.696" width="1.9" height="17.7333" transform="rotate(-128.156 392.568 111.696)" fill="#B5E1E1"/>
<rect x="428.574" y="187.052" width="1.9" height="17.7333" transform="rotate(-103.675 428.574 187.052)" fill="#B5E1E1"/>
<rect x="428.008" y="270.55" width="1.9" height="17.7333" transform="rotate(-76.3057 428.008 270.55)" fill="#B5E1E1"/>
<rect x="390.703" y="345.656" width="1.9" height="17.7335" transform="rotate(-51.1989 390.703 345.656)" fill="#B5E1E1"/>
<circle cx="249.544" cy="220.785" r="25.8641" fill="#009D94" fill-opacity="0.2"/>
<circle cx="249.543" cy="220.783" r="19.7784" fill="url(#paint0_linear_103_124)"/>
<circle cx="249.543" cy="220.784" r="6.84639" fill="#282828" stroke="white" stroke-width="1.52142"/>
<g filter="url(#filter0_d_103_124)">
<path d="M150.757 319.573C131.82 300.636 118.924 276.509 113.699 250.243C108.475 223.976 111.156 196.751 121.405 172.008C131.653 147.266 149.009 126.119 171.276 111.24C193.544 96.3614 219.723 88.4199 246.504 88.4199C273.285 88.4199 299.464 96.3614 321.732 111.24C343.999 126.119 361.354 147.266 371.603 172.008C381.852 196.751 384.533 223.976 379.308 250.243C374.084 276.509 361.188 300.636 342.251 319.573" stroke="#DD7070" stroke-width="3.04284" stroke-linecap="round" stroke-linejoin="round"/>
<path d="M148.373 130.257C148.373 130.257 159.784 112.903 190.973 99.068C209.709 90.7568 221.87 88.4901 242.366 88.4181C262.767 88.3464 277.358 91.8811 293.602 98.6095M366.06 171.067C372.788 187.311 376.251 204.721 376.251 222.303C376.251 239.885 372.788 257.295 366.06 273.538C359.332 289.782 349.47 304.541 337.037 316.974" stroke="#FFC702" stroke-width="6.08567" stroke-linecap="round"/>
<path d="M281.188 94.4492C303.631 100.463 324.096 112.278 340.525 128.707C356.955 145.137 368.77 165.601 374.784 188.044" stroke="#2A94D4" stroke-width="9.12851" stroke-linecap="round"/>
<path d="M361.759 156.883C376.16 181.827 381.929 210.826 378.169 239.382C374.41 267.939 359.674 296.265 339.308 316.632" stroke="#43DF9D" stroke-width="12.1713" stroke-linecap="round"/>
</g>
<g filter="url(#filter1_d_103_124)">
<path d="M317.675 102.551L253.799 219.969L247.926 216.579L317.675 102.551Z" fill="#282828"/>
</g>
<defs>
<filter id="filter0_d_103_124" x="94.362" y="73.2028" width="306.226" height="267.772" filterUnits="userSpaceOnUse" color-interpolation-filters="sRGB">
<feFlood flood-opacity="0" result="BackgroundImageFix"/>
<feColorMatrix in="SourceAlpha" type="matrix" values="0 0 0 0 0 0 0 0 0 0 0 0 0 0 0 0 0 0 127 0" result="hardAlpha"/>
<feOffset dy="3.04284"/>
<feGaussianBlur stdDeviation="7.60709"/>
<feComposite in2="hardAlpha" operator="out"/>
<feColorMatrix type="matrix" values="0 0 0 0 0 0 0 0 0 0 0 0 0 0 0 0 0 0 0.05 0"/>
<feBlend mode="normal" in2="BackgroundImageFix" result="effect1_dropShadow_103_124"/>
<feBlend mode="normal" in="SourceGraphic" in2="effect1_dropShadow_103_124" result="shape"/>
</filter>
<filter id="filter1_d_103_124" x="241.841" y="102.551" width="81.9201" height="129.589" filterUnits="userSpaceOnUse" color-interpolation-filters="sRGB">
<feFlood flood-opacity="0" result="BackgroundImageFix"/>
<feColorMatrix in="SourceAlpha" type="matrix" values="0 0 0 0 0 0 0 0 0 0 0 0 0 0 0 0 0 0 127 0" result="hardAlpha"/>
<feOffset dy="6.08567"/>
<feGaussianBlur stdDeviation="3.04284"/>
<feComposite in2="hardAlpha" operator="out"/>
<feColorMatrix type="matrix" values="0 0 0 0 0 0 0 0 0 0 0 0 0 0 0 0 0 0 0.25 0"/>
<feBlend mode="normal" in2="BackgroundImageFix" result="effect1_dropShadow_103_124"/>
<feBlend mode="normal" in="SourceGraphic" in2="effect1_dropShadow_103_124" result="shape"/>
</filter>
<linearGradient id="paint0_linear_103_124" x1="249.543" y1="201.005" x2="249.543" y2="240.562" gradientUnits="userSpaceOnUse">
<stop stop-color="#006180"/>
<stop offset="0.505208" stop-color="#00ADA3"/>
<stop offset="1" stop-color="#46DCD3"/>
</linearGradient>
</defs>
</svg>
