<svg width="20" height="20" viewBox="0 0 20 20" fill="none" xmlns="http://www.w3.org/2000/svg">
<path fill-rule="evenodd" clip-rule="evenodd" d="M12.7072 14.7064C12.8947 14.5189 13 14.2646 13 13.9994C13 13.7343 12.8947 13.48 12.7072 13.2924L9.41421 9.99943L12.7072 6.70643C12.8894 6.51783 12.9902 6.26523 12.9879 6.00303C12.9856 5.74083 12.8804 5.49002 12.695 5.30461C12.5096 5.1192 12.2588 5.01403 11.9966 5.01176C11.7344 5.00948 11.4818 5.11027 11.2932 5.29243L7.29321 9.29243C7.10574 9.47996 7.00043 9.73427 7.00043 9.99943C7.00043 10.2646 7.10574 10.5189 7.29321 10.7064L11.2932 14.7064C11.4807 14.8939 11.735 14.9992 12.0002 14.9992C12.2654 14.9992 12.5197 14.8939 12.7072 14.7064Z" fill="#6F727A"/>
</svg>
