<svg width="30" height="30" viewBox="0 0 30 30" fill="none" xmlns="http://www.w3.org/2000/svg">
<path d="M29.9969 14.9633C29.9969 23.2274 23.2977 29.9268 15.0337 29.9268C6.7696 29.9268 0.0703125 23.2274 0.0703125 14.9633C0.0703125 6.69929 6.7696 0 15.0337 0C23.2976 0 29.9969 6.69929 29.9969 14.9633" fill="#ECEFF0"/>
<g opacity="0.8">
<path d="M14.9909 8.01953L14.8984 8.33367V17.4493L14.9909 17.5415L19.2222 15.0404L14.9909 8.01953Z" fill="#2F3030"/>
<path d="M14.9892 8.01953L10.7578 15.0404L14.9892 17.5416V13.1171V8.01953Z" fill="#828384"/>
<path d="M14.9896 18.9179L14.9375 18.9814V22.2285L14.9896 22.3806L19.2235 16.418L14.9896 18.9179Z" fill="#2F3030"/>
<path d="M14.9892 22.3807V18.9179L10.7578 16.418L14.9892 22.3807Z" fill="#828384"/>
<path d="M14.9883 17.5416L19.2196 15.0405L14.9883 13.1172V17.5416Z" fill="#131313"/>
<path d="M10.7578 15.0405L14.9891 17.5416V13.1172L10.7578 15.0405Z" fill="#343535"/>
</g>
</svg>
