<svg width="307" height="228" viewBox="0 0 307 228" fill="none" xmlns="http://www.w3.org/2000/svg">
<path d="M89.0436 36.9681C89.0436 36.9681 123.716 63.28 176.428 14.0815C223.241 -29.6105 261.464 39.3257 261.732 72.338C262.078 115.102 214.919 149.32 237.805 177.408C260.692 205.495 192.418 251.878 155.622 211.737C109.849 161.803 97.4489 202.374 71.3586 202.374C52.6333 202.374 14.1884 155.847 40.1498 121.232C61.996 92.1035 50.0815 82.4364 44.3117 72.338C35.9887 57.7739 55.7543 18.2429 89.0436 36.9681Z" fill="#BEBEBE" fill-opacity="0.15"/>
<path d="M228.245 95.027C230.108 95.7195 232.145 95.7655 234.083 95.3208C242.202 93.4573 270.118 88.5232 265.267 110.155C264.21 114.447 247.861 138.483 271.144 147.257C272.85 147.908 274.655 148.264 276.481 148.308C283.649 148.456 297.856 146.763 303.801 140.711C310.983 133.4 303.137 136.867 303.137 136.867C303.137 136.867 275.831 148.782 266.187 136.141C265.113 134.734 264.43 132.691 264.234 130.932C263.895 127.883 265.249 123.854 267.027 120.346C269.434 115.598 280.992 94.2422 255.899 88.0209C250.119 86.6443 241.724 85.4078 230.898 89.9655C224.584 92.6238 225.983 94.1864 228.245 95.027Z" fill="#717171"/>
<path d="M233.832 87.0525L226.564 89.7725C224.055 90.7115 222.783 93.5064 223.722 96.0153L224.082 96.9778C225.021 99.4866 227.816 100.759 230.325 99.8203L237.592 97.1003C240.101 96.1613 241.374 93.3664 240.435 90.8575L240.075 89.895C239.136 87.3862 236.341 86.1135 233.832 87.0525Z" fill="#969696"/>
<path d="M189.22 94.9255L165.252 103.896C163.997 104.366 163.361 105.763 163.831 107.017L163.925 107.27C164.394 108.524 165.792 109.16 167.046 108.691L191.015 99.7204C192.269 99.2509 192.906 97.8534 192.436 96.599L192.342 96.3467C191.872 95.0923 190.475 94.456 189.22 94.9255Z" fill="#363636"/>
<path d="M195.91 112.798L171.941 121.769C170.687 122.239 170.051 123.636 170.52 124.89L170.614 125.143C171.084 126.397 172.481 127.033 173.736 126.564L197.704 117.593C198.959 117.124 199.595 115.726 199.126 114.472L199.031 114.22C198.562 112.965 197.164 112.329 195.91 112.798Z" fill="#363636"/>
<path d="M218.039 82.7267L198.613 89.9971C196.104 90.9361 194.831 93.7311 195.77 96.2399L202.403 113.961C203.342 116.47 206.137 117.742 208.646 116.804L228.072 109.533C230.581 108.594 231.853 105.799 230.914 103.29L224.282 85.5692C223.343 83.0604 220.548 81.7877 218.039 82.7267Z" fill="#2F2F2F"/>
<path d="M200.621 87.3771L181.195 94.6475C178.686 95.5865 177.414 98.3815 178.352 100.89L186.265 122.032C187.204 124.541 189.999 125.814 192.508 124.875L211.934 117.604C214.443 116.665 215.715 113.87 214.776 111.362L206.864 90.2196C205.925 87.7107 203.13 86.4381 200.621 87.3771Z" fill="#DFDFDF"/>
<path d="M203.661 83.085L203.509 83.142C201.836 83.7679 200.988 85.6313 201.614 87.3038L212.699 116.922C213.325 118.594 215.188 119.443 216.861 118.817L217.013 118.76C218.685 118.134 219.534 116.27 218.908 114.598L207.823 84.9799C207.197 83.3074 205.334 82.459 203.661 83.085Z" fill="#707070"/>
<path d="M5.57879 102.022C5.57879 102.022 44.593 91.0582 38.9288 116.318C37.9451 120.315 23.7855 140.895 40.6518 150.776C44.2733 152.898 48.4527 153.837 52.6497 153.815C60.1747 153.776 72.1041 152.328 77.4632 146.873C84.6456 139.562 76.7991 143.029 76.7991 143.029C76.7991 143.029 54.3926 152.246 42.8653 144.899C38.9292 142.39 37.1451 137.533 38.214 132.989C38.7603 130.732 39.5922 128.554 40.6896 126.508C43.1966 121.813 54.654 100.404 29.5616 94.183C23.7813 92.8064 15.3859 91.5699 4.56071 96.1276C-6.26444 100.685 5.57879 102.022 5.57879 102.022Z" fill="#717171"/>
<path d="M82.7088 137.377L75.441 140.097C72.9322 141.036 71.6596 143.831 72.5986 146.34L72.9588 147.302C73.8978 149.811 76.6928 151.084 79.2016 150.145L86.4693 147.425C88.9781 146.486 90.2507 143.691 89.3118 141.182L88.9515 140.219C88.0125 137.71 85.2176 136.438 82.7088 137.377Z" fill="#969696"/>
<path d="M94.9876 125.419L84.2164 129.45C81.7076 130.389 80.435 133.184 81.374 135.693L86.5677 149.57C87.5067 152.079 90.3017 153.352 92.8105 152.413L103.582 148.382C106.09 147.443 107.363 144.648 106.424 142.139L101.23 128.261C100.291 125.753 97.4964 124.48 94.9876 125.419Z" fill="#2F2F2F"/>
<path d="M112.922 114.733L96.859 120.745C94.3502 121.684 93.0776 124.479 94.0165 126.988L101.929 148.13C102.868 150.639 105.663 151.911 108.172 150.973L124.235 144.961C126.744 144.022 128.016 141.227 127.077 138.718L119.165 117.576C118.226 115.067 115.431 113.794 112.922 114.733Z" fill="#DFDFDF"/>
<path d="M116.321 110.356L116.169 110.413C114.496 111.039 113.648 112.903 114.274 114.575L125.359 144.193C125.985 145.866 127.848 146.714 129.521 146.088L129.673 146.031C131.346 145.405 132.194 143.542 131.568 141.869L120.483 112.251C119.857 110.579 117.994 109.73 116.321 110.356Z" fill="#707070"/>
<path d="M157.337 91.4868C156.759 91.4226 156.228 91.1365 155.856 90.6887C155.484 90.2409 155.301 89.6663 155.344 89.0859L156.543 67.1947C156.614 65.8871 157.718 64.8936 158.972 65.0092L160.718 65.1708C161.971 65.2864 162.868 66.4643 162.693 67.7627L159.748 89.4922C159.68 90.071 159.392 90.6014 158.943 90.973C158.494 91.3445 157.919 91.5286 157.337 91.4868V91.4868Z" fill="#009D94"/>
<path d="M146.989 93.3749C146.809 93.4277 146.621 93.4447 146.434 93.4246C146.248 93.4046 146.067 93.3481 145.903 93.2582C145.738 93.1684 145.593 93.0469 145.475 92.9009C145.357 92.7549 145.27 92.5872 145.217 92.4072L140.937 78.7898C140.812 78.4025 140.847 77.9817 141.032 77.6196C141.218 77.2575 141.539 76.9838 141.926 76.8585L143.034 76.5242C143.224 76.4687 143.424 76.4532 143.62 76.4787C143.817 76.5043 144.006 76.5702 144.175 76.6725C144.345 76.7747 144.492 76.911 144.606 77.0728C144.72 77.2345 144.8 77.4182 144.839 77.6123L148.012 91.5643C148.1 91.9393 148.044 92.3339 147.854 92.6694C147.665 93.0049 147.356 93.2568 146.989 93.3749V93.3749Z" fill="#5AD7C8"/>
<path d="M141.214 101.226C140.447 102.177 138.904 102.165 137.717 101.201L116.639 84.0755C115.38 83.0525 115.009 81.3593 115.822 80.352L116.956 78.9474C117.77 77.9397 119.441 78.0223 120.632 79.1291L140.576 97.6591C141.699 98.7026 141.98 100.276 141.214 101.226Z" fill="#009D94"/>
<path d="M150.96 145.459C151.502 145.668 151.943 146.081 152.188 146.608C152.433 147.136 152.464 147.739 152.274 148.289L145.524 169.147C145.121 170.393 143.8 171.071 142.617 170.64L140.97 170.038C139.788 169.606 139.22 168.238 139.722 167.028L148.119 146.771C148.332 146.229 148.747 145.789 149.276 145.545C149.805 145.3 150.408 145.269 150.96 145.459V145.459Z" fill="#009D94"/>
<path d="M161.445 146.278C161.633 146.273 161.819 146.305 161.995 146.371C162.17 146.438 162.33 146.539 162.466 146.668C162.602 146.797 162.712 146.952 162.788 147.123C162.865 147.294 162.907 147.479 162.912 147.666L163.572 161.925C163.594 162.331 163.453 162.729 163.181 163.032C162.91 163.335 162.529 163.517 162.123 163.54L160.966 163.58C160.768 163.585 160.571 163.549 160.387 163.474C160.204 163.399 160.038 163.287 159.9 163.145C159.762 163.003 159.656 162.834 159.586 162.648C159.517 162.463 159.487 162.265 159.498 162.067L159.995 147.768C160.006 147.382 160.16 147.015 160.429 146.739C160.698 146.463 161.061 146.299 161.445 146.278V146.278Z" fill="#5AD7C8"/>
<path d="M169.036 140.161C170.021 139.438 171.509 139.843 172.41 141.078L188.416 163.018C189.372 164.329 189.299 166.06 188.254 166.827L186.799 167.895C185.755 168.662 184.161 168.155 183.291 166.781L168.74 143.772C167.922 142.477 168.052 140.883 169.036 140.161Z" fill="#009D94"/>
</svg>
