<svg width="16" height="16" viewBox="0 0 16 16" fill="none" xmlns="http://www.w3.org/2000/svg">
<path d="M4.16572 7.31582H11.8349C12.4074 7.31582 12.7116 6.61761 12.3311 6.17609L8.49679 1.73013C8.4346 1.65778 8.35821 1.59985 8.27269 1.56018C8.18716 1.52051 8.09444 1.5 8.00065 1.5C7.90687 1.5 7.81415 1.52051 7.72862 1.56018C7.6431 1.59985 7.56671 1.65778 7.50452 1.73013L3.66892 6.17609C3.28835 6.61761 3.59254 7.31582 4.16572 7.31582ZM7.50385 14.2699C7.56605 14.3422 7.64243 14.4001 7.72796 14.4398C7.81348 14.4795 7.9062 14.5 7.99999 14.5C8.09378 14.5 8.1865 14.4795 8.27202 14.4398C8.35755 14.4001 8.43393 14.3422 8.49613 14.2699L12.3304 9.82391C12.7116 9.38308 12.4074 8.68486 11.8343 8.68486H4.16572C3.59321 8.68486 3.28902 9.38308 3.66959 9.82459L7.50385 14.2699Z" fill="black"/>
</svg>
