<svg width="24" height="24" viewBox="0 0 24 24" fill="none" xmlns="http://www.w3.org/2000/svg">
<path d="M17.1569 16.1987C17.1569 15.7321 17.1337 15.2943 17.0874 14.885C17.0412 14.4758 16.9528 14.0645 16.8224 13.6512C16.692 13.2379 16.5258 12.886 16.3239 12.5954C16.122 12.3049 15.8528 12.0675 15.5162 11.8834C15.1797 11.6992 14.7969 11.6071 14.3678 11.6071C14.3173 11.6399 14.1764 11.7238 13.945 11.8588C13.7136 11.9939 13.5349 12.0941 13.4087 12.1596C13.2825 12.2251 13.1121 12.3069 12.8975 12.4051C12.683 12.5033 12.4769 12.5729 12.2791 12.6138C12.0814 12.6548 11.8858 12.6752 11.6923 12.6752C11.4988 12.6752 11.3032 12.6548 11.1055 12.6138C10.9078 12.5729 10.7016 12.5033 10.4871 12.4051C10.2725 12.3069 10.1022 12.2251 9.97596 12.1596C9.84976 12.0941 9.67097 11.9939 9.4396 11.8588C9.20823 11.7238 9.06731 11.6399 9.01683 11.6071C8.58774 11.6071 8.20493 11.6992 7.86839 11.8834C7.53185 12.0675 7.26262 12.3049 7.0607 12.5954C6.85877 12.886 6.69261 13.2379 6.5622 13.6512C6.43179 14.0645 6.34345 14.4758 6.29718 14.885C6.2509 15.2943 6.22776 15.7321 6.22776 16.1987C6.22776 16.7961 6.40445 17.2933 6.75781 17.6903C7.11118 18.0872 7.54447 18.2857 8.05769 18.2857H15.3269C15.8401 18.2857 16.2734 18.0872 16.6268 17.6903C16.9802 17.2933 17.1569 16.7961 17.1569 16.1987ZM14.9736 8.90625C14.9736 8.02232 14.6517 7.26935 14.0081 6.64732C13.3645 6.0253 12.5925 5.71429 11.6923 5.71429C10.7921 5.71429 10.0201 6.0253 9.3765 6.64732C8.73287 7.26935 8.41106 8.02232 8.41106 8.90625C8.41106 9.78199 8.73287 10.5309 9.3765 11.1529C10.0201 11.7749 10.7921 12.0859 11.6923 12.0859C12.5925 12.0859 13.3645 11.7749 14.0081 11.1529C14.6517 10.5309 14.9736 9.78199 14.9736 8.90625ZM23 15.5357V17.8929C23 18.0074 22.9621 18.1016 22.8864 18.1752C22.8107 18.2489 22.7139 18.2857 22.5962 18.2857H21.3846V21.0357C21.3846 21.5759 21.1869 22.0383 20.7915 22.423C20.396 22.8077 19.9207 23 19.3654 23H4.01923C3.46394 23 2.98858 22.8077 2.59315 22.423C2.19772 22.0383 2 21.5759 2 21.0357V2.96429C2 2.42411 2.19772 1.96168 2.59315 1.57701C2.98858 1.19234 3.46394 1 4.01923 1H19.3654C19.9207 1 20.396 1.19234 20.7915 1.57701C21.1869 1.96168 21.3846 2.42411 21.3846 2.96429V5.71429H22.5962C22.7139 5.71429 22.8107 5.75112 22.8864 5.82478C22.9621 5.89844 23 5.99256 23 6.10714V8.46429C23 8.57887 22.9621 8.67299 22.8864 8.74665C22.8107 8.82031 22.7139 8.85714 22.5962 8.85714H21.3846V10.4286H22.5962C22.7139 10.4286 22.8107 10.4654 22.8864 10.5391C22.9621 10.6127 23 10.7068 23 10.8214V13.1786C23 13.2932 22.9621 13.3873 22.8864 13.4609C22.8107 13.5346 22.7139 13.5714 22.5962 13.5714H21.3846V15.1429H22.5962C22.7139 15.1429 22.8107 15.1797 22.8864 15.2533C22.9621 15.327 23 15.4211 23 15.5357Z" fill="#D6D6D6"/>
</svg>
