<svg width="24" height="24" viewBox="0 0 24 24" fill="none" xmlns="http://www.w3.org/2000/svg">
<path d="M23.1429 3H0.857143C0.383036 3 0 3.36562 0 3.81818V7.90909H24V3.81818C24 3.36562 23.617 3 23.1429 3ZM0 20.1818C0 20.6344 0.383036 21 0.857143 21H23.1429C23.617 21 24 20.6344 24 20.1818V10.1591H0V20.1818ZM15.5089 15.4773C15.5089 15.3648 15.6054 15.2727 15.7232 15.2727H20.1429C20.2607 15.2727 20.3571 15.3648 20.3571 15.4773V17.3182C20.3571 17.4307 20.2607 17.5227 20.1429 17.5227H15.7232C15.6054 17.5227 15.5089 17.4307 15.5089 17.3182V15.4773Z" fill="#787878"/>
</svg>
