<svg width="32" height="32" viewBox="0 0 32 32" fill="none" xmlns="http://www.w3.org/2000/svg">
<path d="M16.9492 8.52734H15.1094V5H16.9492V8.52734ZM16.7148 27.2891H14.8867V24.1484H16.7148V27.2891ZM18.4023 20.3516C18.4023 19.9062 18.3125 19.5156 18.1328 19.1797C17.9531 18.8438 17.6602 18.543 17.2539 18.2773C16.8555 18.0039 16.3125 17.75 15.625 17.5156C14.625 17.1562 13.75 16.7578 13 16.3203C12.2578 15.875 11.6797 15.3242 11.2656 14.668C10.8594 14.0117 10.6562 13.1953 10.6562 12.2188C10.6562 11.25 10.875 10.4141 11.3125 9.71094C11.75 9 12.3672 8.45312 13.1641 8.07031C13.9609 7.6875 14.8867 7.49609 15.9414 7.49609C17.0273 7.49609 17.9648 7.71094 18.7539 8.14062C19.5508 8.57031 20.1641 9.19531 20.5938 10.0156C21.0312 10.8359 21.25 11.832 21.25 13.0039H18.3555C18.3555 12.0273 18.1367 11.2617 17.6992 10.707C17.2695 10.1523 16.6758 9.875 15.918 9.875C15.3789 9.875 14.9336 9.97656 14.582 10.1797C14.2305 10.3828 13.9727 10.6602 13.8086 11.0117C13.6445 11.3555 13.5625 11.7539 13.5625 12.207C13.5625 12.6367 13.6484 13.0156 13.8203 13.3438C13.9922 13.6641 14.2812 13.957 14.6875 14.2227C15.1016 14.4883 15.668 14.7539 16.3867 15.0195C17.3945 15.3867 18.2656 15.793 19 16.2383C19.7422 16.6836 20.3125 17.2344 20.7109 17.8906C21.1172 18.5391 21.3203 19.3516 21.3203 20.3281C21.3203 21.3359 21.0859 22.1914 20.6172 22.8945C20.1562 23.5977 19.5078 24.1328 18.6719 24.5C17.8438 24.8672 16.8711 25.0508 15.7539 25.0508C15.0586 25.0508 14.3672 24.957 13.6797 24.7695C13 24.582 12.3828 24.2773 11.8281 23.8555C11.2734 23.4336 10.8281 22.875 10.4922 22.1797C10.1641 21.4766 10 20.6094 10 19.5781H12.9062C12.9062 20.1797 12.9883 20.6797 13.1523 21.0781C13.3164 21.4766 13.5352 21.793 13.8086 22.0273C14.0898 22.2539 14.3984 22.418 14.7344 22.5195C15.0703 22.6211 15.4102 22.6719 15.7539 22.6719C16.332 22.6719 16.8164 22.5742 17.207 22.3789C17.5977 22.1836 17.8945 21.9102 18.0977 21.5586C18.3008 21.207 18.4023 20.8047 18.4023 20.3516Z" fill="#D6D6D6"/>
</svg>
