<svg width="12" height="12" viewBox="0 0 12 12" fill="none" xmlns="http://www.w3.org/2000/svg">
<path d="M2.59175 5.42108H9.40882C9.91772 5.42108 10.1881 4.83029 9.84983 4.45669L6.44159 0.694724C6.38631 0.633504 6.31841 0.584491 6.24239 0.550924C6.16637 0.517357 6.08395 0.5 6.00058 0.5C5.91722 0.5 5.8348 0.517357 5.75877 0.550924C5.68275 0.584491 5.61486 0.633504 5.55957 0.694724L2.15015 4.45669C1.81187 4.83029 2.08226 5.42108 2.59175 5.42108ZM5.55898 11.3053C5.61427 11.3665 5.68216 11.4155 5.75818 11.4491C5.83421 11.4826 5.91662 11.5 5.99999 11.5C6.08336 11.5 6.16578 11.4826 6.2418 11.4491C6.31782 11.4155 6.38572 11.3665 6.441 11.3053L9.84924 7.54331C10.1881 7.17029 9.91772 6.5795 9.40823 6.5795H2.59175C2.08285 6.5795 1.81246 7.17029 2.15074 7.54389L5.55898 11.3053Z" fill="#A4A4A4"/>
</svg>
