<svg width="16" height="16" viewBox="0 0 16 16" fill="none" xmlns="http://www.w3.org/2000/svg">
<path d="M5.33268 12H12.1573L13.3327 12.9233V6H13.9993C14.1762 6 14.3457 6.07024 14.4708 6.19526C14.5958 6.32029 14.666 6.48986 14.666 6.66667V15.6667L11.696 13.3333H5.99935C5.82254 13.3333 5.65297 13.2631 5.52794 13.1381C5.40292 13.013 5.33268 12.8435 5.33268 12.6667V12ZM3.63602 10.6667L0.666016 13V2.66667C0.666016 2.48986 0.736253 2.32029 0.861278 2.19526C0.986302 2.07024 1.15587 2 1.33268 2H11.3327C11.5095 2 11.6791 2.07024 11.8041 2.19526C11.9291 2.32029 11.9993 2.48986 11.9993 2.66667V10.6667H3.63602Z" fill="#009D94"/>
</svg>
