<svg width="16" height="16" viewBox="0 0 16 16" fill="none" xmlns="http://www.w3.org/2000/svg">
<path d="M9.21293 14.6673H6.78626C6.63422 14.6673 6.48673 14.6154 6.36826 14.5201C6.2498 14.4248 6.16747 14.2918 6.13493 14.1433L5.8636 12.8873C5.50164 12.7287 5.15842 12.5304 4.84026 12.296L3.6156 12.686C3.47064 12.7322 3.31423 12.7275 3.17234 12.6725C3.03046 12.6176 2.91163 12.5158 2.8356 12.384L1.6196 10.2833C1.54436 10.1514 1.51612 9.99787 1.53949 9.84782C1.56287 9.69777 1.63647 9.5601 1.74826 9.45732L2.69826 8.59065C2.65506 8.19806 2.65506 7.80191 2.69826 7.40932L1.74826 6.54465C1.63631 6.44183 1.56261 6.30403 1.53923 6.15384C1.51585 6.00365 1.54419 5.84996 1.6196 5.71798L2.83293 3.61598C2.90896 3.48419 3.02779 3.38238 3.16968 3.32744C3.31156 3.27251 3.46797 3.26776 3.61293 3.31398L4.8376 3.70398C5.00026 3.58398 5.1696 3.47198 5.34426 3.37065C5.51293 3.27598 5.68626 3.18998 5.8636 3.11332L6.1356 1.85865C6.16798 1.71012 6.25015 1.57711 6.36849 1.48168C6.48684 1.38626 6.63424 1.33414 6.78626 1.33398H9.21293C9.36495 1.33414 9.51236 1.38626 9.6307 1.48168C9.74904 1.57711 9.83122 1.71012 9.8636 1.85865L10.1383 3.11398C10.3249 3.19665 10.5076 3.28932 10.6843 3.39265C10.8489 3.48798 11.0083 3.59265 11.1616 3.70532L12.3869 3.31532C12.5318 3.26926 12.6881 3.2741 12.8298 3.32903C12.9715 3.38395 13.0903 3.48567 13.1663 3.61732L14.3796 5.71932C14.5343 5.99065 14.4809 6.33398 14.2509 6.54532L13.3009 7.41198C13.3441 7.80458 13.3441 8.20073 13.3009 8.59332L14.2509 9.45998C14.4809 9.67198 14.5343 10.0147 14.3796 10.286L13.1663 12.388C13.0902 12.5198 12.9714 12.6216 12.8295 12.6765C12.6876 12.7315 12.5312 12.7362 12.3863 12.69L11.1616 12.3C10.8437 12.5342 10.5007 12.7323 10.1389 12.8907L9.8636 14.1433C9.83108 14.2917 9.74885 14.4246 9.63052 14.5199C9.51219 14.6152 9.36486 14.6672 9.21293 14.6673V14.6673ZM7.99693 5.33398C7.28969 5.33398 6.61141 5.61494 6.11131 6.11503C5.61122 6.61513 5.33026 7.29341 5.33026 8.00065C5.33026 8.7079 5.61122 9.38617 6.11131 9.88627C6.61141 10.3864 7.28969 10.6673 7.99693 10.6673C8.70417 10.6673 9.38245 10.3864 9.88255 9.88627C10.3826 9.38617 10.6636 8.7079 10.6636 8.00065C10.6636 7.29341 10.3826 6.61513 9.88255 6.11503C9.38245 5.61494 8.70417 5.33398 7.99693 5.33398V5.33398Z" fill="#009D94"/>
</svg>
