<svg width="24" height="24" viewBox="0 0 24 24" fill="none" xmlns="http://www.w3.org/2000/svg">
<path d="M19 1.17002C19 1.01574 18.9699 0.862985 18.9115 0.720544C18.8531 0.578102 18.7675 0.448788 18.6597 0.340045C18.5518 0.231302 18.4238 0.145278 18.2831 0.0869229C18.1423 0.028568 17.9916 -0.00096493 17.8396 2.40407e-05H3.16043C3.00839 -0.00096493 2.85766 0.028568 2.71691 0.0869229C2.57617 0.145278 2.44818 0.231302 2.34033 0.340045C2.23247 0.448788 2.14688 0.578102 2.08847 0.720544C2.03006 0.862985 2 1.01574 2 1.17002V19.83C2 19.9843 2.03006 20.137 2.08847 20.2795C2.14688 20.4219 2.23247 20.5512 2.34033 20.66C2.44818 20.7687 2.57617 20.8547 2.71691 20.9131C2.85766 20.9714 3.00839 21.001 3.16043 21H3.54478V1.55252H19V1.17002Z" fill="#D6D6D6"/>
<path d="M20.8913 3H6.1087C5.49638 3 5 3.50368 5 4.125V22.875C5 23.4963 5.49638 24 6.1087 24H20.8913C21.5036 24 22 23.4963 22 22.875V4.125C22 3.50368 21.5036 3 20.8913 3Z" fill="#D6D6D6"/>
</svg>
