<svg width="16" height="16" viewBox="0 0 16 16" fill="none" xmlns="http://www.w3.org/2000/svg">
<path d="M8.00065 1.33398C4.32465 1.33398 1.33398 4.32465 1.33398 8.00065V10.7627C1.33398 11.4453 1.93198 12.0007 2.66732 12.0007H3.33398C3.5108 12.0007 3.68036 11.9304 3.80539 11.8054C3.93041 11.6804 4.00065 11.5108 4.00065 11.334V7.90532C4.00065 7.72851 3.93041 7.55894 3.80539 7.43391C3.68036 7.30889 3.5108 7.23865 3.33398 7.23865H2.72865C3.09932 4.65865 5.31932 2.66732 8.00065 2.66732C10.682 2.66732 12.902 4.65865 13.2727 7.23865H12.6673C12.4905 7.23865 12.3209 7.30889 12.1959 7.43391C12.0709 7.55894 12.0007 7.72851 12.0007 7.90532V12.0007C12.0007 12.736 11.4027 13.334 10.6673 13.334H9.33398V12.6673H6.66732V14.6673H10.6673C12.138 14.6673 13.334 13.4713 13.334 12.0007C14.0693 12.0007 14.6673 11.4453 14.6673 10.7627V8.00065C14.6673 4.32465 11.6767 1.33398 8.00065 1.33398Z" fill="#009D94"/>
</svg>
