<svg width="16" height="16" viewBox="0 0 16 16" fill="none" xmlns="http://www.w3.org/2000/svg">
<path d="M1.95495 2.075C1.91624 2.04545 1.8722 2.02396 1.82533 2.01173C1.77846 1.99951 1.72969 1.99681 1.68179 2.00377C1.6339 2.01073 1.58782 2.02723 1.54619 2.05232C1.50456 2.07741 1.46819 2.1106 1.43916 2.15C1.41013 2.18939 1.38901 2.23422 1.377 2.28192C1.36499 2.32963 1.36233 2.37927 1.36918 2.42802C1.37602 2.47677 1.39223 2.52367 1.41688 2.56604C1.44153 2.60842 1.47414 2.64543 1.51284 2.67498L2.988 3.80144C3.02671 3.83099 3.07075 3.85249 3.11762 3.86471C3.16449 3.87693 3.21326 3.87964 3.26116 3.87267C3.30905 3.86571 3.35513 3.84921 3.39676 3.82412C3.43839 3.79903 3.47476 3.76584 3.50379 3.72645C3.53282 3.68705 3.55394 3.64222 3.56595 3.59452C3.57795 3.54682 3.58061 3.49717 3.57377 3.44842C3.56693 3.39967 3.55072 3.35277 3.52607 3.3104C3.50142 3.26803 3.46881 3.23101 3.43011 3.20146L1.95495 2.075ZM1.36842 5.75138C1.27071 5.75138 1.177 5.79089 1.10791 5.86121C1.03882 5.93154 1 6.02692 1 6.12637C1 6.22582 1.03882 6.3212 1.10791 6.39153C1.177 6.46185 1.27071 6.50136 1.36842 6.50136H2.47368C2.5714 6.50136 2.6651 6.46185 2.7342 6.39153C2.80329 6.3212 2.84211 6.22582 2.84211 6.12637C2.84211 6.02692 2.80329 5.93154 2.7342 5.86121C2.6651 5.79089 2.5714 5.75138 2.47368 5.75138H1.36842ZM9.80526 12.5012C9.71998 12.9244 9.49377 13.3047 9.16485 13.5778C8.83593 13.8509 8.42447 14 8 14C7.57553 14 7.16407 13.8509 6.83515 13.5778C6.50623 13.3047 6.28002 12.9244 6.19474 12.5012H9.80526ZM7.99853 2.0015C10.3188 2.0015 12.2309 3.75195 12.4078 6.01762L12.4181 6.18412L12.4211 6.35286L12.4203 9.05728L13.1233 10.9975L13.1417 11.0605L13.1535 11.1257L13.1572 11.1917C13.1572 11.428 13.0127 11.6342 12.7725 11.7219L12.6893 11.7467L12.6045 11.7542H3.39547C3.33036 11.7542 3.26575 11.7425 3.20463 11.7197C2.99316 11.6402 2.85389 11.4407 2.84947 11.1827L2.85242 11.0942L2.87747 10.9967L3.57821 9.05953L3.57895 6.34536L3.58189 6.17737C3.67253 3.83894 5.62074 2.0015 7.99853 2.0015ZM14.5608 2.15C14.5022 2.07043 14.4149 2.01784 14.3182 2.00377C14.2215 1.98971 14.1232 2.01533 14.0451 2.075L12.5699 3.20146C12.4917 3.26114 12.44 3.34997 12.4262 3.44842C12.4124 3.54688 12.4376 3.64688 12.4962 3.72645C12.5548 3.80601 12.6421 3.85861 12.7388 3.87267C12.8356 3.88674 12.9338 3.86112 13.012 3.80144L14.4872 2.67498C14.5653 2.61531 14.617 2.52647 14.6308 2.42802C14.6446 2.32957 14.6195 2.22956 14.5608 2.15V2.15ZM15 6.12637C15 6.02692 14.9612 5.93154 14.8921 5.86121C14.823 5.79089 14.7293 5.75138 14.6316 5.75138H13.5263C13.4286 5.75138 13.3349 5.79089 13.2658 5.86121C13.1967 5.93154 13.1579 6.02692 13.1579 6.12637C13.1579 6.22582 13.1967 6.3212 13.2658 6.39153C13.3349 6.46185 13.4286 6.50136 13.5263 6.50136H14.6316C14.7293 6.50136 14.823 6.46185 14.8921 6.39153C14.9612 6.3212 15 6.22582 15 6.12637Z" fill="#009D94"/>
</svg>
