<svg width="48" height="48" viewBox="0 0 48 48" fill="none" xmlns="http://www.w3.org/2000/svg">
<circle cx="24.1309" cy="23.7852" r="23.3086" fill="#009D94"/>
<path d="M29.1289 32.7852V30.7852C29.1289 29.7243 28.7075 28.7069 27.9573 27.9567C27.2072 27.2066 26.1898 26.7852 25.1289 26.7852H17.1289C16.068 26.7852 15.0506 27.2066 14.3005 27.9567C13.5503 28.7069 13.1289 29.7243 13.1289 30.7852V32.7852" stroke="white" stroke-width="2" stroke-linecap="round" stroke-linejoin="round"/>
<path d="M21.1289 22.7852C23.338 22.7852 25.1289 20.9943 25.1289 18.7852C25.1289 16.576 23.338 14.7852 21.1289 14.7852C18.9198 14.7852 17.1289 16.576 17.1289 18.7852C17.1289 20.9943 18.9198 22.7852 21.1289 22.7852Z" stroke="white" stroke-width="2" stroke-linecap="round" stroke-linejoin="round"/>
<path d="M35.1289 32.786V30.786C35.1282 29.8997 34.8333 29.0388 34.2903 28.3383C33.7473 27.6379 32.987 27.1376 32.1289 26.916" stroke="white" stroke-width="2" stroke-linecap="round" stroke-linejoin="round"/>
<path d="M28.1289 14.916C28.9893 15.1363 29.7519 15.6367 30.2965 16.3383C30.8411 17.0399 31.1367 17.9028 31.1367 18.791C31.1367 19.6792 30.8411 20.5421 30.2965 21.2437C29.7519 21.9453 28.9893 22.4457 28.1289 22.666" stroke="white" stroke-width="2" stroke-linecap="round" stroke-linejoin="round"/>
</svg>
