<svg width="124" height="124" viewBox="0 0 124 124" fill="none" xmlns="http://www.w3.org/2000/svg">
<circle cx="62" cy="62" r="62" fill="#009D94" fill-opacity="0.1"/>
<path fill-rule="evenodd" clip-rule="evenodd" d="M22 62.5C22 51.7587 26.267 41.4574 33.8622 33.8622C41.4574 26.267 51.7587 22 62.5 22C73.2413 22 83.5426 26.267 91.1378 33.8622C98.733 41.4574 103 51.7587 103 62.5C103 73.2413 98.733 83.5426 91.1378 91.1378C83.5426 98.733 73.2413 103 62.5 103C51.7587 103 41.4574 98.733 33.8622 91.1378C26.267 83.5426 22 73.2413 22 62.5H22ZM60.1888 79.834L83.506 50.6848L79.294 47.3152L59.4112 72.1606L45.328 60.4264L41.872 64.5736L60.1888 79.8394V79.834Z" fill="#009D94"/>
</svg>
