<svg width="48" height="47" viewBox="0 0 48 47" fill="none" xmlns="http://www.w3.org/2000/svg">
<circle cx="24.1313" cy="23.3833" r="23.3091" fill="#009D94"/>
<path d="M33.1289 27.3827V19.3827C33.1285 19.032 33.036 18.6875 32.8604 18.3839C32.6849 18.0802 32.4326 17.8281 32.1289 17.6527L25.1289 13.6527C24.8249 13.4772 24.48 13.3848 24.1289 13.3848C23.7778 13.3848 23.4329 13.4772 23.1289 13.6527L16.1289 17.6527C15.8252 17.8281 15.5729 18.0802 15.3974 18.3839C15.2218 18.6875 15.1293 19.032 15.1289 19.3827V27.3827C15.1293 27.7334 15.2218 28.0779 15.3974 28.3816C15.5729 28.6852 15.8252 28.9374 16.1289 29.1127L23.1289 33.1127C23.4329 33.2883 23.7778 33.3807 24.1289 33.3807C24.48 33.3807 24.8249 33.2883 25.1289 33.1127L32.1289 29.1127C32.4326 28.9374 32.6849 28.6852 32.8604 28.3816C33.036 28.0779 33.1285 27.7334 33.1289 27.3827Z" stroke="white" stroke-width="2" stroke-linecap="round" stroke-linejoin="round"/>
</svg>
