<svg width="24" height="24" viewBox="0 0 24 24" fill="none" xmlns="http://www.w3.org/2000/svg">
<g clip-path="url(#clip0_223_61)">
<path d="M22.5094 13.7596C22.1385 13.2477 21.9388 12.6317 21.9388 11.9996C21.9388 11.3675 22.1385 10.7515 22.5094 10.2396L23.2694 9.18962C23.3623 9.06141 23.4234 8.91296 23.4478 8.75649C23.4721 8.60002 23.4589 8.44001 23.4094 8.28962C23.3593 8.14082 23.2754 8.00561 23.1644 7.89459C23.0534 7.78356 22.9182 7.69972 22.7694 7.64962L21.5394 7.24962C20.9368 7.05526 20.4116 6.67447 20.0396 6.16222C19.6675 5.64996 19.4678 5.03274 19.4694 4.39962V3.09962C19.4692 2.94179 19.4318 2.78622 19.36 2.64565C19.2882 2.50507 19.1842 2.38348 19.0564 2.29082C18.9287 2.19816 18.7808 2.13706 18.6248 2.11252C18.4689 2.08798 18.3094 2.1007 18.1594 2.14962L16.9194 2.54962C16.3174 2.74442 15.6692 2.7439 15.0675 2.54813C14.4658 2.35236 13.9415 1.97137 13.5694 1.45962L12.8094 0.409624C12.7123 0.287933 12.5891 0.18967 12.4489 0.122135C12.3087 0.0546011 12.155 0.0195313 11.9994 0.0195312C11.8437 0.0195312 11.6901 0.0546011 11.5498 0.122135C11.4096 0.18967 11.2864 0.287933 11.1894 0.409624L10.4294 1.45962C10.0573 1.97137 9.53288 2.35236 8.9312 2.54813C8.32953 2.7439 7.68135 2.74442 7.07936 2.54962L5.83936 2.14962C5.6893 2.1007 5.52979 2.08798 5.37387 2.11252C5.21796 2.13706 5.07007 2.19816 4.94229 2.29082C4.81452 2.38348 4.71049 2.50507 4.63872 2.64565C4.56695 2.78622 4.52948 2.94179 4.52936 3.09962V4.39962C4.5309 5.03274 4.33122 5.64996 3.95916 6.16222C3.58711 6.67447 3.0619 7.05526 2.45936 7.24962L1.22936 7.64962C1.08055 7.69972 0.945349 7.78356 0.834323 7.89459C0.723297 8.00561 0.639457 8.14082 0.589361 8.28962C0.539773 8.44001 0.526607 8.60002 0.550946 8.75649C0.575286 8.91296 0.636435 9.06141 0.729361 9.18962L1.48936 10.2396C1.86021 10.7515 2.05988 11.3675 2.05988 11.9996C2.05988 12.6317 1.86021 13.2477 1.48936 13.7596L0.729361 14.8096C0.636435 14.9378 0.575286 15.0863 0.550946 15.2428C0.526607 15.3992 0.539773 15.5592 0.589361 15.7096C0.639457 15.8584 0.723297 15.9936 0.834323 16.1047C0.945349 16.2157 1.08055 16.2995 1.22936 16.3496L2.45936 16.7496C3.0619 16.944 3.58711 17.3248 3.95916 17.837C4.33122 18.3493 4.5309 18.9665 4.52936 19.5996V20.8996C4.52948 21.0575 4.56695 21.213 4.63872 21.3536C4.71049 21.4942 4.81452 21.6158 4.94229 21.7084C5.07007 21.8011 5.21796 21.8622 5.37387 21.8867C5.52979 21.9113 5.6893 21.8986 5.83936 21.8496L7.06936 21.4496C7.67263 21.2515 8.32326 21.2504 8.92723 21.4463C9.53121 21.6422 10.0573 22.0251 10.4294 22.5396L11.1894 23.5896C11.2827 23.7167 11.4047 23.8201 11.5454 23.8913C11.6861 23.9626 11.8416 23.9997 11.9994 23.9997C12.1571 23.9997 12.3126 23.9626 12.4533 23.8913C12.594 23.8201 12.716 23.7167 12.8094 23.5896L13.5694 22.5396C13.9421 22.0259 14.4682 21.6435 15.0719 21.4477C15.6757 21.2518 16.326 21.2525 16.9294 21.4496L18.1594 21.8496C18.3094 21.8986 18.4689 21.9113 18.6248 21.8867C18.7808 21.8622 18.9287 21.8011 19.0564 21.7084C19.1842 21.6158 19.2882 21.4942 19.36 21.3536C19.4318 21.213 19.4692 21.0575 19.4694 20.8996V19.5996C19.4678 18.9665 19.6675 18.3493 20.0396 17.837C20.4116 17.3248 20.9368 16.944 21.5394 16.7496L22.7694 16.3496C22.9182 16.2995 23.0534 16.2157 23.1644 16.1047C23.2754 15.9936 23.3593 15.8584 23.4094 15.7096C23.4589 15.5592 23.4721 15.3992 23.4478 15.2428C23.4234 15.0863 23.3623 14.9378 23.2694 14.8096L22.5094 13.7596ZM16.7094 10.7066L11.7094 15.7066C11.5218 15.8941 11.2675 15.9994 11.0024 15.9994C10.7372 15.9994 10.4829 15.8941 10.2954 15.7066L7.29536 12.7066C7.19985 12.6144 7.12367 12.504 7.07126 12.382C7.01885 12.26 6.99126 12.1288 6.99011 11.996C6.98896 11.8632 7.01426 11.7316 7.06454 11.6087C7.11482 11.4858 7.18907 11.3741 7.28297 11.2802C7.37686 11.1863 7.48851 11.1121 7.61141 11.0618C7.7343 11.0115 7.86598 10.9862 7.99876 10.9874C8.13154 10.9885 8.26276 11.0161 8.38477 11.0685C8.50677 11.1209 8.61711 11.1971 8.70936 11.2926L10.9994 13.5856L15.2924 9.29262C15.481 9.11047 15.7336 9.00967 15.9958 9.01195C16.258 9.01423 16.5088 9.1194 16.6942 9.30481C16.8796 9.49021 16.9848 9.74103 16.987 10.0032C16.9893 10.2654 16.8885 10.518 16.7064 10.7066H16.7094Z" fill="#1B9751"/>
</g>
<defs>
<clipPath id="clip0_223_61">
<rect width="24" height="24" fill="white"/>
</clipPath>
</defs>
</svg>
