<svg width="30" height="30" viewBox="0 0 30 30" fill="none" xmlns="http://www.w3.org/2000/svg">
<path d="M29.5515 18.6288C27.5478 26.6645 19.4075 31.5545 11.3699 29.5511C3.33604 27.5476 -1.55498 19.4083 0.449148 11.373C2.45187 3.33636 10.5917 -1.55456 18.627 0.448871C26.6641 2.4523 31.5547 10.5926 29.551 18.6288H29.5515Z" fill="#CAF6F1"/>
<path d="M10.3634 10H8L10.6828 19.5968C10.7339 20.0233 11.1725 20.2632 11.3855 20.3298H12.9824C13.3401 20.4898 13.685 19.9078 13.8128 19.5968L15.1542 16.0646L16.5595 19.5968C16.7128 20.1299 17.0918 20.3076 17.2621 20.3298H18.7952C19.3062 20.3832 19.6043 19.8633 19.6894 19.5968L20.9031 15.1316H18.5396L18.1564 16.4645L16.9427 13.3989C15.4608 11.4795 14.0683 12.5991 13.5573 13.3989L12.2159 16.4645L10.3634 10Z" fill="#09DFC4"/>
<path d="M22.5 10H20.0088L18.859 13.8654L21.3502 13.7987L22.5 10Z" fill="#09DFC4"/>
</svg>
