<svg width="18" height="18" viewBox="0 0 18 18" fill="none" xmlns="http://www.w3.org/2000/svg">
<rect x="0.5" y="3.07129" width="17" height="11.8571" rx="3.5" fill="white" stroke="#F5F5F5"/>
<mask id="mask0_196_6655" style="mask-type:alpha" maskUnits="userSpaceOnUse" x="0" y="2" width="18" height="14">
<rect x="0.5" y="3.07129" width="17" height="11.8571" rx="3.5" fill="white" stroke="white"/>
</mask>
<g mask="url(#mask0_196_6655)">
<path fill-rule="evenodd" clip-rule="evenodd" d="M0 9.42843H18V2.57129H0V9.42843Z" fill="#E12237"/>
<path fill-rule="evenodd" clip-rule="evenodd" d="M5.14293 3.85679C5.40634 3.85679 5.65865 3.90432 5.89176 3.99127C5.45171 3.63894 4.89335 3.42822 4.28578 3.42822C2.86562 3.42822 1.71436 4.57949 1.71436 5.99965C1.71436 7.41981 2.86562 8.57108 4.28578 8.57108C4.89335 8.57108 5.45171 8.36037 5.89176 8.00803C5.65865 8.09498 5.40634 8.14251 5.14293 8.14251C3.95946 8.14251 3.00007 7.18312 3.00007 5.99965C3.00007 4.81618 3.95946 3.85679 5.14293 3.85679ZM4.71436 5.99965C4.95105 5.99965 5.14293 5.80777 5.14293 5.57108C5.14293 5.33439 4.95105 5.14251 4.71436 5.14251C4.47766 5.14251 4.28578 5.33439 4.28578 5.57108C4.28578 5.80777 4.47766 5.99965 4.71436 5.99965ZM6.00007 7.28537C6.00007 7.52206 5.80819 7.71394 5.5715 7.71394C5.3348 7.71394 5.14293 7.52206 5.14293 7.28537C5.14293 7.04867 5.3348 6.85679 5.5715 6.85679C5.80819 6.85679 6.00007 7.04867 6.00007 7.28537ZM7.28578 7.71394C7.52248 7.71394 7.71436 7.52206 7.71436 7.28537C7.71436 7.04867 7.52248 6.85679 7.28578 6.85679C7.04909 6.85679 6.85721 7.04867 6.85721 7.28537C6.85721 7.52206 7.04909 7.71394 7.28578 7.71394ZM8.5715 5.57108C8.5715 5.80777 8.37962 5.99965 8.14293 5.99965C7.90623 5.99965 7.71435 5.80777 7.71435 5.57108C7.71435 5.33439 7.90623 5.14251 8.14293 5.14251C8.37962 5.14251 8.5715 5.33439 8.5715 5.57108ZM6.42864 4.71394C6.66533 4.71394 6.85721 4.52206 6.85721 4.28537C6.85721 4.04867 6.66533 3.85679 6.42864 3.85679C6.19195 3.85679 6.00007 4.04867 6.00007 4.28537C6.00007 4.52206 6.19195 4.71394 6.42864 4.71394Z" fill="white"/>
</g>
</svg>
