<svg width="18" height="18" viewBox="0 0 18 18" fill="none" xmlns="http://www.w3.org/2000/svg">
<rect y="2.57129" width="18" height="12.8571" rx="4" fill="white"/>
<mask id="mask0_196_6653" style="mask-type:alpha" maskUnits="userSpaceOnUse" x="0" y="2" width="18" height="14">
<rect y="2.57129" width="18" height="12.8571" rx="4" fill="white"/>
</mask>
<g mask="url(#mask0_196_6653)">
<rect y="2.57129" width="18" height="12.8571" fill="#128C4B"/>
<path fill-rule="evenodd" clip-rule="evenodd" d="M4.28564 10.2857H11.1428V9.95831C11.1428 9.51802 11.6061 9.23166 11.9999 9.42857V10.2857H13.1428C13.4584 10.2857 13.7142 10.5415 13.7142 10.8571C13.7142 11.4883 13.2025 12 12.5714 12H11.9999C11.5265 12 11.1428 11.6162 11.1428 11.1429H5.69507C5.34145 11.1429 5.00231 11.0024 4.75226 10.7523L4.28564 10.2857Z" fill="white"/>
<path fill-rule="evenodd" clip-rule="evenodd" d="M4.28564 7.89181C4.28564 7.77814 4.3308 7.66913 4.41117 7.58876C4.57854 7.42139 4.57854 7.15004 4.41117 6.98267C4.3308 6.9023 4.28564 6.79329 4.28564 6.67962V6.42857C4.28564 6.19188 4.47752 6 4.71422 6H4.97909C5.0695 6 5.14279 6.07329 5.14279 6.1637C5.14279 6.33644 5.37565 6.39141 5.4529 6.23691L5.51679 6.10913C5.55023 6.04225 5.61859 6 5.69337 6H6.64279C6.76113 6 6.85707 6.09594 6.85707 6.21429C6.85707 6.33263 6.76113 6.42857 6.64279 6.42857H6.21422C6.09587 6.42857 5.99993 6.52451 5.99993 6.64286C5.99993 6.7612 6.09587 6.85714 6.21422 6.85714H6.4285C6.6652 6.85714 6.85707 7.04902 6.85707 7.28571V8.14286C6.85707 8.37955 6.6652 8.57143 6.4285 8.57143C6.19181 8.57143 5.99993 8.37955 5.99993 8.14286V7.92857C5.99993 7.81022 6.09587 7.71429 6.21422 7.71429C6.33256 7.71429 6.4285 7.61835 6.4285 7.5C6.4285 7.38165 6.33256 7.28571 6.21422 7.28571H5.99993C5.76324 7.28571 5.57136 7.47759 5.57136 7.71429V8.35714C5.57136 8.47549 5.47542 8.57143 5.35707 8.57143C5.23873 8.57143 5.14279 8.47549 5.14279 8.35714V7.92857C5.14279 7.81022 5.04685 7.71429 4.9285 7.71429C4.81015 7.71429 4.71422 7.81022 4.71422 7.92857V8.35714C4.71422 8.47549 4.61828 8.57143 4.49993 8.57143C4.38158 8.57143 4.28564 8.47549 4.28564 8.35714V7.89181Z" fill="white"/>
<path fill-rule="evenodd" clip-rule="evenodd" d="M11.1428 7.89181C11.1428 7.77814 11.188 7.66913 11.2683 7.58876C11.4357 7.42139 11.4357 7.15004 11.2683 6.98267C11.188 6.9023 11.1428 6.79329 11.1428 6.67962V6.42857C11.1428 6.19188 11.3347 6 11.5714 6H11.8363C11.9267 6 12 6.07329 12 6.1637C12 6.33644 12.2328 6.39141 12.3101 6.23691L12.374 6.10913C12.4074 6.04225 12.4758 6 12.5506 6H13.5C13.6183 6 13.7143 6.09594 13.7143 6.21429C13.7143 6.33263 13.6183 6.42857 13.5 6.42857H13.0714C12.953 6.42857 12.8571 6.52451 12.8571 6.64286C12.8571 6.7612 12.953 6.85714 13.0714 6.85714H13.2857C13.5224 6.85714 13.7143 7.04902 13.7143 7.28571V8.14286C13.7143 8.37955 13.5224 8.57143 13.2857 8.57143C13.049 8.57143 12.8571 8.37955 12.8571 8.14286V7.92857C12.8571 7.81022 12.953 7.71429 13.0714 7.71429C13.1897 7.71429 13.2857 7.61835 13.2857 7.5C13.2857 7.38165 13.1897 7.28571 13.0714 7.28571H12.8571C12.6204 7.28571 12.4285 7.47759 12.4285 7.71429V8.35714C12.4285 8.47549 12.3326 8.57143 12.2143 8.57143C12.0959 8.57143 12 8.47549 12 8.35714V7.92857C12 7.81022 11.904 7.71429 11.7857 7.71429C11.6673 7.71429 11.5714 7.81022 11.5714 7.92857V8.35714C11.5714 8.47549 11.4755 8.57143 11.3571 8.57143C11.2388 8.57143 11.1428 8.47549 11.1428 8.35714V7.89181Z" fill="white"/>
<path fill-rule="evenodd" clip-rule="evenodd" d="M10.2858 6.64085C10.2858 6.7603 10.2188 6.92411 10.1311 7.01187L10.0119 7.13099C9.92648 7.21644 9.92418 7.35268 10.0119 7.44044L10.1311 7.55956C10.2165 7.64501 10.2858 7.80601 10.2858 7.93058V8.35513C10.2858 8.47459 10.1941 8.57143 10.0695 8.57143H9.64493C9.52548 8.57143 9.42864 8.4797 9.42864 8.35513V7.93058C9.42864 7.81112 9.38909 7.79339 9.32924 7.91309L9.09947 8.37263C9.04457 8.48242 8.89918 8.57143 8.78776 8.57143H7.92667C7.80941 8.57143 7.71436 8.47203 7.71436 8.35714C7.71436 8.2388 7.80608 8.14286 7.93065 8.14286H8.3552C8.47466 8.14286 8.5715 8.04346 8.5715 7.92857C8.5715 7.81022 8.47977 7.71429 8.3552 7.71429H7.93065C7.81119 7.71429 7.71436 7.62212 7.71436 7.50408V6.21021C7.71436 6.09411 7.80608 6 7.93065 6H8.3552C8.47466 6 8.5715 6.09173 8.5715 6.21629V6.64085C8.5715 6.7603 8.4721 6.85714 8.35721 6.85714C8.23887 6.85714 8.14293 6.95654 8.14293 7.07143C8.14293 7.18978 8.23466 7.28571 8.35922 7.28571H8.78378C8.90323 7.28571 9.00007 7.18483 9.00007 7.0734V6.21231C9.00007 6.09505 9.09947 6 9.21436 6C9.3327 6 9.42864 6.09173 9.42864 6.21629V6.64085C9.42864 6.7603 9.52804 6.85714 9.64293 6.85714C9.76127 6.85714 9.85721 6.76541 9.85721 6.64085V6.21629C9.85721 6.09684 9.95661 6 10.0715 6C10.1898 6 10.2858 6.09173 10.2858 6.21629V6.64085Z" fill="white"/>
</g>
</svg>
