<svg width="18" height="18" viewBox="0 0 18 18" fill="none" xmlns="http://www.w3.org/2000/svg">
<rect x="0.5" y="3.07129" width="17" height="11.8571" rx="3.5" fill="white" stroke="#F5F5F5"/>
<mask id="mask0_196_6657" style="mask-type:alpha" maskUnits="userSpaceOnUse" x="0" y="2" width="18" height="14">
<rect x="0.5" y="3.07129" width="17" height="11.8571" rx="3.5" fill="white" stroke="white"/>
</mask>
<g mask="url(#mask0_196_6657)">
<path fill-rule="evenodd" clip-rule="evenodd" d="M0 6.857H18V2.57129H0V6.857Z" fill="#E41D33"/>
<path fill-rule="evenodd" clip-rule="evenodd" d="M0 15.4283H18V11.1426H0V15.4283Z" fill="#262626"/>
<path d="M9.05599 8.54293C9.11288 8.61878 9.16308 8.69785 9.20091 8.76197H8.8061C8.84639 8.69891 8.89737 8.62383 8.95363 8.5512C8.97277 8.52649 8.99125 8.50373 9.00889 8.483C9.02397 8.50124 9.03971 8.52122 9.05599 8.54293ZM9.15009 8.34652C9.15006 8.34678 9.14733 8.34869 9.142 8.35149C9.14745 8.34767 9.15012 8.34627 9.15009 8.34652ZM8.88292 8.35739C8.8795 8.35561 8.87776 8.35445 8.87775 8.35431C8.87774 8.35417 8.87945 8.35505 8.88292 8.35739Z" fill="#F4B32E" fill-opacity="0.25" stroke="#C6A846" stroke-width="1.33333"/>
</g>
</svg>
