<svg width="24" height="25" viewBox="0 0 24 25" fill="none" xmlns="http://www.w3.org/2000/svg">
<path d="M10.1109 0.292565C10.3687 0.102524 10.6806 0 11.0009 0C11.3212 0 11.6331 0.102524 11.8909 0.292565L21.3889 7.29756C22.5129 8.12757 21.9869 9.87556 20.6489 9.99756H1.35287C0.0138737 9.87556 -0.511126 8.12757 0.612873 7.29756L10.1109 0.292565ZM11.0009 6.99856C11.3987 6.99856 11.7802 6.84053 12.0615 6.55922C12.3428 6.27792 12.5009 5.89639 12.5009 5.49856C12.5009 5.10074 12.3428 4.71921 12.0615 4.4379C11.7802 4.1566 11.3987 3.99856 11.0009 3.99856C10.603 3.99856 10.2215 4.1566 9.94021 4.4379C9.65891 4.71921 9.50087 5.10074 9.50087 5.49856C9.50087 5.89639 9.65891 6.27792 9.94021 6.55922C10.2215 6.84053 10.603 6.99856 11.0009 6.99856ZM16.5009 10.9986H18.9999V15.9986H16.4999V10.9986H16.5009ZM10.0009 20.7486C9.99954 19.7629 10.3062 18.8015 10.8779 17.9986H3.25187C2.38992 17.9986 1.56327 18.341 0.953777 18.9505C0.344283 19.56 0.00187366 20.3866 0.00187366 21.2486V21.7486C0.00187366 22.1636 0.337874 22.4986 0.751874 22.4986H10.3339C10.113 21.9419 9.99967 21.3484 9.99987 20.7496L10.0009 20.7486ZM12.0009 16.8756C12.7343 16.3533 13.6017 16.0514 14.5009 16.0056V10.9986H11.9999V16.8756H12.0009ZM10.0009 16.9986V10.9986H7.50087V16.9986H10.0009ZM5.50087 10.9986V16.9986H3.00087V10.9986H5.50087ZM14.7509 18.4986C14.1541 18.4986 13.5818 18.7356 13.1599 19.1576C12.7379 19.5795 12.5009 20.1518 12.5009 20.7486C12.5009 21.3453 12.7379 21.9176 13.1599 22.3396C13.5818 22.7615 14.1541 22.9986 14.7509 22.9986H15.2509C15.4499 22.9986 15.6408 23.0776 15.7816 23.2184C15.9223 23.3591 16.0014 23.55 16.0014 23.7491C16.0014 23.9481 15.9223 24.139 15.7816 24.2797C15.6408 24.4205 15.4499 24.4996 15.2509 24.4996H14.7509C13.7563 24.4996 12.8025 24.1045 12.0992 23.4012C11.396 22.698 11.0009 21.7441 11.0009 20.7496C11.0009 19.755 11.396 18.8012 12.0992 18.0979C12.8025 17.3947 13.7563 16.9996 14.7509 16.9996H15.2509C15.4498 16.9996 15.6406 17.0786 15.7812 17.2192C15.9219 17.3599 16.0009 17.5507 16.0009 17.7496C16.0009 17.9485 15.9219 18.1392 15.7812 18.2799C15.6406 18.4205 15.4498 18.4996 15.2509 18.4996H14.7509V18.4986ZM13.9999 20.7496C13.9999 20.5507 14.0789 20.3599 14.2195 20.2192C14.3602 20.0786 14.551 19.9996 14.7499 19.9996H20.2499C20.4488 19.9996 20.6396 20.0786 20.7802 20.2192C20.9209 20.3599 20.9999 20.5507 20.9999 20.7496C20.9999 20.9485 20.9209 21.1392 20.7802 21.2799C20.6396 21.4205 20.4488 21.4996 20.2499 21.4996H14.7499C14.551 21.4996 14.3602 21.4205 14.2195 21.2799C14.0789 21.1392 13.9999 20.9485 13.9999 20.7496ZM20.2499 22.9996C20.8466 22.9996 21.4189 22.7625 21.8409 22.3406C22.2628 21.9186 22.4999 21.3463 22.4999 20.7496C22.4999 20.1528 22.2628 19.5805 21.8409 19.1586C21.4189 18.7366 20.8466 18.4996 20.2499 18.4996H19.7499C19.551 18.4996 19.3602 18.4205 19.2195 18.2799C19.0789 18.1392 18.9999 17.9485 18.9999 17.7496C18.9999 17.5507 19.0789 17.3599 19.2195 17.2192C19.3602 17.0786 19.551 16.9996 19.7499 16.9996H20.2499C21.2446 16.9996 22.1985 17.3947 22.9019 18.0981C23.6052 18.8014 24.0004 19.7554 24.0004 20.7501C24.0004 21.7448 23.6052 22.6987 22.9019 23.4021C22.1985 24.1054 21.2446 24.5006 20.2499 24.5006H19.7499C19.551 24.5006 19.3602 24.4215 19.2195 24.2809C19.0789 24.1402 18.9999 23.9495 18.9999 23.7506C18.9999 23.5517 19.0789 23.3609 19.2195 23.2202C19.3602 23.0796 19.551 23.0006 19.7499 23.0006H20.2499V22.9996Z" fill="#787878"/>
</svg>
