<svg width="26" height="24" viewBox="0 0 26 24" fill="none" xmlns="http://www.w3.org/2000/svg">
<path d="M0.8125 0.75H2.545C3.1825 0.75 3.73875 1.17875 3.90375 1.79375L4.3825 3.59M7.375 14.8125C6.38044 14.8125 5.42661 15.2076 4.72335 15.9108C4.02009 16.6141 3.625 17.5679 3.625 18.5625H23.3125M7.375 14.8125H21.3975C22.7988 11.9375 24.0225 8.9575 25.0525 5.89C18.3024 4.16894 11.3458 3.39486 4.3825 3.59M7.375 14.8125L4.3825 3.59M5.5 22.3125C5.5 22.5611 5.40123 22.7996 5.22541 22.9754C5.0496 23.1512 4.81114 23.25 4.5625 23.25C4.31386 23.25 4.0754 23.1512 3.89959 22.9754C3.72377 22.7996 3.625 22.5611 3.625 22.3125C3.625 22.0639 3.72377 21.8254 3.89959 21.6496C4.0754 21.4738 4.31386 21.375 4.5625 21.375C4.81114 21.375 5.0496 21.4738 5.22541 21.6496C5.40123 21.8254 5.5 22.0639 5.5 22.3125V22.3125ZM21.4375 22.3125C21.4375 22.5611 21.3387 22.7996 21.1629 22.9754C20.9871 23.1512 20.7486 23.25 20.5 23.25C20.2514 23.25 20.0129 23.1512 19.8371 22.9754C19.6613 22.7996 19.5625 22.5611 19.5625 22.3125C19.5625 22.0639 19.6613 21.8254 19.8371 21.6496C20.0129 21.4738 20.2514 21.375 20.5 21.375C20.7486 21.375 20.9871 21.4738 21.1629 21.6496C21.3387 21.8254 21.4375 22.0639 21.4375 22.3125V22.3125Z" stroke="#CECECE" stroke-width="1.5" stroke-linecap="round" stroke-linejoin="round"/>
</svg>
