<svg width="29" height="29" viewBox="0 0 29 29" fill="none" xmlns="http://www.w3.org/2000/svg">
<circle cx="14.5" cy="14.5" r="14.5" fill="#009D94"/>
<path fill-rule="evenodd" clip-rule="evenodd" d="M3.51514 14.5C3.51514 11.5866 4.67247 8.79258 6.73252 6.73252C8.79258 4.67247 11.5866 3.51514 14.5 3.51514C17.4133 3.51514 20.2074 4.67247 22.2674 6.73252C24.3275 8.79258 25.4848 11.5866 25.4848 14.5C25.4848 17.4133 24.3275 20.2074 22.2674 22.2674C20.2074 24.3275 17.4133 25.4848 14.5 25.4848C11.5866 25.4848 8.79258 24.3275 6.73252 22.2674C4.67247 20.2074 3.51514 17.4133 3.51514 14.5ZM13.8731 19.2015L20.1975 11.2953L19.055 10.3814L13.6622 17.1202L9.84241 13.9376L8.90504 15.0624L13.8731 19.203V19.2015Z" fill="#D3D3D3"/>
</svg>
