<svg width="18" height="18" viewBox="0 0 18 18" fill="none" xmlns="http://www.w3.org/2000/svg">
<path d="M14.0259 12.8473L17.5951 16.4157L16.4159 17.5948L12.8476 14.0257C11.5199 15.09 9.86842 15.6689 8.16675 15.6665C4.02675 15.6665 0.666748 12.3065 0.666748 8.1665C0.666748 4.0265 4.02675 0.666504 8.16675 0.666504C12.3067 0.666504 15.6667 4.0265 15.6667 8.1665C15.6692 9.86817 15.0903 11.5196 14.0259 12.8473ZM12.3542 12.229C13.4118 11.1414 14.0025 9.68353 14.0001 8.1665C14.0001 4.94317 11.3892 2.33317 8.16675 2.33317C4.94341 2.33317 2.33341 4.94317 2.33341 8.1665C2.33341 11.389 4.94341 13.9998 8.16675 13.9998C9.68377 14.0022 11.1417 13.4116 12.2292 12.354L12.3542 12.229Z" fill="#626262"/>
</svg>
