<svg width="164" height="26" viewBox="0 0 164 26" fill="none" xmlns="http://www.w3.org/2000/svg">
<path d="M2.66596 23.0487C1.64566 22.1027 1.3125 20.9957 1.3125 19.7378V6.19241C1.3125 4.93448 1.82265 3.8275 2.66596 2.88154L2.83254 2.72052C3.85285 1.94564 4.86274 1.47266 6.2162 1.47266H12.3068C13.6603 1.47266 15.0137 1.78462 16.2006 2.25761C17.3875 2.73059 18.564 3.51554 19.4177 4.30049C20.261 5.08543 21.1043 6.19241 21.6145 7.28933C22.1246 8.39631 22.4578 9.65424 22.4578 10.9122V14.535C22.4578 15.7929 22.1246 17.0509 21.6145 18.1579C21.1043 19.2648 20.261 20.6737 19.4177 21.6197C18.5744 22.5656 17.3875 23.1896 16.2006 23.6626C15.0137 24.1355 13.6603 24.4475 12.3068 24.4475H6.2162C4.86274 24.3066 3.85285 23.9846 2.66596 23.0487ZM3.85285 22.5757C4.52958 23.0487 5.20631 23.2097 6.04962 23.2097H12.1402C13.3271 23.2097 14.5036 23.0487 15.6904 22.5757C16.7003 22.1027 17.7206 21.4687 18.564 20.8448C19.4073 20.0598 20.084 19.2749 20.5941 18.1679C21.1043 17.0609 21.2709 16.125 21.2709 14.857V11.2342C21.2709 10.1272 21.1043 9.03031 20.5941 7.92333C20.084 6.81635 19.4073 6.0314 18.564 5.24645C17.7206 4.4615 16.7003 3.8275 15.6904 3.51554C14.6806 3.04255 13.4937 2.88154 12.1402 2.88154H6.04962C5.20631 2.88154 4.52958 3.04255 3.85285 3.51554L3.50928 3.83757C2.83254 4.47156 2.49938 5.40746 2.49938 6.35343V19.8988C2.49938 20.8448 2.83254 21.6297 3.50928 22.4147L3.85285 22.5757ZM37.1689 2.8916C38.1788 2.10665 39.1991 1.63367 40.5525 1.63367H49.0065C50.0164 1.63367 51.0367 1.79469 52.0466 2.26767C53.0564 2.74065 53.7332 3.21363 54.5869 3.83757C55.2636 4.47156 55.9404 5.25651 56.2735 6.20248C56.6067 7.14844 56.9503 8.09441 56.9503 9.04037C56.9503 9.98633 56.7837 10.7713 56.4401 11.5562C56.1069 12.3412 55.5968 13.1261 55.0866 13.7601C54.4099 14.3941 53.7332 15.0181 52.8899 15.33C52.0466 15.803 51.2032 15.964 50.1829 16.115L48.9961 16.4269L56.6067 23.5116C56.7733 23.6726 56.7733 23.8236 56.7733 23.9846C56.7733 24.2966 56.6067 24.4576 56.0965 24.4576C55.93 24.4576 55.753 24.4576 55.753 24.2966L47.299 16.4269H36.9815V23.8236C36.9815 24.1355 36.8149 24.2966 36.3047 24.2966C35.9612 24.2966 35.7946 24.1355 35.7946 23.8236V6.35343C35.6488 5.0955 36.159 3.98852 37.1689 2.8916ZM49.0169 15.169C49.8602 15.169 50.7035 15.008 51.5572 14.696C52.4005 14.3841 53.0773 13.9111 53.754 13.4381C54.4307 12.8041 54.7639 12.1802 55.274 11.5462C55.7842 10.9122 55.7842 9.97627 55.7842 9.18126C55.7842 8.39631 55.6176 7.45034 55.274 6.81635C54.9409 6.18235 54.4307 5.3974 53.754 4.92442C53.0773 4.29042 52.4005 3.97845 51.5572 3.66649C50.7139 3.35452 49.8706 3.19351 49.0169 3.19351H40.5629C39.7196 3.19351 39.0429 3.35452 38.3662 3.8275L38.033 4.13947C37.3563 4.77347 37.0231 5.70937 37.0231 6.65533V15.6319H48.6941L49.0169 15.169ZM89.6104 1.78462C89.9435 1.78462 90.2871 1.94564 90.2871 2.25761C90.2871 2.56957 90.1205 2.8916 89.6104 2.8916H80.9794C79.7925 2.8916 78.6161 3.05262 77.4292 3.5256C76.4193 3.99858 75.399 4.63258 74.5557 5.41753C73.7124 6.20248 73.0356 7.14844 72.5255 8.0944C72.0153 9.04037 71.8488 10.1373 71.8488 11.4053V12.6632H87.9133C88.2465 12.6632 88.4235 12.8242 88.4235 13.1362C88.4235 13.4482 88.2569 13.7702 87.9133 13.7702H71.8488V15.0281C71.8488 16.1351 72.0153 17.232 72.5255 18.339C73.0356 19.285 73.7124 20.2309 74.5557 21.0159C75.399 21.8008 76.4193 22.4348 77.4292 22.9078C78.4391 23.3808 79.626 23.5418 80.9794 23.5418H89.6104C89.9435 23.5418 90.2871 23.7028 90.2871 24.1758C90.2871 24.4878 90.1205 24.6488 89.6104 24.6488H80.9794C79.626 24.6488 78.2725 24.3368 77.0856 23.8638C75.8987 23.3908 74.7223 22.6059 73.8685 21.8209C72.8587 20.875 72.1819 19.929 71.6718 18.8321C71.1616 17.7251 70.8285 16.4672 70.8285 15.2093V11.2342C70.8285 9.97627 71.1616 8.71834 71.6718 7.61136C72.1819 6.50438 72.8587 5.40746 73.8685 4.62252C74.8784 3.83757 75.8987 3.05262 77.0856 2.57964C78.2725 2.10665 79.626 1.79469 80.9794 1.79469H89.6104V1.78462ZM113.629 13.5991C112.442 13.7601 111.266 13.9111 110.245 14.3841C109.236 14.857 108.382 15.491 107.539 16.276C106.695 17.0609 106.185 17.8459 105.675 18.9529C105.165 20.0598 104.998 20.9957 104.998 22.1027V23.8336C104.998 24.1456 104.832 24.3066 104.321 24.3066C103.988 24.3066 103.811 24.1456 103.811 23.8336V21.9417C103.811 20.9957 103.978 20.2108 104.155 19.2648C104.488 18.4799 104.832 17.6949 105.342 16.8999C105.852 16.115 106.529 15.481 107.205 14.857C107.882 14.223 108.725 13.7501 109.579 13.2871L110.589 12.8142L109.579 12.3412C108.736 11.8682 107.893 11.3952 107.205 10.7713C106.529 10.1373 106.019 9.51335 105.519 8.7284C105.009 7.94345 104.675 7.1585 104.332 6.36349C103.999 5.57854 103.999 4.63258 103.999 3.84763V1.94564C103.999 1.63367 104.165 1.47266 104.509 1.47266C104.842 1.47266 105.186 1.63367 105.186 1.94564V3.83757C105.186 4.94455 105.352 6.04146 105.862 7.14844C106.372 8.25542 107.049 9.04037 107.893 9.82532C108.736 10.6103 109.756 11.2443 110.766 11.7172C111.776 12.1902 112.963 12.3512 114.316 12.3512H116.18C117.367 12.3512 118.554 12.1902 119.73 11.7172C120.74 11.2443 121.76 10.6103 122.604 9.82532C123.447 9.04037 124.124 8.0944 124.634 7.14844C125.144 6.04146 125.311 5.10556 125.311 3.83757V1.94564C125.311 1.63367 125.477 1.47266 125.987 1.47266C126.331 1.47266 126.497 1.63367 126.497 1.94564V3.83757C126.497 4.62252 126.331 5.56848 126.164 6.35343C125.831 7.13838 125.488 7.92333 124.977 8.71834C124.467 9.50329 123.968 10.1373 123.291 10.7612C122.614 11.3952 121.771 11.8682 120.917 12.3311L119.907 12.8041L120.917 13.2771C122.781 14.062 124.134 15.32 125.144 16.8999C126.154 18.4799 126.664 20.0498 126.664 21.9417V23.8336C126.664 24.1456 126.497 24.3066 126.154 24.3066C125.81 24.3066 125.477 24.1456 125.477 23.8336V21.9417C125.477 20.8347 125.311 19.7378 124.8 18.6308C124.29 17.5239 123.614 16.7389 122.77 15.954C121.927 15.169 120.907 14.535 119.897 14.062C118.887 13.589 117.7 13.428 116.346 13.428L113.629 13.5991ZM162.687 7.13838C162.687 7.45034 162.52 7.61136 162.177 7.61136C161.833 7.61136 161.5 7.45034 161.5 7.13838C161.5 5.88045 160.99 4.93448 160.147 3.98852L159.636 3.67655C158.793 3.04255 157.95 2.73059 156.763 2.73059H146.779C145.769 2.73059 144.748 3.04255 143.905 3.67655L143.738 3.98852C142.895 4.77347 142.385 5.88045 142.385 7.13838C142.385 8.24536 142.718 9.18126 143.228 9.81525C143.905 10.4493 144.582 10.9222 145.602 11.3852C146.612 11.6971 147.632 12.0191 148.819 12.3311C150.006 12.4921 151.36 12.6431 152.536 12.8041C153.889 12.9651 155.076 13.1161 156.253 13.4381C157.44 13.7501 158.616 13.9111 159.47 14.3841C160.313 14.857 161.157 15.491 161.844 16.115C162.52 16.8999 162.687 17.8459 162.687 19.1038C162.687 19.8888 162.52 20.5228 162.177 21.3077C161.844 21.9417 161.5 22.5656 160.99 23.0386C160.48 23.5116 159.803 23.9846 159.126 24.1456C158.45 24.4576 157.773 24.6186 156.93 24.6186H146.445C144.925 24.6186 143.572 24.1456 142.385 23.0487L142.218 22.8877C141.198 21.9417 140.698 20.6838 140.698 19.4258V19.2648C140.698 18.9529 140.865 18.7918 141.209 18.7918C141.552 18.7918 141.885 18.9529 141.885 19.2648C141.885 20.3718 142.229 21.3077 143.072 22.2537L143.239 22.4147C144.082 23.1996 145.269 23.6726 146.456 23.6726H156.94C157.617 23.6726 158.127 23.5116 158.804 23.3607C159.48 23.1996 159.813 22.8877 160.324 22.4147C160.657 22.1027 161 21.6297 161.344 20.9957C161.677 20.3617 161.677 19.8888 161.677 19.2648C161.677 18.0069 161.344 17.0609 160.657 16.276C159.98 15.642 159.137 15.169 157.95 14.857C156.93 14.5451 155.753 14.3841 154.733 14.223C153.546 14.062 152.536 13.9111 151.693 13.7501C150.173 13.589 148.819 13.4381 147.632 13.1161C146.445 12.8041 145.269 12.4821 144.249 12.0091C143.228 11.5361 142.562 10.9021 142.052 10.1172C141.542 9.33221 141.209 8.38624 141.209 7.27927C141.209 5.86032 141.719 4.60239 142.895 3.49541L143.062 3.33439C144.249 2.38843 145.425 1.91545 146.956 1.91545H156.94C158.46 1.91545 159.813 2.38843 160.834 3.33439L161 3.49541C162.177 4.31055 162.687 5.56848 162.687 7.13838Z" stroke="black" stroke-width="1.71675" stroke-miterlimit="10"/>
</svg>
