<svg width="314" height="48" viewBox="0 0 314 48" fill="none" xmlns="http://www.w3.org/2000/svg">
<path d="M5.09161 43.1263C3.13794 41.315 2.5 39.1953 2.5 36.7866V10.8499C2.5 8.44121 3.47684 6.32156 5.09161 4.51023L5.41058 4.20192C7.36426 2.71817 9.298 1.8125 11.8896 1.8125H23.5519C26.1435 1.8125 28.7351 2.40985 31.0077 3.31552C33.2804 4.22119 35.5331 5.72421 37.1678 7.22723C38.7826 8.73025 40.3974 10.8499 41.3742 12.9503C42.351 15.0699 42.989 17.4786 42.989 19.8873V26.8243C42.989 29.233 42.351 31.6417 41.3742 33.7613C40.3974 35.881 38.7826 38.5787 37.1678 40.39C35.553 42.2014 33.2804 43.3961 31.0077 44.3017C28.7351 45.2074 26.1435 45.8048 23.5519 45.8048H11.8896C9.298 45.535 7.36426 44.9184 5.09161 43.1263ZM7.36426 42.2206C8.66006 43.1263 9.95587 43.4346 11.5706 43.4346H23.2329C25.5055 43.4346 27.7583 43.1263 30.0309 42.2206C31.9646 41.315 33.9183 40.101 35.5331 38.9063C37.1479 37.4033 38.4437 35.9002 39.4205 33.7806C40.3974 31.661 40.7163 29.8689 40.7163 27.4409V20.5039C40.7163 18.3843 40.3974 16.2839 39.4205 14.1642C38.4437 12.0446 37.1479 10.5416 35.5331 9.03856C33.9183 7.53554 31.9646 6.32156 30.0309 5.72421C28.0972 4.81854 25.8245 4.51023 23.2329 4.51023H11.5706C9.95587 4.51023 8.66006 4.81854 7.36426 5.72421L6.70639 6.34083C5.41058 7.55481 4.77265 9.34687 4.77265 11.1582V37.095C4.77265 38.9063 5.41058 40.4093 6.70639 41.9123L7.36426 42.2206ZM71.1578 4.5295C73.0915 3.02648 75.0452 2.12081 77.6368 2.12081H93.8245C95.7582 2.12081 97.7119 2.42912 99.6456 3.33479C101.579 4.24046 102.875 5.14612 104.51 6.34083C105.806 7.55481 107.101 9.05783 107.739 10.8692C108.377 12.6805 109.035 14.4918 109.035 16.3032C109.035 18.1145 108.716 19.6175 108.058 21.1205C107.42 22.6236 106.444 24.1266 105.467 25.3406C104.171 26.5545 102.875 27.7492 101.26 28.3466C99.6456 29.2523 98.0308 29.5606 96.0772 29.8496L93.8045 30.447L108.377 44.0127C108.696 44.321 108.696 44.6101 108.696 44.9184C108.696 45.5157 108.377 45.824 107.401 45.824C107.082 45.824 106.743 45.824 106.743 45.5157L90.555 30.447H70.799V44.6101C70.799 45.2074 70.48 45.5157 69.5032 45.5157C68.8453 45.5157 68.5263 45.2074 68.5263 44.6101V11.1582C68.2472 8.74952 69.2241 6.62988 71.1578 4.5295ZM93.8444 28.0383C95.4592 28.0383 97.0739 27.73 98.7086 27.1326C100.323 26.5353 101.619 25.6296 102.915 24.7239C104.211 23.51 104.849 22.3152 105.826 21.1013C106.802 19.8873 106.802 18.0952 106.802 16.5729C106.802 15.0699 106.483 13.2586 105.826 12.0446C105.188 10.8306 104.211 9.3276 102.915 8.42194C101.619 7.20796 100.323 6.61061 98.7086 6.01325C97.0939 5.4159 95.4791 5.10758 93.8444 5.10758H77.6568C76.042 5.10758 74.7462 5.4159 73.4504 6.32156L72.8125 6.91892C71.5166 8.1329 70.8787 9.92496 70.8787 11.7363V28.9247H93.2264L93.8444 28.0383ZM171.573 2.40985C172.211 2.40985 172.869 2.71817 172.869 3.31552C172.869 3.91288 172.55 4.5295 171.573 4.5295H155.046C152.774 4.5295 150.521 4.83781 148.248 5.74348C146.315 6.64914 144.361 7.86312 142.746 9.36614C141.131 10.8692 139.836 12.6805 138.859 14.4918C137.882 16.3032 137.563 18.4035 137.563 20.8315V23.2402H168.323C168.961 23.2402 169.3 23.5485 169.3 24.1459C169.3 24.7432 168.981 25.3598 168.323 25.3598H137.563V27.7685C137.563 29.8882 137.882 31.9885 138.859 34.1082C139.836 35.9195 141.131 37.7308 142.746 39.2339C144.361 40.7369 146.315 41.9509 148.248 42.8565C150.182 43.7622 152.455 44.0705 155.046 44.0705H171.573C172.211 44.0705 172.869 44.3788 172.869 45.2845C172.869 45.8818 172.55 46.1902 171.573 46.1902H155.046C152.455 46.1902 149.863 45.5928 147.59 44.6871C145.318 43.7815 143.065 42.2784 141.43 40.7754C139.497 38.9641 138.201 37.1528 137.224 35.0524C136.247 32.9327 135.609 30.5241 135.609 28.1154V20.5039C135.609 18.0952 136.247 15.6865 137.224 13.5669C138.201 11.4472 139.497 9.34687 141.43 7.84385C143.364 6.34083 145.318 4.83781 147.59 3.93214C149.863 3.02648 152.455 2.42912 155.046 2.42912H171.573V2.40985ZM217.564 25.0322C215.291 25.3406 213.039 25.6296 211.085 26.5353C209.151 27.4409 207.517 28.6549 205.902 30.1579C204.287 31.661 203.31 33.164 202.333 35.2836C201.356 37.4033 201.037 39.1953 201.037 41.315V44.6293C201.037 45.2267 200.719 45.535 199.742 45.535C199.104 45.535 198.765 45.2267 198.765 44.6293V41.0067C198.765 39.1953 199.084 37.6923 199.423 35.881C200.061 34.378 200.719 32.8749 201.695 31.3526C202.672 29.8496 203.968 28.6356 205.264 27.4409C206.56 26.227 208.174 25.3213 209.809 24.4349L211.743 23.5292L209.809 22.6236C208.194 21.7179 206.58 20.8122 205.264 19.6175C203.968 18.4035 202.991 17.2088 202.034 15.7058C201.057 14.2028 200.419 12.6998 199.762 11.1775C199.124 9.67446 199.124 7.86312 199.124 6.3601V2.71817C199.124 2.12081 199.443 1.8125 200.101 1.8125C200.738 1.8125 201.396 2.12081 201.396 2.71817V6.34083C201.396 8.46048 201.715 10.5609 202.692 12.6805C203.669 14.8001 204.965 16.3032 206.58 17.8062C208.194 19.3092 210.148 20.5232 212.082 21.4289C214.015 22.3345 216.288 22.6428 218.88 22.6428H222.448C224.721 22.6428 226.993 22.3345 229.246 21.4289C231.18 20.5232 233.134 19.3092 234.748 17.8062C236.363 16.3032 237.659 14.4918 238.636 12.6805C239.613 10.5609 239.932 8.76879 239.932 6.34083V2.71817C239.932 2.12081 240.251 1.8125 241.227 1.8125C241.885 1.8125 242.204 2.12081 242.204 2.71817V6.34083C242.204 7.84385 241.885 9.65519 241.566 11.1582C240.928 12.6612 240.271 14.1642 239.294 15.6865C238.317 17.1896 237.36 18.4035 236.064 19.5982C234.768 20.8122 233.154 21.7179 231.519 22.6043L229.585 23.51L231.519 24.4156C235.087 25.9186 237.679 28.3273 239.613 31.3526C241.546 34.378 242.523 37.384 242.523 41.0067V44.6293C242.523 45.2267 242.204 45.535 241.546 45.535C240.889 45.535 240.251 45.2267 240.251 44.6293V41.0067C240.251 38.887 239.932 36.7866 238.955 34.667C237.978 32.5474 236.682 31.0443 235.067 29.5413C233.453 28.0383 231.499 26.8243 229.565 25.9186C227.631 25.013 225.359 24.7047 222.767 24.7047L217.564 25.0322ZM311.5 12.6612C311.5 13.2586 311.181 13.5669 310.523 13.5669C309.865 13.5669 309.227 13.2586 309.227 12.6612C309.227 10.2525 308.251 8.44121 306.636 6.62987L305.659 6.03252C304.044 4.81854 302.429 4.22119 300.157 4.22119H281.039C279.105 4.22119 277.151 4.81854 275.536 6.03252L275.217 6.62987C273.603 8.1329 272.626 10.2525 272.626 12.6612C272.626 14.7809 273.264 16.5729 274.241 17.7869C275.536 19.0009 276.832 19.9066 278.786 20.793C280.72 21.3903 282.673 22.0069 284.946 22.6043C287.219 22.9126 289.81 23.2016 292.063 23.51C294.655 23.8183 296.927 24.1073 299.18 24.7239C301.453 25.3213 303.705 25.6296 305.34 26.5353C306.955 27.4409 308.569 28.6549 309.885 29.8496C311.181 31.3526 311.5 33.164 311.5 35.5727C311.5 37.0757 311.181 38.2897 310.523 39.7927C309.885 41.0067 309.227 42.2014 308.251 43.107C307.274 44.0127 305.978 44.9184 304.682 45.2267C303.386 45.824 302.09 46.1323 300.476 46.1323H280.401C277.49 46.1323 274.898 45.2267 272.626 43.1263L272.307 42.818C270.353 41.0067 269.396 38.598 269.396 36.1893V35.881C269.396 35.2836 269.715 34.9753 270.373 34.9753C271.031 34.9753 271.669 35.2836 271.669 35.881C271.669 38.0006 272.327 39.7927 273.942 41.604L274.261 41.9123C275.875 43.4153 278.148 44.321 280.421 44.321H300.496C301.791 44.321 302.768 44.0127 304.064 43.7237C305.36 43.4154 305.998 42.818 306.975 41.9123C307.613 41.315 308.27 40.4093 308.928 39.1953C309.566 37.9814 309.566 37.0757 309.566 35.881C309.566 33.4723 308.928 31.661 307.613 30.1579C306.317 28.944 304.702 28.0383 302.429 27.4409C300.476 26.8436 298.223 26.5353 296.269 26.227C293.997 25.9186 292.063 25.6296 290.448 25.3213C287.538 25.013 284.946 24.7239 282.673 24.1073C280.401 23.51 278.148 22.8933 276.194 21.9877C274.241 21.082 272.965 19.868 271.988 18.365C271.011 16.862 270.373 15.0506 270.373 12.931C270.373 10.214 271.35 7.80531 273.603 5.68567L273.922 5.37736C276.194 3.56602 278.447 2.66036 281.377 2.66036H300.496C303.406 2.66036 305.998 3.56602 307.951 5.37736L308.27 5.68567C310.523 7.2465 311.5 9.65519 311.5 12.6612Z" stroke="white" stroke-width="3.28723" stroke-miterlimit="10"/>
</svg>
