<svg width="211" height="48" viewBox="0 0 211 48" fill="none" xmlns="http://www.w3.org/2000/svg">
<path d="M60.1889 33.5969C59.3038 32.7119 58.8613 31.6498 58.8613 30.3222V16.7811C58.8613 15.542 59.3038 14.3915 60.1889 13.5064L60.2774 13.4179C61.1624 12.6214 62.2245 12.1788 63.4636 12.1788H69.1278C70.4554 12.1788 71.6945 12.4444 72.845 12.9754C73.9956 13.5064 75.0576 14.2145 75.9427 15.0995C76.8277 15.9845 77.5357 16.9581 77.9783 18.1086C78.5093 19.2592 78.7748 20.4983 78.7748 21.8258V25.4545C78.7748 26.7821 78.5093 28.0211 77.9783 29.1717C77.4472 30.3222 76.8277 31.3843 75.9427 32.2693C75.0576 33.1544 74.0841 33.8624 72.845 34.3934C71.6945 34.9245 70.4554 35.19 69.1278 35.19H63.4636C62.2245 35.19 61.2509 34.7475 60.2774 33.9509L60.1889 33.5969ZM61.2509 33.1544C61.8705 33.5969 62.5785 33.8624 63.375 33.8624H69.0393C70.1899 33.8624 71.2519 33.5969 72.314 33.1544C73.376 32.7119 74.2611 32.0923 75.0576 31.2958C75.8542 30.4992 76.4737 29.6142 76.9162 28.6407C77.3587 27.5786 77.6242 26.5166 77.6242 25.366V21.7373C77.6242 20.5868 77.3587 19.4362 76.9162 18.4627C76.4737 17.4006 75.8542 16.5156 75.0576 15.8075C74.2611 15.011 73.376 14.48 72.314 13.9489C71.2519 13.5064 70.1899 13.2409 69.0393 13.2409H63.375C62.5785 13.2409 61.8705 13.5064 61.2509 13.9489L60.8969 14.303C60.1889 15.011 59.8349 15.8075 59.8349 16.7811V30.4107C59.8349 31.3843 60.1889 32.1808 60.8969 32.8889L61.2509 33.1544ZM92.67 13.3294C93.555 12.5329 94.6171 12.0903 95.8561 12.0903H103.822C104.795 12.0903 105.769 12.2674 106.654 12.7099C107.539 13.0639 108.335 13.5949 108.955 14.303C109.663 15.011 110.194 15.719 110.548 16.6041C110.902 17.4891 111.167 18.4627 111.167 19.4362C111.167 20.3212 110.99 21.2063 110.636 22.0913C110.282 22.9764 109.84 23.6844 109.309 24.3039C108.778 24.9235 108.07 25.543 107.273 25.897C106.477 26.3395 105.592 26.6051 104.707 26.6936L103.645 26.7821L110.725 33.8624C110.813 34.0394 110.902 34.1279 110.902 34.3049C110.902 34.659 110.725 34.836 110.371 34.836C110.194 34.836 110.105 34.7475 110.017 34.659L102.051 26.6936H92.316V34.3934C92.316 34.7475 92.139 34.9245 91.7849 34.9245C91.4309 34.9245 91.2539 34.7475 91.2539 34.3934V16.6926C91.2539 15.4535 91.6964 14.303 92.5815 13.4179L92.67 13.3294ZM103.822 25.72C104.618 25.72 105.415 25.543 106.211 25.189C107.008 24.835 107.627 24.3924 108.247 23.8614C108.778 23.3304 109.309 22.6224 109.574 21.9143C109.84 21.2063 110.105 20.3212 110.105 19.4362C110.105 18.5512 109.928 17.7546 109.574 16.9581C109.22 16.1615 108.778 15.542 108.247 15.011C107.716 14.48 107.008 14.0374 106.211 13.6834C105.415 13.3294 104.618 13.1524 103.822 13.1524H95.8561C95.0596 13.1524 94.3516 13.4179 93.732 13.8604L93.378 14.2145C92.67 14.9225 92.316 15.719 92.316 16.6926V25.6315H103.291L103.822 25.72ZM141.967 12.0903C142.321 12.0903 142.498 12.2674 142.498 12.6214C142.498 12.9754 142.321 13.1524 141.967 13.1524H133.913C132.762 13.1524 131.612 13.4179 130.638 13.8604C129.576 14.303 128.691 14.9225 127.983 15.719C127.187 16.5156 126.567 17.4006 126.125 18.3742C125.682 19.4362 125.417 20.4983 125.417 21.6488V22.8879H140.551C140.905 22.8879 141.082 23.0649 141.082 23.4189C141.082 23.7729 140.905 23.9499 140.551 23.9499H125.417V25.189C125.417 26.3395 125.682 27.4901 126.125 28.4636C126.567 29.5257 127.187 30.4107 127.983 31.1188C128.78 31.9153 129.665 32.5348 130.638 32.9774C131.7 33.4199 132.762 33.6854 133.913 33.6854H141.967C142.321 33.6854 142.498 33.8624 142.498 34.2164C142.498 34.5704 142.321 34.7475 141.967 34.7475H133.913C132.585 34.7475 131.346 34.4819 130.196 33.9509C129.045 33.4199 127.983 32.7119 127.098 31.8268C126.213 30.9418 125.505 29.8797 124.974 28.7292C124.443 27.5786 124.178 26.3395 124.178 25.012V21.3833C124.178 20.0557 124.443 18.8167 124.974 17.6661C125.505 16.5156 126.125 15.4535 127.01 14.657C127.895 13.7719 128.868 13.0639 130.107 12.5329C131.346 12.0018 132.497 11.7363 133.824 11.7363L141.967 12.0903ZM164.535 24.1269C163.385 24.2154 162.411 24.481 161.349 24.9235C160.376 25.366 159.491 25.9855 158.783 26.7821C158.075 27.5786 157.455 28.4636 157.101 29.4372C156.659 30.4107 156.482 31.4728 156.482 32.5348V34.3934C156.482 34.7475 156.305 34.9245 155.951 34.9245C155.597 34.9245 155.42 34.7475 155.42 34.3934V32.6234C155.42 31.7383 155.508 30.8533 155.774 29.9682C156.039 29.0832 156.393 28.2866 156.836 27.5786C157.278 26.8706 157.898 26.1625 158.517 25.543C159.137 24.9235 159.933 24.3924 160.818 23.9499L161.792 23.5074L160.907 23.0649C160.11 22.6224 159.402 22.1798 158.694 21.5603C157.986 20.9408 157.544 20.3212 157.101 19.5247C156.659 18.8167 156.305 17.9316 156.039 17.1351C155.774 16.25 155.685 15.4535 155.685 14.5685V12.7099C155.685 12.3559 155.862 12.1788 156.216 12.1788C156.57 12.1788 156.747 12.3559 156.747 12.7099V14.5685C156.747 15.719 157.013 16.7811 157.455 17.8431C157.898 18.9052 158.517 19.7902 159.314 20.5868C160.11 21.3833 160.995 22.0028 161.969 22.4454C163.031 22.8879 164.093 23.1534 165.244 23.1534H166.925C168.076 23.1534 169.226 22.8879 170.2 22.4454C171.262 22.0028 172.147 21.3833 172.855 20.5868C173.651 19.7902 174.271 18.9052 174.713 17.8431C175.156 16.7811 175.422 15.719 175.422 14.5685V12.7099C175.422 12.3559 175.599 12.1788 175.953 12.1788C176.307 12.1788 176.484 12.3559 176.484 12.7099V14.5685C176.484 15.4535 176.395 16.3386 176.13 17.1351C175.864 18.0201 175.51 18.8167 175.068 19.5247C174.625 20.2327 174.094 20.9408 173.474 21.5603C172.855 22.1798 172.147 22.6224 171.262 23.0649L170.377 23.5074L171.35 23.9499C173.032 24.835 174.359 25.9855 175.333 27.5786C176.307 29.0832 176.749 30.7648 176.749 32.6234V34.3934C176.749 34.7475 176.572 34.9245 176.218 34.9245C175.864 34.9245 175.687 34.7475 175.687 34.3934V32.6234C175.687 31.4728 175.422 30.4107 174.979 29.3487C174.536 28.2866 173.917 27.4016 173.12 26.6051C172.324 25.8085 171.439 25.189 170.377 24.7465C169.315 24.3039 168.253 24.0384 167.102 24.0384L164.535 24.1269ZM210.735 17.5776C210.735 17.9316 210.558 18.1086 210.204 18.1086C209.85 18.1086 209.673 17.9316 209.673 17.5776C209.673 16.3386 209.23 15.2765 208.434 14.48L207.991 14.1259C207.195 13.5064 206.31 13.1524 205.336 13.1524H195.955C194.981 13.1524 194.007 13.5064 193.299 14.1259L192.945 14.48C192.06 15.365 191.706 16.3386 191.706 17.5776C191.706 18.7282 191.972 19.6132 192.503 20.2327C193.034 20.8523 193.83 21.3833 194.715 21.8258C195.601 22.1798 196.663 22.5339 197.813 22.7109C198.964 22.8879 200.114 23.0649 201.353 23.2419C202.592 23.4189 203.743 23.5959 204.893 23.7729C206.044 23.9499 207.106 24.3039 207.991 24.7465C208.876 25.189 209.584 25.8085 210.204 26.5166C210.735 27.2246 211 28.1981 211 29.4372C211 30.2337 210.823 30.9418 210.558 31.5613C210.292 32.2693 209.85 32.8004 209.407 33.3314C208.876 33.8624 208.345 34.2164 207.637 34.4819C207.018 34.7475 206.31 34.9245 205.513 34.9245H195.689C194.184 34.9245 192.945 34.3934 191.883 33.3314L191.795 33.1544C190.91 32.1808 190.379 31.0303 190.29 29.6142V29.4372C190.29 29.0832 190.467 28.9062 190.821 28.9062C191.175 28.9062 191.352 29.0832 191.352 29.4372C191.352 30.5878 191.706 31.5613 192.503 32.3578L192.591 32.5348C193.476 33.4199 194.45 33.7739 195.689 33.7739H205.513C206.133 33.7739 206.664 33.6854 207.195 33.4199C207.726 33.1544 208.168 32.8889 208.522 32.4463C208.876 32.0923 209.23 31.5613 209.496 31.0303C209.761 30.4992 209.85 29.9682 209.85 29.3487C209.85 28.0211 209.496 27.0476 208.788 26.428C208.08 25.8085 207.283 25.2775 206.31 25.012C205.336 24.7465 204.274 24.481 203.212 24.3924C202.15 24.3039 201.176 24.1269 200.38 23.9499C198.964 23.7729 197.725 23.5959 196.486 23.3304C195.247 23.0649 194.273 22.7109 193.299 22.1798C192.326 21.6488 191.706 21.0293 191.175 20.3212C190.644 19.6132 190.379 18.6397 190.379 17.4891C190.379 15.9845 190.91 14.7455 191.972 13.5949L192.06 13.5064C193.122 12.5329 194.361 12.0018 195.778 12.0018H205.159C206.575 12.0018 207.814 12.5329 208.876 13.5064L208.965 13.5949C210.204 14.7455 210.735 15.9845 210.735 17.5776Z" fill="black"/>
<path fill-rule="evenodd" clip-rule="evenodd" d="M20.0747 23.7795L19.6526 23.4981L19.2305 23.2636L26.3597 11.8193L20.0747 23.7795Z" fill="black"/>
<path fill-rule="evenodd" clip-rule="evenodd" d="M19.6525 23.0293V23.4983V24.0143L6.19141 23.4983L19.6525 23.0293Z" fill="black"/>
<path fill-rule="evenodd" clip-rule="evenodd" d="M19.2305 23.7796L19.6526 23.4982L20.0747 23.2637L26.3597 35.177L19.2305 23.7796Z" fill="black"/>
<path fill-rule="evenodd" clip-rule="evenodd" d="M12.4764 12.1008L12.8985 11.8194L13.3206 11.5849L6.19141 0.1875L12.4764 12.1008Z" fill="black"/>
<path fill-rule="evenodd" clip-rule="evenodd" d="M12.8984 11.3496V11.8186V12.3346L26.3595 11.8186L12.8984 11.3496Z" fill="black"/>
<path fill-rule="evenodd" clip-rule="evenodd" d="M13.3206 12.1009L12.8985 11.8195L12.4764 11.585L6.19141 23.4983L13.3206 12.1009Z" fill="black"/>
<path fill-rule="evenodd" clip-rule="evenodd" d="M12.4764 35.4582L12.8985 35.1768L13.3206 34.9423L6.19141 23.498L12.4764 35.4582Z" fill="black"/>
<path fill-rule="evenodd" clip-rule="evenodd" d="M12.8984 34.708V35.177V35.693L26.3595 35.177L12.8984 34.708Z" fill="black"/>
<path fill-rule="evenodd" clip-rule="evenodd" d="M13.3206 35.4583L12.8985 35.1769L12.4764 34.9424L6.19141 46.8557L13.3206 35.4583Z" fill="black"/>
<path fill-rule="evenodd" clip-rule="evenodd" d="M32.6912 23.7795L33.1134 23.4981L33.5355 23.2636L26.3594 11.8193L32.6912 23.7795Z" fill="black"/>
<path fill-rule="evenodd" clip-rule="evenodd" d="M33.1133 23.0293V23.4983V24.0143L46.5744 23.4983L33.1133 23.0293Z" fill="black"/>
<path fill-rule="evenodd" clip-rule="evenodd" d="M33.5355 23.7796L33.1134 23.4982L32.6912 23.2637L26.3594 35.177L33.5355 23.7796Z" fill="black"/>
<path fill-rule="evenodd" clip-rule="evenodd" d="M26.3595 12.1478L46.9498 23.4983L26.8286 11.3505L6.23828 0L26.3595 12.1478Z" fill="black"/>
<path fill-rule="evenodd" clip-rule="evenodd" d="M26.3595 34.8954L6.23828 47.0432L26.8286 35.6928L46.9498 23.498L26.3595 34.8954Z" fill="black"/>
<path fill-rule="evenodd" clip-rule="evenodd" d="M6.19116 23.4982L1.12567 11.7726L6.09735 0.046875L0 11.7726L6.19116 23.4982Z" fill="black"/>
<path fill-rule="evenodd" clip-rule="evenodd" d="M6.19116 23.499L1.12567 35.2247L6.09735 46.9973L0 35.2247L6.19116 23.499Z" fill="black"/>
</svg>
